<svg xmlns="http://www.w3.org/2000/svg" xmlns:xlink="http://www.w3.org/1999/xlink" width="75" zoomAndPan="magnify" viewBox="0 0 56.879997 56.999997" height="75" preserveAspectRatio="xMidYMid meet" version="1.0"><defs><clipPath id="id1"><path d="M 0 2.78125 L 41 2.78125 L 41 53.675781 L 0 53.675781 Z M 0 2.78125 " clip-rule="nonzero"/></clipPath><clipPath id="id2"><path d="M 33 12 L 56.761719 12 L 56.761719 46 L 33 46 Z M 33 12 " clip-rule="nonzero"/></clipPath></defs><g clip-path="url(#id1)"><path fill="#140e0c" d="M 40.890625 17.445312 L 39.429688 2.792969 L 27.34375 11.371094 L 30.34375 12.714844 L 23.089844 28.574219 L 14.652344 18.128906 L 0 53.667969 L 8.949219 53.667969 L 16.992188 34.164062 L 25.058594 44.152344 L 37.890625 16.101562 L 40.890625 17.445312 " fill-opacity="1" fill-rule="nonzero"/></g><path fill="#03466e" d="M 41.402344 33.269531 L 36.898438 22.351562 L 29.769531 37.941406 L 32.820312 34.164062 L 33.664062 36.21875 C 37.304688 43.511719 41.402344 33.269531 41.402344 33.269531 " fill-opacity="1" fill-rule="nonzero"/><g clip-path="url(#id2)"><path fill="#00adef" d="M 55.417969 12.574219 L 43.328125 21.152344 L 46.328125 22.496094 L 41.402344 33.269531 C 41.402344 33.269531 37.304688 43.511719 33.664062 36.21875 L 35.910156 41.660156 C 37.792969 46.230469 44.277344 46.378906 46.375 41.898438 L 53.878906 25.878906 L 56.878906 27.226562 L 55.417969 12.574219 " fill-opacity="1" fill-rule="nonzero"/></g></svg>