<svg xmlns="http://www.w3.org/2000/svg" xmlns:xlink="http://www.w3.org/1999/xlink" width="377" zoomAndPan="magnify" viewBox="0 0 282.96 56.999996" height="75" preserveAspectRatio="xMidYMid meet" version="1.0"><defs><g/><clipPath id="id1"><path d="M 15.34375 0.00390625 L 61 0.00390625 L 61 56.894531 L 15.34375 56.894531 Z M 15.34375 0.00390625 " clip-rule="nonzero"/></clipPath><clipPath id="id2"><path d="M 52 10 L 78.226562 10 L 78.226562 48 L 52 48 Z M 52 10 " clip-rule="nonzero"/></clipPath></defs><g clip-path="url(#id1)"><path fill="#140e0c" d="M 60.550781 16.390625 L 58.933594 0.0078125 L 45.570312 9.601562 L 48.890625 11.105469 L 40.867188 28.835938 L 31.546875 17.15625 L 15.347656 56.898438 L 25.242188 56.898438 L 34.128906 35.085938 L 43.046875 46.253906 L 57.234375 14.886719 L 60.550781 16.390625 " fill-opacity="1" fill-rule="nonzero"/></g><path fill="#03466e" d="M 61.113281 34.089844 L 56.136719 21.878906 L 48.253906 39.3125 L 51.625 35.085938 L 52.5625 37.382812 C 56.585938 45.535156 61.113281 34.089844 61.113281 34.089844 " fill-opacity="1" fill-rule="nonzero"/><g clip-path="url(#id2)"><path fill="#00adef" d="M 76.609375 10.945312 L 63.246094 20.535156 L 66.5625 22.039062 L 61.113281 34.089844 C 61.113281 34.089844 56.585938 45.535156 52.5625 37.382812 L 55.042969 43.46875 C 57.125 48.578125 64.292969 48.746094 66.609375 43.738281 L 74.90625 25.824219 L 78.226562 27.328125 L 76.609375 10.945312 " fill-opacity="1" fill-rule="nonzero"/></g><g fill="#050a30" fill-opacity="1"><g transform="translate(91.204177, 23.484621)"><g><path d="M 5.382812 -11.777344 C 5.214844 -11.777344 5.082031 -11.777344 4.929688 -11.777344 C 4.777344 -11.757812 4.625 -11.777344 4.476562 -11.742188 C 4.308594 -11.726562 4.136719 -11.726562 3.953125 -11.726562 C 3.433594 -11.710938 2.910156 -11.726562 2.371094 -11.710938 C 2.152344 -11.691406 1.933594 -11.710938 1.714844 -11.710938 C 1.683594 -11.710938 1.664062 -11.691406 1.648438 -11.691406 C 1.597656 -11.691406 1.53125 -11.691406 1.480469 -11.675781 C 1.414062 -11.675781 1.347656 -11.675781 1.261719 -11.675781 C 1.261719 -11.625 1.246094 -11.589844 1.246094 -11.558594 C 1.246094 -11.441406 1.246094 -11.304688 1.246094 -11.1875 C 1.246094 -10.851562 1.246094 -10.515625 1.246094 -10.179688 C 1.246094 -9.941406 1.277344 -9.691406 1.277344 -9.453125 C 1.277344 -9.101562 1.261719 -8.730469 1.261719 -8.359375 C 1.246094 -7.804688 1.246094 -7.25 1.261719 -6.679688 C 1.277344 -6.5625 1.246094 -6.441406 1.246094 -6.324219 C 1.246094 -5.886719 1.261719 -5.449219 1.226562 -4.996094 C 1.210938 -4.894531 1.210938 -4.777344 1.210938 -4.660156 C 1.210938 -4.644531 1.210938 -4.625 1.210938 -4.609375 C 1.210938 -4.507812 1.226562 -4.40625 1.226562 -4.308594 C 1.226562 -3.800781 1.226562 -3.28125 1.226562 -2.757812 C 1.226562 -2.574219 1.226562 -2.390625 1.246094 -2.203125 C 1.261719 -2.050781 1.246094 -1.902344 1.226562 -1.75 C 1.210938 -1.597656 1.226562 -1.429688 1.226562 -1.277344 C 1.226562 -1.246094 1.226562 -1.210938 1.226562 -1.160156 C 1.210938 -1.027344 1.195312 -0.890625 1.195312 -0.738281 C 1.175781 -0.488281 1.175781 -0.253906 1.175781 0 C 1.175781 0.015625 1.175781 0.0507812 1.195312 0.0859375 C 1.226562 0.0859375 1.261719 0.0859375 1.296875 0.0859375 C 1.445312 0.0664062 1.613281 0.0664062 1.765625 0.0664062 C 2.101562 0.0507812 2.421875 0.0664062 2.757812 0.0664062 C 2.792969 0.0664062 2.808594 0.0664062 2.84375 0.0664062 C 3.09375 0.101562 3.347656 0.0664062 3.601562 0.0507812 C 3.785156 0.0351562 3.96875 0.0351562 4.15625 0.0507812 C 4.339844 0.0507812 4.542969 0.0664062 4.726562 0.0664062 C 4.914062 0.0859375 5.082031 0.0664062 5.25 0.0507812 C 5.28125 0.0507812 5.300781 0.0507812 5.332031 0.0507812 C 5.332031 -0.0859375 5.351562 -0.21875 5.351562 -0.371094 C 5.367188 -0.859375 5.367188 -1.347656 5.382812 -1.832031 C 5.398438 -2.609375 5.367188 -3.363281 5.398438 -4.136719 C 5.417969 -4.375 5.417969 -4.609375 5.417969 -4.863281 C 5.449219 -5.398438 5.417969 -5.9375 5.449219 -6.476562 C 5.46875 -6.78125 5.449219 -7.066406 5.433594 -7.367188 C 5.417969 -7.707031 5.433594 -8.042969 5.449219 -8.378906 C 5.449219 -8.765625 5.449219 -9.152344 5.449219 -9.539062 C 5.449219 -9.574219 5.449219 -9.605469 5.449219 -9.621094 C 5.433594 -9.824219 5.417969 -10.027344 5.398438 -10.210938 C 5.398438 -10.683594 5.398438 -11.136719 5.398438 -11.609375 C 5.398438 -11.660156 5.398438 -11.710938 5.382812 -11.777344 Z M 5.382812 -11.777344 "/></g></g></g><g fill="#050a30" fill-opacity="1"><g transform="translate(97.849385, 23.484621)"><g><path d="M 1.261719 -11.691406 C 1.261719 -11.660156 1.261719 -11.625 1.261719 -11.589844 C 1.261719 -11.457031 1.261719 -11.304688 1.277344 -11.171875 C 1.296875 -11.054688 1.296875 -10.917969 1.3125 -10.785156 C 1.3125 -10.765625 1.3125 -10.75 1.3125 -10.734375 C 1.296875 -10.566406 1.277344 -10.414062 1.261719 -10.246094 C 1.261719 -9.859375 1.261719 -9.453125 1.261719 -9.066406 C 1.261719 -8.597656 1.277344 -8.109375 1.246094 -7.621094 C 1.226562 -7.4375 1.226562 -7.25 1.226562 -7.050781 C 1.210938 -6.613281 1.195312 -6.175781 1.195312 -5.738281 C 1.195312 -5.367188 1.210938 -4.996094 1.210938 -4.625 C 1.226562 -3.734375 1.226562 -2.828125 1.226562 -1.933594 C 1.226562 -1.902344 1.226562 -1.867188 1.210938 -1.832031 C 1.195312 -1.683594 1.175781 -1.53125 1.175781 -1.363281 C 1.175781 -0.957031 1.175781 -0.539062 1.175781 -0.132812 C 1.175781 -0.0507812 1.195312 0.0507812 1.210938 0.152344 C 1.414062 0.152344 1.613281 0.132812 1.816406 0.132812 C 2.050781 0.132812 2.289062 0.132812 2.523438 0.117188 C 2.859375 0.101562 3.195312 0.101562 3.550781 0.0859375 C 4.070312 0.0859375 4.59375 0.0859375 5.113281 0.0859375 C 5.214844 0.0859375 5.316406 0.0664062 5.417969 0.0664062 C 5.417969 0.0351562 5.417969 0 5.417969 -0.015625 C 5.433594 -0.824219 5.417969 -1.613281 5.433594 -2.40625 C 5.46875 -3.214844 5.433594 -4.019531 5.433594 -4.828125 C 5.449219 -4.945312 5.449219 -5.082031 5.46875 -5.214844 C 5.484375 -5.382812 5.484375 -5.570312 5.484375 -5.738281 C 5.484375 -6.324219 5.484375 -6.929688 5.484375 -7.519531 C 5.484375 -7.554688 5.484375 -7.605469 5.46875 -7.636719 C 5.46875 -7.722656 5.46875 -7.804688 5.46875 -7.890625 C 5.519531 -7.855469 5.570312 -7.839844 5.617188 -7.824219 C 5.855469 -7.6875 6.074219 -7.535156 6.308594 -7.386719 C 6.511719 -7.234375 6.710938 -7.082031 6.914062 -6.929688 C 7.050781 -6.847656 7.183594 -6.761719 7.316406 -6.679688 C 7.46875 -6.59375 7.621094 -6.511719 7.773438 -6.425781 C 7.972656 -6.292969 8.175781 -6.175781 8.359375 -6.023438 C 8.410156 -5.988281 8.460938 -5.9375 8.511719 -5.90625 C 8.714844 -5.769531 8.917969 -5.652344 9.117188 -5.519531 C 9.234375 -5.449219 9.335938 -5.367188 9.4375 -5.300781 C 9.554688 -5.230469 9.671875 -5.148438 9.792969 -5.082031 C 9.925781 -4.980469 10.078125 -4.863281 10.230469 -4.761719 C 10.363281 -4.660156 10.515625 -4.574219 10.667969 -4.476562 C 10.953125 -4.273438 11.253906 -4.089844 11.523438 -3.871094 C 11.660156 -3.75 11.792969 -3.652344 11.929688 -3.53125 C 11.976562 -3.484375 12.046875 -3.433594 12.113281 -3.398438 C 12.195312 -3.332031 12.28125 -3.28125 12.363281 -3.214844 C 12.566406 -3.09375 12.769531 -2.960938 12.953125 -2.828125 C 13.171875 -2.707031 13.390625 -2.574219 13.609375 -2.457031 C 13.644531 -2.4375 13.675781 -2.421875 13.710938 -2.390625 C 13.8125 -2.339844 13.914062 -2.269531 13.996094 -2.203125 C 14.132812 -2.121094 14.265625 -2.035156 14.382812 -1.933594 C 14.570312 -1.816406 14.753906 -1.664062 14.957031 -1.546875 C 15.125 -1.464844 15.277344 -1.363281 15.425781 -1.246094 C 15.542969 -1.144531 15.679688 -1.058594 15.8125 -0.976562 C 15.980469 -0.875 16.152344 -0.789062 16.300781 -0.691406 C 16.554688 -0.523438 16.789062 -0.351562 17.023438 -0.183594 C 17.144531 -0.117188 17.242188 -0.0351562 17.34375 0.0507812 C 17.445312 0.0507812 17.546875 0.0507812 17.632812 0.0507812 C 17.816406 0.0507812 18 0.0664062 18.203125 0.0859375 C 18.421875 0.0859375 18.65625 0.0859375 18.875 0.0859375 C 18.910156 0.0859375 18.941406 0.0859375 18.976562 0.0859375 C 19.144531 0.0664062 19.3125 0.0507812 19.480469 0.0507812 C 19.71875 0.0351562 19.96875 0.0507812 20.203125 0.0507812 C 20.660156 0.0351562 21.113281 0.0351562 21.566406 0.0351562 C 21.601562 0.0351562 21.652344 0.0351562 21.683594 0.015625 C 21.683594 -0.101562 21.667969 -0.21875 21.683594 -0.320312 C 21.683594 -0.402344 21.703125 -0.488281 21.683594 -0.570312 C 21.683594 -0.859375 21.683594 -1.128906 21.683594 -1.414062 C 21.667969 -1.75 21.667969 -2.085938 21.667969 -2.421875 C 21.667969 -2.828125 21.683594 -3.230469 21.652344 -3.652344 C 21.636719 -3.871094 21.636719 -4.070312 21.636719 -4.308594 C 21.617188 -4.945312 21.636719 -5.585938 21.617188 -6.226562 C 21.585938 -6.949219 21.601562 -7.65625 21.601562 -8.359375 C 21.601562 -8.410156 21.617188 -8.460938 21.617188 -8.511719 C 21.636719 -8.613281 21.652344 -8.714844 21.652344 -8.816406 C 21.652344 -9.085938 21.652344 -9.371094 21.652344 -9.65625 C 21.652344 -9.691406 21.652344 -9.722656 21.652344 -9.757812 C 21.636719 -9.941406 21.617188 -10.128906 21.601562 -10.296875 C 21.601562 -10.667969 21.585938 -11.019531 21.585938 -11.371094 C 21.585938 -11.472656 21.585938 -11.574219 21.601562 -11.691406 C 21.566406 -11.691406 21.535156 -11.691406 21.515625 -11.691406 C 21.433594 -11.691406 21.332031 -11.675781 21.246094 -11.675781 C 21.078125 -11.675781 20.929688 -11.691406 20.761719 -11.691406 C 20.640625 -11.691406 20.523438 -11.675781 20.40625 -11.675781 C 20.003906 -11.675781 19.597656 -11.660156 19.210938 -11.691406 C 19.0625 -11.710938 18.910156 -11.675781 18.757812 -11.660156 C 18.65625 -11.660156 18.554688 -11.625 18.457031 -11.625 C 18.285156 -11.625 18.136719 -11.609375 17.96875 -11.640625 C 17.949219 -11.640625 17.949219 -11.640625 17.933594 -11.640625 C 17.800781 -11.625 17.664062 -11.625 17.53125 -11.589844 C 17.480469 -11.589844 17.445312 -11.574219 17.394531 -11.574219 C 17.378906 -11.40625 17.363281 -11.238281 17.363281 -11.085938 C 17.363281 -10.816406 17.363281 -10.546875 17.378906 -10.261719 C 17.394531 -10.042969 17.378906 -9.808594 17.394531 -9.574219 C 17.429688 -9.285156 17.429688 -9 17.429688 -8.714844 C 17.429688 -8.578125 17.429688 -8.445312 17.445312 -8.3125 C 17.445312 -8.261719 17.445312 -8.226562 17.445312 -8.175781 C 17.429688 -8.09375 17.414062 -8.023438 17.414062 -7.941406 C 17.394531 -7.773438 17.394531 -7.585938 17.394531 -7.417969 C 17.394531 -7 17.378906 -6.59375 17.394531 -6.175781 C 17.429688 -5.6875 17.394531 -5.179688 17.429688 -4.695312 C 17.429688 -4.390625 17.429688 -4.070312 17.429688 -3.769531 C 17.394531 -3.785156 17.378906 -3.820312 17.34375 -3.835938 C 17.226562 -3.917969 17.125 -3.988281 17.007812 -4.070312 C 16.671875 -4.324219 16.335938 -4.574219 15.980469 -4.8125 C 15.761719 -4.964844 15.542969 -5.097656 15.324219 -5.230469 C 15.191406 -5.316406 15.039062 -5.398438 14.90625 -5.5 C 14.789062 -5.570312 14.671875 -5.652344 14.535156 -5.738281 C 14.367188 -5.855469 14.199219 -5.957031 14.03125 -6.054688 C 13.8125 -6.191406 13.59375 -6.34375 13.375 -6.492188 C 13.257812 -6.5625 13.121094 -6.613281 13.003906 -6.695312 C 12.71875 -6.863281 12.449219 -7.03125 12.195312 -7.234375 C 12.164062 -7.25 12.113281 -7.285156 12.078125 -7.300781 C 11.84375 -7.46875 11.589844 -7.636719 11.339844 -7.789062 C 11.304688 -7.824219 11.273438 -7.839844 11.238281 -7.855469 C 11.101562 -7.957031 10.96875 -8.058594 10.816406 -8.140625 C 10.496094 -8.359375 10.160156 -8.5625 9.824219 -8.765625 C 9.589844 -8.933594 9.355469 -9.085938 9.101562 -9.253906 C 8.867188 -9.421875 8.628906 -9.574219 8.394531 -9.742188 C 8.328125 -9.792969 8.261719 -9.839844 8.191406 -9.890625 C 7.992188 -10.011719 7.804688 -10.128906 7.605469 -10.261719 C 7.554688 -10.296875 7.503906 -10.328125 7.453125 -10.363281 C 7.351562 -10.449219 7.25 -10.515625 7.148438 -10.582031 C 6.980469 -10.699219 6.832031 -10.800781 6.660156 -10.902344 C 6.5625 -10.96875 6.441406 -11.035156 6.359375 -11.101562 C 6.207031 -11.203125 6.039062 -11.304688 5.90625 -11.40625 C 5.769531 -11.492188 5.636719 -11.609375 5.484375 -11.675781 C 5.398438 -11.675781 5.332031 -11.691406 5.25 -11.691406 C 5.011719 -11.691406 4.777344 -11.691406 4.542969 -11.691406 C 4.324219 -11.691406 4.105469 -11.675781 3.871094 -11.675781 C 3.820312 -11.675781 3.769531 -11.691406 3.71875 -11.691406 C 3.617188 -11.710938 3.515625 -11.726562 3.433594 -11.710938 C 3.195312 -11.710938 2.960938 -11.691406 2.726562 -11.691406 C 2.40625 -11.691406 2.070312 -11.691406 1.75 -11.691406 C 1.597656 -11.691406 1.429688 -11.691406 1.261719 -11.691406 Z M 1.261719 -11.691406 "/></g></g></g><g fill="#050a30" fill-opacity="1"><g transform="translate(120.729072, 23.484621)"><g><path d="M 19.480469 -11.710938 C 19.3125 -11.492188 19.144531 -11.273438 18.992188 -11.035156 C 18.925781 -10.953125 18.859375 -10.867188 18.808594 -10.785156 C 18.65625 -10.597656 18.503906 -10.414062 18.371094 -10.230469 C 18.152344 -9.910156 17.917969 -9.621094 17.699219 -9.320312 C 17.363281 -8.917969 17.042969 -8.496094 16.738281 -8.074219 C 16.636719 -7.941406 16.539062 -7.804688 16.4375 -7.671875 C 16.320312 -7.535156 16.199219 -7.402344 16.101562 -7.25 C 15.980469 -7.066406 15.832031 -6.878906 15.679688 -6.710938 C 15.511719 -6.511719 15.359375 -6.324219 15.226562 -6.105469 C 15.105469 -5.90625 14.972656 -5.738281 14.820312 -5.570312 C 14.6875 -5.46875 14.585938 -5.332031 14.5 -5.179688 C 14.417969 -5.0625 14.332031 -4.945312 14.214844 -4.828125 C 14.132812 -4.726562 14.046875 -4.609375 13.980469 -4.492188 C 13.929688 -4.40625 13.894531 -4.324219 13.828125 -4.238281 C 13.625 -3.953125 13.425781 -3.667969 13.222656 -3.398438 C 13.070312 -3.214844 12.921875 -3.011719 12.785156 -2.828125 C 12.769531 -2.808594 12.753906 -2.792969 12.734375 -2.777344 C 12.632812 -2.910156 12.535156 -3.046875 12.433594 -3.164062 C 12.332031 -3.28125 12.265625 -3.398438 12.195312 -3.53125 C 12.144531 -3.652344 12.078125 -3.75 12.011719 -3.851562 C 11.910156 -4.003906 11.808594 -4.15625 11.691406 -4.289062 C 11.558594 -4.476562 11.421875 -4.644531 11.289062 -4.8125 C 11.121094 -5.011719 10.953125 -5.214844 10.785156 -5.417969 C 10.699219 -5.519531 10.632812 -5.617188 10.546875 -5.71875 C 10.414062 -5.90625 10.261719 -6.105469 10.109375 -6.308594 C 10.027344 -6.425781 9.941406 -6.578125 9.839844 -6.695312 C 9.574219 -7.015625 9.335938 -7.367188 9.066406 -7.6875 C 8.898438 -7.875 8.75 -8.09375 8.597656 -8.3125 C 8.378906 -8.613281 8.175781 -8.917969 7.921875 -9.203125 C 7.839844 -9.285156 7.773438 -9.371094 7.722656 -9.472656 C 7.636719 -9.605469 7.535156 -9.742188 7.4375 -9.859375 C 7.335938 -9.976562 7.234375 -10.09375 7.167969 -10.246094 C 7.132812 -10.296875 7.082031 -10.328125 7.050781 -10.378906 C 7 -10.449219 6.929688 -10.496094 6.878906 -10.566406 C 6.761719 -10.734375 6.644531 -10.933594 6.511719 -11.101562 C 6.394531 -11.253906 6.292969 -11.457031 6.125 -11.589844 C 6.125 -11.589844 6.105469 -11.625 6.089844 -11.625 C 6.039062 -11.726562 5.957031 -11.742188 5.871094 -11.710938 C 5.820312 -11.710938 5.769531 -11.691406 5.71875 -11.691406 C 5.164062 -11.710938 4.609375 -11.691406 4.054688 -11.710938 C 3.53125 -11.742188 3.011719 -11.726562 2.488281 -11.726562 C 2.472656 -11.726562 2.457031 -11.726562 2.421875 -11.710938 C 2.304688 -11.691406 2.1875 -11.710938 2.070312 -11.710938 C 1.933594 -11.710938 1.816406 -11.710938 1.683594 -11.726562 C 1.648438 -11.726562 1.597656 -11.710938 1.566406 -11.726562 C 1.445312 -11.742188 1.3125 -11.710938 1.175781 -11.726562 C 1.277344 -11.574219 1.394531 -11.421875 1.480469 -11.273438 C 1.765625 -10.835938 2.085938 -10.429688 2.40625 -10.027344 C 2.472656 -9.960938 2.523438 -9.890625 2.589844 -9.808594 C 2.640625 -9.742188 2.707031 -9.671875 2.757812 -9.589844 C 2.84375 -9.503906 2.925781 -9.421875 2.996094 -9.320312 C 3.164062 -9.101562 3.3125 -8.882812 3.464844 -8.679688 C 3.566406 -8.546875 3.667969 -8.410156 3.769531 -8.292969 C 3.902344 -8.109375 4.039062 -7.941406 4.171875 -7.753906 C 4.257812 -7.636719 4.355469 -7.535156 4.457031 -7.417969 C 4.609375 -7.234375 4.761719 -7.050781 4.914062 -6.863281 C 5.097656 -6.613281 5.300781 -6.375 5.484375 -6.125 C 5.820312 -5.667969 6.140625 -5.230469 6.476562 -4.792969 C 6.59375 -4.625 6.730469 -4.457031 6.863281 -4.289062 C 6.980469 -4.15625 7.097656 -4.039062 7.199219 -3.902344 C 7.503906 -3.550781 7.753906 -3.179688 8.023438 -2.808594 C 8.226562 -2.539062 8.410156 -2.253906 8.613281 -1.984375 C 8.765625 -1.75 8.949219 -1.53125 9.136719 -1.3125 C 9.269531 -1.144531 9.386719 -0.992188 9.523438 -0.824219 C 9.65625 -0.621094 9.792969 -0.421875 9.941406 -0.234375 C 9.992188 -0.152344 10.058594 -0.0859375 10.128906 0 C 10.277344 -0.015625 10.449219 0.015625 10.597656 -0.015625 C 10.632812 -0.0351562 10.683594 -0.015625 10.714844 -0.015625 C 10.800781 0 10.882812 0.015625 10.96875 0.015625 C 11.054688 0 11.136719 0 11.203125 0 C 11.355469 0 11.492188 0.015625 11.640625 0.015625 C 11.84375 0.015625 12.046875 0.015625 12.246094 0 C 12.464844 -0.015625 12.683594 -0.015625 12.886719 0.015625 C 13.140625 0.0351562 13.410156 0 13.675781 0.0351562 C 13.777344 0.0507812 13.878906 0.0507812 13.996094 0.0507812 C 14.03125 0.0507812 14.0625 0.0507812 14.113281 0.0507812 C 14.183594 0.0507812 14.25 0.0507812 14.316406 0.0507812 C 14.535156 0.0507812 14.738281 0.0507812 14.9375 0.0664062 C 14.957031 0.0664062 14.972656 0.0507812 14.988281 0.0507812 C 15.074219 0.0351562 15.140625 0.015625 15.207031 0.015625 C 15.308594 0.0351562 15.410156 0.0351562 15.511719 0.0351562 C 15.527344 0.015625 15.527344 0.015625 15.542969 0 C 15.78125 -0.285156 16.015625 -0.589844 16.234375 -0.875 C 16.371094 -1.058594 16.503906 -1.246094 16.636719 -1.429688 C 16.789062 -1.632812 16.941406 -1.851562 17.09375 -2.070312 C 17.175781 -2.171875 17.242188 -2.289062 17.328125 -2.390625 C 17.394531 -2.488281 17.460938 -2.574219 17.53125 -2.65625 C 17.699219 -2.894531 17.882812 -3.09375 18.035156 -3.332031 C 18.1875 -3.566406 18.355469 -3.785156 18.503906 -4.019531 C 18.589844 -4.136719 18.65625 -4.273438 18.742188 -4.390625 C 18.859375 -4.542969 18.976562 -4.695312 19.078125 -4.84375 C 19.210938 -5.03125 19.328125 -5.199219 19.464844 -5.367188 C 19.667969 -5.617188 19.851562 -5.886719 20.054688 -6.140625 C 20.121094 -6.242188 20.1875 -6.34375 20.273438 -6.425781 C 20.441406 -6.613281 20.59375 -6.78125 20.726562 -6.980469 C 20.808594 -7.097656 20.878906 -7.21875 20.960938 -7.335938 C 21.179688 -7.605469 21.417969 -7.875 21.636719 -8.140625 C 21.683594 -8.191406 21.734375 -8.261719 21.785156 -8.328125 C 21.953125 -8.511719 22.140625 -8.679688 22.289062 -8.867188 C 22.460938 -9.066406 22.59375 -9.253906 22.746094 -9.453125 C 22.914062 -9.65625 23.082031 -9.890625 23.25 -10.109375 C 23.316406 -10.195312 23.382812 -10.296875 23.46875 -10.378906 C 23.570312 -10.496094 23.671875 -10.632812 23.753906 -10.785156 C 23.871094 -10.984375 23.988281 -11.1875 24.140625 -11.355469 C 24.226562 -11.457031 24.308594 -11.558594 24.394531 -11.675781 C 24.34375 -11.675781 24.308594 -11.675781 24.277344 -11.675781 C 23.972656 -11.675781 23.671875 -11.675781 23.367188 -11.675781 C 23.183594 -11.675781 22.980469 -11.691406 22.796875 -11.691406 C 22.746094 -11.691406 22.695312 -11.691406 22.628906 -11.691406 C 22.441406 -11.691406 22.257812 -11.691406 22.070312 -11.691406 C 21.921875 -11.691406 21.769531 -11.675781 21.617188 -11.691406 C 21.449219 -11.691406 21.265625 -11.691406 21.097656 -11.691406 C 20.808594 -11.710938 20.523438 -11.691406 20.253906 -11.710938 C 20.003906 -11.726562 19.75 -11.710938 19.480469 -11.710938 Z M 19.480469 -11.710938 "/></g></g></g><g fill="#050a30" fill-opacity="1"><g transform="translate(146.300486, 23.484621)"><g><path d="M 5.46875 -8.898438 C 5.652344 -8.917969 5.835938 -8.917969 6.007812 -8.933594 C 6.242188 -8.933594 6.492188 -8.933594 6.730469 -8.933594 C 7.25 -8.917969 7.773438 -8.933594 8.292969 -8.898438 C 8.546875 -8.898438 8.796875 -8.898438 9.035156 -8.882812 C 9.320312 -8.867188 9.605469 -8.882812 9.890625 -8.867188 C 10.464844 -8.847656 11.019531 -8.832031 11.574219 -8.832031 C 12.011719 -8.832031 12.433594 -8.847656 12.871094 -8.847656 C 13.980469 -8.882812 15.105469 -8.847656 16.21875 -8.882812 C 16.824219 -8.898438 17.445312 -8.882812 18.050781 -8.882812 C 18.085938 -8.882812 18.117188 -8.882812 18.152344 -8.882812 C 18.285156 -8.898438 18.421875 -8.917969 18.554688 -8.933594 C 18.722656 -8.933594 18.894531 -8.933594 19.078125 -8.949219 C 19.566406 -8.984375 20.054688 -8.96875 20.558594 -8.96875 C 20.574219 -8.96875 20.609375 -8.96875 20.640625 -8.96875 C 20.660156 -8.96875 20.675781 -8.96875 20.675781 -8.96875 C 20.84375 -8.984375 20.996094 -9 21.148438 -9.015625 C 21.164062 -9.015625 21.164062 -9.015625 21.179688 -9.035156 C 21.179688 -9.066406 21.179688 -9.085938 21.179688 -9.117188 C 21.179688 -9.269531 21.179688 -9.4375 21.179688 -9.589844 C 21.199219 -9.976562 21.179688 -10.347656 21.199219 -10.734375 C 21.214844 -11.035156 21.214844 -11.339844 21.230469 -11.640625 C 21.230469 -11.675781 21.230469 -11.691406 21.214844 -11.710938 C 21.214844 -11.726562 21.199219 -11.726562 21.199219 -11.726562 C 20.574219 -11.726562 19.96875 -11.726562 19.347656 -11.726562 C 19.328125 -11.726562 19.296875 -11.726562 19.28125 -11.710938 C 19.128906 -11.691406 19.011719 -11.710938 18.875 -11.726562 C 18.84375 -11.742188 18.792969 -11.742188 18.757812 -11.742188 C 18.386719 -11.742188 18.035156 -11.742188 17.664062 -11.742188 C 17.394531 -11.742188 17.109375 -11.742188 16.839844 -11.726562 C 16.21875 -11.710938 15.613281 -11.742188 15.007812 -11.691406 C 13.980469 -11.710938 12.953125 -11.675781 11.929688 -11.726562 C 11.777344 -11.726562 11.609375 -11.710938 11.457031 -11.710938 C 10.851562 -11.710938 10.230469 -11.710938 9.605469 -11.726562 C 9.589844 -11.726562 9.574219 -11.726562 9.554688 -11.726562 C 9.355469 -11.742188 9.167969 -11.757812 8.96875 -11.757812 C 8.796875 -11.777344 8.613281 -11.777344 8.445312 -11.742188 C 8.242188 -11.726562 8.023438 -11.726562 7.824219 -11.726562 C 7.335938 -11.710938 6.847656 -11.742188 6.359375 -11.710938 C 6.039062 -11.691406 5.71875 -11.710938 5.382812 -11.710938 C 5.011719 -11.742188 4.625 -11.710938 4.238281 -11.742188 C 4.105469 -11.742188 3.96875 -11.726562 3.851562 -11.726562 C 3.683594 -11.726562 3.515625 -11.742188 3.347656 -11.742188 C 3.128906 -11.742188 2.894531 -11.726562 2.675781 -11.726562 C 2.253906 -11.726562 1.851562 -11.726562 1.429688 -11.691406 C 1.394531 -11.691406 1.347656 -11.691406 1.3125 -11.660156 C 1.3125 -11.640625 1.3125 -11.609375 1.3125 -11.589844 C 1.261719 -11.371094 1.261719 -11.136719 1.246094 -10.917969 C 1.226562 -10.617188 1.246094 -10.3125 1.261719 -10.011719 C 1.277344 -9.554688 1.261719 -9.101562 1.261719 -8.628906 C 1.261719 -8.277344 1.277344 -7.921875 1.246094 -7.570312 C 1.226562 -7.367188 1.226562 -7.167969 1.226562 -6.980469 C 1.226562 -6.710938 1.210938 -6.425781 1.210938 -6.175781 C 1.195312 -5.804688 1.195312 -5.449219 1.175781 -5.097656 C 1.175781 -4.59375 1.175781 -4.089844 1.175781 -3.582031 C 1.175781 -3.128906 1.175781 -2.675781 1.175781 -2.203125 C 1.175781 -1.75 1.195312 -1.296875 1.195312 -0.824219 C 1.175781 -0.738281 1.195312 -0.640625 1.195312 -0.539062 C 1.195312 -0.371094 1.195312 -0.167969 1.195312 0.015625 C 1.195312 0.0351562 1.195312 0.0664062 1.195312 0.101562 C 1.246094 0.101562 1.277344 0.101562 1.3125 0.101562 C 1.445312 0.101562 1.582031 0.101562 1.714844 0.101562 C 1.765625 0.101562 1.816406 0.117188 1.867188 0.117188 C 2.035156 0.101562 2.1875 0.0859375 2.355469 0.0859375 C 2.742188 0.0859375 3.128906 0.101562 3.5 0.101562 C 3.800781 0.101562 4.089844 0.117188 4.390625 0.117188 C 4.792969 0.132812 5.179688 0.152344 5.570312 0.152344 C 6.089844 0.152344 6.59375 0.167969 7.097656 0.132812 C 7.25 0.117188 7.386719 0.117188 7.535156 0.132812 C 8.328125 0.132812 9.136719 0.117188 9.925781 0.132812 C 10.667969 0.167969 11.40625 0.152344 12.128906 0.152344 C 12.332031 0.152344 12.535156 0.152344 12.753906 0.132812 C 12.902344 0.117188 13.054688 0.117188 13.207031 0.101562 C 13.410156 0.101562 13.609375 0.0859375 13.8125 0.0859375 C 14.453125 0.0859375 15.105469 0.0664062 15.746094 0.101562 C 16.234375 0.117188 16.722656 0.101562 17.210938 0.117188 C 17.53125 0.132812 17.867188 0.117188 18.203125 0.117188 C 18.238281 0.117188 18.269531 0.117188 18.304688 0.117188 C 18.539062 0.101562 18.773438 0.0859375 19.027344 0.0859375 C 19.886719 0.0664062 20.742188 0.0859375 21.601562 0.0859375 C 21.71875 0.0859375 21.820312 0.0859375 21.9375 0.0664062 C 21.953125 -0.0507812 21.972656 -0.183594 21.972656 -0.304688 C 21.972656 -0.570312 21.972656 -0.839844 21.953125 -1.109375 C 21.9375 -1.226562 21.9375 -1.363281 21.921875 -1.480469 C 21.921875 -1.53125 21.902344 -1.582031 21.902344 -1.632812 C 21.886719 -2.003906 21.871094 -2.371094 21.855469 -2.757812 C 21.855469 -2.828125 21.835938 -2.875 21.769531 -2.910156 C 21.753906 -2.910156 21.734375 -2.910156 21.734375 -2.910156 C 21.332031 -2.910156 20.910156 -2.925781 20.507812 -2.894531 C 20.253906 -2.875 20.003906 -2.875 19.75 -2.875 C 19.71875 -2.859375 19.699219 -2.859375 19.667969 -2.859375 C 19.546875 -2.859375 19.449219 -2.859375 19.328125 -2.859375 C 19.195312 -2.859375 19.078125 -2.894531 18.941406 -2.894531 C 18.691406 -2.894531 18.457031 -2.894531 18.203125 -2.875 C 18 -2.859375 17.78125 -2.859375 17.582031 -2.84375 C 17.5625 -2.84375 17.5625 -2.84375 17.546875 -2.84375 C 17.328125 -2.828125 17.125 -2.808594 16.90625 -2.808594 C 16.554688 -2.808594 16.199219 -2.808594 15.847656 -2.808594 C 15.125 -2.808594 14.417969 -2.777344 13.710938 -2.828125 C 13.492188 -2.84375 13.273438 -2.84375 13.054688 -2.84375 C 12.566406 -2.859375 12.0625 -2.859375 11.558594 -2.859375 C 10.953125 -2.875 10.328125 -2.875 9.722656 -2.875 C 9.707031 -2.875 9.671875 -2.875 9.65625 -2.859375 C 9.4375 -2.859375 9.203125 -2.84375 8.984375 -2.828125 C 8.699219 -2.828125 8.410156 -2.828125 8.140625 -2.828125 C 7.335938 -2.828125 6.511719 -2.828125 5.703125 -2.859375 C 5.652344 -2.859375 5.601562 -2.859375 5.535156 -2.859375 C 5.5 -2.859375 5.46875 -2.859375 5.417969 -2.875 C 5.417969 -2.910156 5.417969 -2.945312 5.417969 -2.960938 C 5.433594 -3.0625 5.449219 -3.179688 5.433594 -3.28125 C 5.433594 -3.515625 5.449219 -3.75 5.433594 -3.988281 C 5.417969 -4.136719 5.433594 -4.308594 5.433594 -4.476562 C 5.433594 -4.476562 5.433594 -4.492188 5.449219 -4.507812 C 5.5 -4.507812 5.550781 -4.527344 5.617188 -4.527344 C 5.753906 -4.527344 5.886719 -4.527344 6.039062 -4.527344 C 6.292969 -4.542969 6.527344 -4.558594 6.78125 -4.558594 C 7.285156 -4.574219 7.804688 -4.574219 8.3125 -4.574219 C 9.269531 -4.558594 10.230469 -4.558594 11.171875 -4.542969 C 11.40625 -4.542969 11.625 -4.558594 11.84375 -4.558594 C 12.28125 -4.558594 12.734375 -4.558594 13.171875 -4.574219 C 13.828125 -4.574219 14.484375 -4.558594 15.140625 -4.59375 C 15.527344 -4.609375 15.914062 -4.59375 16.300781 -4.609375 C 16.453125 -4.609375 16.621094 -4.625 16.789062 -4.644531 C 16.804688 -4.644531 16.824219 -4.644531 16.839844 -4.644531 C 16.925781 -4.660156 17.007812 -4.660156 17.109375 -4.644531 C 17.144531 -4.625 17.195312 -4.625 17.242188 -4.625 C 17.378906 -4.660156 17.511719 -4.675781 17.664062 -4.695312 C 17.78125 -4.695312 17.898438 -4.710938 18 -4.695312 C 18.203125 -4.660156 18.40625 -4.660156 18.589844 -4.660156 C 18.65625 -4.660156 18.722656 -4.660156 18.773438 -4.660156 C 18.941406 -4.675781 19.09375 -4.695312 19.261719 -4.695312 C 19.296875 -4.710938 19.3125 -4.710938 19.328125 -4.710938 C 19.347656 -4.761719 19.363281 -4.792969 19.363281 -4.828125 C 19.363281 -5.03125 19.378906 -5.214844 19.398438 -5.417969 C 19.398438 -5.585938 19.398438 -5.738281 19.414062 -5.90625 C 19.414062 -5.921875 19.414062 -5.9375 19.414062 -5.972656 C 19.429688 -6.105469 19.464844 -6.257812 19.464844 -6.410156 C 19.480469 -6.628906 19.480469 -6.832031 19.464844 -7.050781 C 19.464844 -7.132812 19.464844 -7.21875 19.414062 -7.300781 C 19.347656 -7.300781 19.28125 -7.300781 19.210938 -7.300781 C 19.128906 -7.300781 19.042969 -7.300781 18.960938 -7.300781 C 18.773438 -7.316406 18.589844 -7.335938 18.40625 -7.335938 C 18.203125 -7.335938 18.019531 -7.335938 17.816406 -7.335938 C 17.632812 -7.300781 17.445312 -7.316406 17.277344 -7.316406 C 16.621094 -7.316406 15.964844 -7.335938 15.324219 -7.300781 C 15.007812 -7.285156 14.6875 -7.300781 14.367188 -7.285156 C 14.082031 -7.269531 13.8125 -7.269531 13.527344 -7.269531 C 12.316406 -7.269531 11.121094 -7.269531 9.910156 -7.269531 C 9.203125 -7.285156 8.480469 -7.269531 7.773438 -7.285156 C 7.050781 -7.316406 6.324219 -7.300781 5.617188 -7.300781 C 5.570312 -7.300781 5.535156 -7.300781 5.484375 -7.300781 C 5.484375 -7.839844 5.484375 -8.359375 5.46875 -8.898438 Z M 5.46875 -8.898438 "/></g></g></g><g fill="#050a30" fill-opacity="1"><g transform="translate(169.449345, 23.484621)"><g><path d="M 17.175781 -3.785156 C 17.109375 -3.617188 17.007812 -3.464844 16.855469 -3.347656 C 16.773438 -3.265625 16.65625 -3.230469 16.554688 -3.179688 C 16.300781 -3.0625 16.03125 -2.945312 15.78125 -2.859375 C 15.628906 -2.808594 15.496094 -2.757812 15.359375 -2.726562 C 15.089844 -2.675781 14.820312 -2.625 14.570312 -2.574219 C 14.46875 -2.558594 14.351562 -2.539062 14.265625 -2.523438 C 14.132812 -2.507812 13.996094 -2.507812 13.863281 -2.507812 C 13.84375 -2.507812 13.828125 -2.488281 13.8125 -2.488281 C 13.710938 -2.472656 13.59375 -2.457031 13.492188 -2.4375 C 13.359375 -2.421875 13.238281 -2.4375 13.121094 -2.421875 C 12.988281 -2.390625 12.851562 -2.390625 12.71875 -2.390625 C 12.28125 -2.390625 11.828125 -2.390625 11.390625 -2.371094 C 10.800781 -2.371094 10.230469 -2.355469 9.640625 -2.390625 C 9.523438 -2.40625 9.386719 -2.390625 9.269531 -2.390625 C 9.203125 -2.390625 9.136719 -2.390625 9.085938 -2.390625 C 8.933594 -2.40625 8.796875 -2.421875 8.648438 -2.4375 C 8.628906 -2.4375 8.613281 -2.4375 8.597656 -2.4375 C 8.496094 -2.457031 8.394531 -2.472656 8.3125 -2.488281 C 8.210938 -2.488281 8.109375 -2.507812 8.007812 -2.523438 C 7.875 -2.539062 7.722656 -2.574219 7.585938 -2.589844 C 7.519531 -2.589844 7.453125 -2.609375 7.386719 -2.609375 C 7.25 -2.625 7.117188 -2.625 6.980469 -2.640625 C 6.78125 -2.640625 6.59375 -2.691406 6.410156 -2.707031 C 6.273438 -2.742188 6.15625 -2.792969 6.023438 -2.808594 C 5.738281 -2.859375 5.449219 -2.910156 5.164062 -2.976562 C 4.929688 -3.011719 4.695312 -3.0625 4.457031 -3.113281 C 4.257812 -3.164062 4.039062 -3.214844 3.835938 -3.265625 C 3.667969 -3.3125 3.484375 -3.363281 3.3125 -3.414062 C 3.195312 -3.433594 3.09375 -3.464844 2.976562 -3.515625 C 2.960938 -3.5 2.960938 -3.484375 2.945312 -3.464844 C 2.808594 -3.246094 2.65625 -3.027344 2.523438 -2.792969 C 2.457031 -2.65625 2.355469 -2.523438 2.269531 -2.390625 C 2.21875 -2.304688 2.152344 -2.238281 2.101562 -2.152344 C 1.867188 -1.816406 1.648438 -1.480469 1.445312 -1.128906 C 1.429688 -1.078125 1.394531 -1.042969 1.394531 -0.976562 C 1.445312 -0.925781 1.515625 -0.890625 1.582031 -0.859375 C 1.75 -0.789062 1.902344 -0.722656 2.070312 -0.65625 C 2.1875 -0.605469 2.320312 -0.570312 2.4375 -0.539062 C 2.558594 -0.503906 2.675781 -0.488281 2.792969 -0.453125 C 2.894531 -0.402344 2.996094 -0.371094 3.09375 -0.335938 C 3.265625 -0.285156 3.433594 -0.269531 3.601562 -0.234375 C 3.71875 -0.21875 3.851562 -0.203125 3.96875 -0.183594 C 4.070312 -0.167969 4.171875 -0.152344 4.273438 -0.132812 C 4.355469 -0.117188 4.457031 -0.101562 4.527344 -0.101562 C 4.644531 -0.0664062 4.761719 -0.0507812 4.863281 -0.0351562 C 4.980469 -0.015625 5.097656 0 5.214844 0.015625 C 5.417969 0.0664062 5.601562 0.101562 5.789062 0.117188 C 5.871094 0.132812 5.972656 0.132812 6.054688 0.152344 C 6.15625 0.167969 6.257812 0.183594 6.375 0.203125 C 6.511719 0.21875 6.644531 0.234375 6.78125 0.253906 C 6.832031 0.253906 6.878906 0.269531 6.914062 0.269531 C 7 0.285156 7.082031 0.285156 7.167969 0.304688 C 7.316406 0.320312 7.488281 0.351562 7.636719 0.371094 C 7.722656 0.371094 7.804688 0.386719 7.875 0.402344 C 8.023438 0.4375 8.175781 0.453125 8.328125 0.453125 C 8.480469 0.453125 8.628906 0.472656 8.765625 0.472656 C 8.78125 0.472656 8.796875 0.472656 8.796875 0.472656 C 8.917969 0.488281 9.035156 0.503906 9.152344 0.523438 C 9.421875 0.523438 9.671875 0.503906 9.925781 0.539062 C 10.179688 0.554688 10.429688 0.554688 10.683594 0.570312 C 10.867188 0.589844 11.070312 0.605469 11.253906 0.605469 C 11.910156 0.605469 12.566406 0.605469 13.222656 0.605469 C 13.339844 0.605469 13.457031 0.589844 13.558594 0.570312 C 13.710938 0.570312 13.84375 0.554688 13.980469 0.539062 C 14.082031 0.523438 14.199219 0.503906 14.300781 0.503906 C 14.417969 0.488281 14.550781 0.472656 14.671875 0.453125 C 14.789062 0.4375 14.90625 0.4375 15.023438 0.421875 C 15.039062 0.421875 15.058594 0.421875 15.074219 0.421875 C 15.191406 0.402344 15.308594 0.386719 15.425781 0.351562 C 15.59375 0.320312 15.761719 0.304688 15.914062 0.253906 C 16.152344 0.167969 16.402344 0.101562 16.65625 0.0351562 C 16.839844 -0.015625 17.007812 -0.0664062 17.195312 -0.152344 C 17.3125 -0.203125 17.460938 -0.253906 17.582031 -0.304688 C 17.632812 -0.320312 17.664062 -0.335938 17.699219 -0.335938 C 17.78125 -0.320312 17.832031 -0.351562 17.898438 -0.386719 C 17.949219 -0.421875 18 -0.4375 18.035156 -0.453125 C 18.085938 -0.488281 18.136719 -0.503906 18.1875 -0.503906 C 18.304688 -0.523438 18.40625 -0.589844 18.503906 -0.671875 C 18.605469 -0.738281 18.707031 -0.789062 18.824219 -0.839844 C 19.09375 -0.910156 19.363281 -1.027344 19.582031 -1.210938 C 19.683594 -1.277344 19.785156 -1.363281 19.886719 -1.429688 C 20.171875 -1.613281 20.421875 -1.816406 20.640625 -2.035156 C 20.726562 -2.121094 20.792969 -2.203125 20.878906 -2.269531 C 20.960938 -2.355469 21.027344 -2.457031 21.078125 -2.558594 C 21.148438 -2.640625 21.179688 -2.742188 21.214844 -2.84375 C 21.265625 -3.046875 21.316406 -3.246094 21.347656 -3.449219 C 21.367188 -3.601562 21.347656 -3.75 21.347656 -3.902344 C 21.332031 -4.039062 21.28125 -4.171875 21.28125 -4.308594 C 21.28125 -4.375 21.265625 -4.457031 21.265625 -4.507812 C 21.230469 -4.675781 21.164062 -4.828125 21.148438 -4.980469 C 21.113281 -5.148438 21.046875 -5.300781 20.996094 -5.449219 C 20.945312 -5.550781 20.878906 -5.652344 20.792969 -5.71875 C 20.660156 -5.855469 20.523438 -5.988281 20.390625 -6.140625 C 20.355469 -6.15625 20.324219 -6.191406 20.289062 -6.207031 C 20.15625 -6.308594 20.003906 -6.375 19.851562 -6.460938 C 19.566406 -6.59375 19.246094 -6.679688 18.941406 -6.746094 C 18.792969 -6.78125 18.640625 -6.796875 18.488281 -6.8125 C 18.304688 -6.847656 18.136719 -6.878906 17.949219 -6.898438 C 17.800781 -6.929688 17.664062 -6.929688 17.511719 -6.949219 C 17.328125 -6.980469 17.144531 -7.015625 16.957031 -7.015625 C 16.855469 -7.03125 16.757812 -7.03125 16.671875 -7.050781 C 16.453125 -7.066406 16.234375 -7.117188 16.015625 -7.132812 C 15.949219 -7.132812 15.863281 -7.148438 15.796875 -7.148438 C 15.664062 -7.167969 15.542969 -7.183594 15.410156 -7.199219 C 15.242188 -7.199219 15.074219 -7.199219 14.890625 -7.21875 C 14.652344 -7.234375 14.402344 -7.234375 14.164062 -7.234375 C 13.324219 -7.269531 12.5 -7.21875 11.660156 -7.25 C 11.40625 -7.269531 11.152344 -7.285156 10.917969 -7.300781 C 10.699219 -7.335938 10.480469 -7.335938 10.261719 -7.351562 C 10.027344 -7.351562 9.773438 -7.351562 9.539062 -7.386719 C 9.386719 -7.417969 9.234375 -7.417969 9.085938 -7.417969 C 8.796875 -7.417969 8.53125 -7.417969 8.242188 -7.417969 C 8.191406 -7.417969 8.140625 -7.417969 8.09375 -7.417969 C 7.90625 -7.4375 7.738281 -7.453125 7.554688 -7.453125 C 7.269531 -7.46875 7 -7.453125 6.710938 -7.46875 C 6.628906 -7.46875 6.527344 -7.488281 6.425781 -7.503906 C 6.324219 -7.519531 6.226562 -7.535156 6.105469 -7.554688 C 5.90625 -7.570312 5.71875 -7.671875 5.550781 -7.789062 C 5.550781 -7.875 5.550781 -7.941406 5.550781 -8.007812 C 5.550781 -8.074219 5.585938 -8.140625 5.652344 -8.191406 C 5.753906 -8.277344 5.855469 -8.34375 5.988281 -8.378906 C 6.125 -8.429688 6.257812 -8.460938 6.394531 -8.496094 C 6.660156 -8.546875 6.914062 -8.628906 7.167969 -8.679688 C 7.488281 -8.714844 7.789062 -8.796875 8.09375 -8.832031 C 8.175781 -8.847656 8.261719 -8.867188 8.34375 -8.882812 C 8.578125 -8.933594 8.816406 -8.949219 9.035156 -9 C 9.335938 -9.066406 9.640625 -9.101562 9.925781 -9.152344 C 10.011719 -9.167969 10.078125 -9.167969 10.144531 -9.1875 C 10.195312 -9.1875 10.261719 -9.1875 10.3125 -9.1875 C 10.398438 -9.203125 10.480469 -9.21875 10.582031 -9.21875 C 10.75 -9.234375 10.902344 -9.234375 11.070312 -9.253906 C 11.070312 -9.253906 11.085938 -9.253906 11.085938 -9.253906 C 11.238281 -9.269531 11.390625 -9.285156 11.558594 -9.285156 C 11.84375 -9.285156 12.144531 -9.269531 12.433594 -9.269531 C 12.535156 -9.269531 12.632812 -9.253906 12.71875 -9.234375 C 12.902344 -9.203125 13.070312 -9.167969 13.257812 -9.1875 C 13.507812 -9.1875 13.746094 -9.1875 13.996094 -9.1875 C 14.148438 -9.167969 14.300781 -9.152344 14.46875 -9.152344 C 14.46875 -9.152344 14.46875 -9.152344 14.484375 -9.152344 C 14.621094 -9.136719 14.753906 -9.101562 14.890625 -9.101562 C 14.921875 -9.117188 14.9375 -9.101562 14.972656 -9.101562 C 15.105469 -9.066406 15.242188 -9.050781 15.359375 -9.015625 C 15.527344 -9 15.679688 -9 15.832031 -8.984375 C 15.914062 -8.96875 16 -8.96875 16.101562 -8.949219 C 16.300781 -8.898438 16.519531 -8.847656 16.722656 -8.796875 C 16.890625 -8.765625 17.042969 -8.714844 17.210938 -8.679688 C 17.292969 -8.664062 17.394531 -8.664062 17.480469 -8.648438 C 17.5625 -8.628906 17.664062 -8.628906 17.75 -8.613281 C 17.984375 -8.546875 18.21875 -8.496094 18.457031 -8.410156 C 18.589844 -8.359375 18.742188 -8.3125 18.875 -8.242188 C 18.976562 -8.191406 19.09375 -8.175781 19.195312 -8.109375 C 19.210938 -8.09375 19.246094 -8.074219 19.28125 -8.058594 C 19.347656 -8.140625 19.414062 -8.226562 19.464844 -8.328125 C 19.480469 -8.378906 19.515625 -8.445312 19.546875 -8.496094 C 19.683594 -8.714844 19.816406 -8.933594 19.953125 -9.152344 C 20.070312 -9.355469 20.1875 -9.574219 20.324219 -9.773438 C 20.421875 -9.960938 20.542969 -10.144531 20.660156 -10.347656 C 20.726562 -10.449219 20.792969 -10.546875 20.84375 -10.667969 C 20.808594 -10.683594 20.792969 -10.699219 20.761719 -10.699219 C 20.675781 -10.734375 20.59375 -10.75 20.492188 -10.785156 C 20.339844 -10.835938 20.1875 -10.882812 20.019531 -10.933594 C 19.800781 -10.984375 19.582031 -11.035156 19.363281 -11.085938 C 19.3125 -11.101562 19.28125 -11.101562 19.230469 -11.101562 C 19.160156 -11.121094 19.078125 -11.136719 18.992188 -11.152344 C 18.792969 -11.203125 18.574219 -11.253906 18.371094 -11.304688 C 18.152344 -11.355469 17.949219 -11.390625 17.730469 -11.441406 C 17.597656 -11.472656 17.445312 -11.492188 17.3125 -11.507812 C 17.195312 -11.523438 17.09375 -11.539062 16.992188 -11.558594 C 16.875 -11.574219 16.773438 -11.589844 16.65625 -11.589844 C 16.554688 -11.609375 16.46875 -11.589844 16.351562 -11.609375 C 16.25 -11.609375 16.132812 -11.625 16.015625 -11.640625 C 15.863281 -11.660156 15.714844 -11.675781 15.578125 -11.691406 C 15.34375 -11.726562 15.105469 -11.808594 14.871094 -11.828125 C 14.671875 -11.84375 14.484375 -11.894531 14.300781 -11.894531 C 14.28125 -11.894531 14.265625 -11.894531 14.25 -11.894531 C 14.113281 -11.929688 13.996094 -11.945312 13.863281 -11.929688 C 13.8125 -11.929688 13.761719 -11.945312 13.710938 -11.945312 C 13.558594 -11.960938 13.425781 -12.011719 13.273438 -12.011719 C 13.171875 -11.996094 13.070312 -12.011719 12.988281 -12.027344 C 12.835938 -12.027344 12.683594 -12.046875 12.550781 -12.0625 C 12.515625 -12.0625 12.5 -12.0625 12.484375 -12.0625 C 12.296875 -12.078125 12.113281 -12.113281 11.945312 -12.113281 C 11.238281 -12.113281 10.53125 -12.144531 9.839844 -12.097656 C 9.691406 -12.078125 9.539062 -12.046875 9.386719 -12.027344 C 9.253906 -12.011719 9.136719 -11.976562 9 -11.976562 C 8.796875 -11.976562 8.597656 -11.945312 8.394531 -11.929688 C 8.226562 -11.910156 8.058594 -11.894531 7.890625 -11.859375 C 7.773438 -11.859375 7.671875 -11.84375 7.570312 -11.828125 C 7.488281 -11.808594 7.402344 -11.792969 7.316406 -11.777344 C 7.269531 -11.757812 7.199219 -11.757812 7.148438 -11.742188 C 6.914062 -11.710938 6.695312 -11.640625 6.476562 -11.589844 C 6.375 -11.558594 6.273438 -11.539062 6.175781 -11.539062 C 6.039062 -11.507812 5.90625 -11.507812 5.753906 -11.472656 C 5.585938 -11.457031 5.417969 -11.40625 5.230469 -11.371094 C 5.113281 -11.355469 5.011719 -11.339844 4.914062 -11.304688 C 4.558594 -11.222656 4.257812 -11.101562 3.9375 -10.933594 C 3.902344 -10.917969 3.871094 -10.902344 3.835938 -10.882812 C 3.699219 -10.835938 3.550781 -10.785156 3.433594 -10.714844 C 3.265625 -10.617188 3.09375 -10.496094 2.925781 -10.378906 C 2.808594 -10.3125 2.65625 -10.230469 2.539062 -10.144531 C 2.371094 -10.027344 2.21875 -9.910156 2.070312 -9.792969 C 1.984375 -9.707031 1.902344 -9.621094 1.816406 -9.539062 C 1.765625 -9.472656 1.714844 -9.421875 1.664062 -9.355469 C 1.597656 -9.253906 1.496094 -9.136719 1.429688 -9.015625 C 1.296875 -8.765625 1.226562 -8.496094 1.195312 -8.226562 C 1.175781 -7.992188 1.175781 -7.738281 1.246094 -7.503906 C 1.261719 -7.453125 1.277344 -7.386719 1.296875 -7.316406 C 1.347656 -7.050781 1.480469 -6.8125 1.648438 -6.59375 C 1.714844 -6.492188 1.785156 -6.410156 1.867188 -6.308594 C 2.003906 -6.175781 2.136719 -6.023438 2.304688 -5.921875 C 2.390625 -5.871094 2.472656 -5.804688 2.558594 -5.753906 C 2.675781 -5.667969 2.792969 -5.601562 2.925781 -5.535156 C 3.128906 -5.433594 3.332031 -5.332031 3.550781 -5.25 C 3.699219 -5.199219 3.851562 -5.164062 4.003906 -5.132812 C 4.070312 -5.113281 4.15625 -5.113281 4.238281 -5.082031 C 4.355469 -5.03125 4.507812 -5.011719 4.644531 -4.980469 C 4.675781 -4.964844 4.710938 -4.964844 4.746094 -4.945312 C 4.828125 -4.945312 4.929688 -4.945312 5.03125 -4.929688 C 5.0625 -4.929688 5.097656 -4.914062 5.132812 -4.914062 C 5.28125 -4.914062 5.417969 -4.894531 5.550781 -4.863281 C 5.71875 -4.828125 5.886719 -4.8125 6.039062 -4.777344 C 6.226562 -4.761719 6.375 -4.726562 6.5625 -4.726562 C 6.78125 -4.726562 7.015625 -4.726562 7.25 -4.726562 C 7.285156 -4.726562 7.300781 -4.726562 7.335938 -4.726562 C 7.503906 -4.710938 7.671875 -4.695312 7.824219 -4.695312 C 7.992188 -4.695312 8.160156 -4.695312 8.34375 -4.710938 C 8.511719 -4.710938 8.679688 -4.695312 8.847656 -4.695312 C 9.285156 -4.675781 9.722656 -4.695312 10.179688 -4.660156 C 10.378906 -4.660156 10.597656 -4.660156 10.816406 -4.644531 C 10.984375 -4.625 11.136719 -4.644531 11.304688 -4.625 C 11.457031 -4.609375 11.609375 -4.609375 11.757812 -4.59375 C 11.960938 -4.59375 12.144531 -4.59375 12.347656 -4.59375 C 12.363281 -4.59375 12.398438 -4.59375 12.414062 -4.59375 C 12.582031 -4.574219 12.734375 -4.558594 12.902344 -4.558594 C 13.105469 -4.542969 13.308594 -4.558594 13.507812 -4.558594 C 13.726562 -4.542969 13.929688 -4.542969 14.132812 -4.527344 C 14.164062 -4.527344 14.214844 -4.542969 14.25 -4.527344 C 14.417969 -4.476562 14.601562 -4.476562 14.789062 -4.441406 C 14.972656 -4.425781 15.175781 -4.425781 15.359375 -4.425781 C 15.476562 -4.425781 15.59375 -4.425781 15.714844 -4.425781 C 15.863281 -4.40625 16.015625 -4.390625 16.167969 -4.375 C 16.183594 -4.375 16.199219 -4.375 16.21875 -4.355469 C 16.453125 -4.308594 16.671875 -4.222656 16.890625 -4.105469 C 16.957031 -4.070312 17.023438 -4.019531 17.09375 -3.988281 C 17.109375 -3.96875 17.125 -3.9375 17.144531 -3.902344 C 17.160156 -3.871094 17.160156 -3.835938 17.175781 -3.785156 Z M 17.175781 -3.785156 "/></g></g></g><g fill="#050a30" fill-opacity="1"><g transform="translate(191.992572, 23.484621)"><g><path d="M 20.003906 -11.675781 C 19.902344 -11.691406 19.785156 -11.691406 19.667969 -11.710938 C 19.617188 -11.710938 19.566406 -11.710938 19.515625 -11.710938 C 19.449219 -11.710938 19.398438 -11.726562 19.328125 -11.726562 C 19.210938 -11.726562 19.09375 -11.710938 18.960938 -11.710938 C 18.691406 -11.710938 18.40625 -11.710938 18.136719 -11.691406 C 17.867188 -11.675781 17.597656 -11.675781 17.328125 -11.675781 C 16.875 -11.660156 16.4375 -11.660156 15.980469 -11.660156 C 15.949219 -11.660156 15.898438 -11.675781 15.863281 -11.675781 C 15.730469 -11.691406 15.59375 -11.691406 15.445312 -11.710938 C 15.445312 -11.710938 15.425781 -11.691406 15.394531 -11.691406 C 15.34375 -11.691406 15.292969 -11.691406 15.242188 -11.691406 C 15.175781 -11.691406 15.105469 -11.710938 15.039062 -11.710938 C 14.921875 -11.710938 14.789062 -11.691406 14.652344 -11.691406 C 14.199219 -11.691406 13.726562 -11.691406 13.273438 -11.710938 C 12.632812 -11.710938 11.996094 -11.726562 11.355469 -11.691406 C 11.003906 -11.675781 10.667969 -11.691406 10.3125 -11.675781 C 10.109375 -11.660156 9.910156 -11.691406 9.707031 -11.691406 C 9.574219 -11.691406 9.421875 -11.675781 9.285156 -11.675781 C 9.21875 -11.675781 9.136719 -11.660156 9.066406 -11.675781 C 8.949219 -11.691406 8.832031 -11.691406 8.699219 -11.675781 C 8.664062 -11.675781 8.628906 -11.675781 8.597656 -11.675781 C 8.511719 -11.675781 8.445312 -11.691406 8.359375 -11.691406 C 7.941406 -11.691406 7.519531 -11.691406 7.082031 -11.691406 C 6.8125 -11.691406 6.542969 -11.675781 6.257812 -11.710938 C 6.15625 -11.710938 6.039062 -11.710938 5.9375 -11.710938 C 5.28125 -11.710938 4.644531 -11.726562 3.988281 -11.691406 C 3.617188 -11.675781 3.265625 -11.675781 2.894531 -11.675781 C 2.828125 -11.675781 2.757812 -11.691406 2.691406 -11.691406 C 2.574219 -11.691406 2.457031 -11.675781 2.339844 -11.675781 C 2.121094 -11.660156 1.902344 -11.660156 1.699219 -11.640625 C 1.566406 -11.640625 1.445312 -11.640625 1.3125 -11.640625 C 1.277344 -11.640625 1.246094 -11.640625 1.195312 -11.640625 C 1.195312 -11.507812 1.175781 -11.371094 1.195312 -11.253906 C 1.226562 -11.085938 1.210938 -10.902344 1.246094 -10.734375 C 1.246094 -10.210938 1.246094 -9.671875 1.246094 -9.152344 C 1.246094 -9.117188 1.226562 -9.085938 1.226562 -9.050781 C 1.226562 -8.984375 1.210938 -8.917969 1.226562 -8.847656 C 1.597656 -8.832031 1.96875 -8.847656 2.320312 -8.832031 C 2.472656 -8.816406 2.609375 -8.832031 2.742188 -8.847656 C 2.910156 -8.867188 3.078125 -8.882812 3.230469 -8.882812 C 3.632812 -8.882812 4.039062 -8.898438 4.441406 -8.867188 C 4.675781 -8.847656 4.914062 -8.847656 5.148438 -8.847656 C 5.804688 -8.832031 6.441406 -8.867188 7.082031 -8.832031 C 7.519531 -8.816406 7.957031 -8.816406 8.394531 -8.796875 C 8.429688 -8.796875 8.480469 -8.796875 8.511719 -8.796875 C 8.546875 -8.796875 8.5625 -8.796875 8.597656 -8.796875 C 8.597656 -8.75 8.597656 -8.714844 8.597656 -8.679688 C 8.597656 -8.628906 8.578125 -8.578125 8.578125 -8.546875 C 8.578125 -8.292969 8.578125 -8.042969 8.578125 -7.789062 C 8.578125 -7.753906 8.578125 -7.707031 8.578125 -7.671875 C 8.597656 -7.46875 8.613281 -7.25 8.613281 -7.050781 C 8.628906 -6.242188 8.628906 -5.449219 8.628906 -4.644531 C 8.613281 -3.484375 8.628906 -2.320312 8.597656 -1.175781 C 8.597656 -0.808594 8.597656 -0.453125 8.597656 -0.0859375 C 8.597656 -0.0351562 8.597656 0 8.597656 0.0507812 C 8.628906 0.0507812 8.648438 0.0664062 8.664062 0.0664062 C 8.75 0.0664062 8.847656 0.0664062 8.933594 0.0507812 C 9.101562 0.0351562 9.269531 0.0351562 9.4375 0.0351562 C 10.160156 0.0351562 10.867188 0.0351562 11.574219 0.0351562 C 11.910156 0.0351562 12.246094 0.0351562 12.582031 0.0351562 C 12.667969 0.0351562 12.734375 0.015625 12.820312 0.015625 C 12.820312 0 12.820312 -0.015625 12.820312 -0.015625 C 12.800781 -0.472656 12.835938 -0.925781 12.800781 -1.378906 C 12.785156 -1.734375 12.820312 -2.070312 12.785156 -2.390625 C 12.785156 -2.910156 12.769531 -3.414062 12.800781 -3.917969 C 12.820312 -4.273438 12.800781 -4.625 12.820312 -4.996094 C 12.835938 -5.351562 12.820312 -5.703125 12.820312 -6.054688 C 12.820312 -6.59375 12.835938 -7.117188 12.800781 -7.65625 C 12.785156 -7.839844 12.800781 -8.042969 12.800781 -8.242188 C 12.800781 -8.277344 12.800781 -8.3125 12.800781 -8.34375 C 12.753906 -8.496094 12.785156 -8.648438 12.769531 -8.816406 C 12.851562 -8.832031 12.921875 -8.832031 13.003906 -8.832031 C 13.257812 -8.832031 13.507812 -8.847656 13.777344 -8.832031 C 14.015625 -8.816406 14.234375 -8.832031 14.46875 -8.832031 C 14.804688 -8.867188 15.15625 -8.832031 15.496094 -8.867188 C 15.644531 -8.882812 15.796875 -8.882812 15.964844 -8.882812 C 16.21875 -8.898438 16.46875 -8.898438 16.722656 -8.898438 C 17.210938 -8.898438 17.699219 -8.898438 18.1875 -8.898438 C 18.757812 -8.882812 19.3125 -8.882812 19.867188 -8.882812 C 19.953125 -8.882812 20.035156 -8.882812 20.136719 -8.898438 C 20.15625 -8.949219 20.15625 -8.984375 20.171875 -9.050781 C 20.203125 -9.152344 20.222656 -9.285156 20.222656 -9.402344 C 20.238281 -9.707031 20.222656 -9.992188 20.238281 -10.296875 C 20.273438 -10.566406 20.273438 -10.835938 20.273438 -11.101562 C 20.273438 -11.273438 20.253906 -11.441406 20.238281 -11.609375 C 20.238281 -11.625 20.238281 -11.660156 20.238281 -11.691406 C 20.171875 -11.691406 20.105469 -11.675781 20.003906 -11.675781 Z M 20.003906 -11.675781 "/></g></g></g><g fill="#050a30" fill-opacity="1"><g transform="translate(213.442283, 23.484621)"><g><path d="M 5.382812 -11.777344 C 5.214844 -11.777344 5.082031 -11.777344 4.929688 -11.777344 C 4.777344 -11.757812 4.625 -11.777344 4.476562 -11.742188 C 4.308594 -11.726562 4.136719 -11.726562 3.953125 -11.726562 C 3.433594 -11.710938 2.910156 -11.726562 2.371094 -11.710938 C 2.152344 -11.691406 1.933594 -11.710938 1.714844 -11.710938 C 1.683594 -11.710938 1.664062 -11.691406 1.648438 -11.691406 C 1.597656 -11.691406 1.53125 -11.691406 1.480469 -11.675781 C 1.414062 -11.675781 1.347656 -11.675781 1.261719 -11.675781 C 1.261719 -11.625 1.246094 -11.589844 1.246094 -11.558594 C 1.246094 -11.441406 1.246094 -11.304688 1.246094 -11.1875 C 1.246094 -10.851562 1.246094 -10.515625 1.246094 -10.179688 C 1.246094 -9.941406 1.277344 -9.691406 1.277344 -9.453125 C 1.277344 -9.101562 1.261719 -8.730469 1.261719 -8.359375 C 1.246094 -7.804688 1.246094 -7.25 1.261719 -6.679688 C 1.277344 -6.5625 1.246094 -6.441406 1.246094 -6.324219 C 1.246094 -5.886719 1.261719 -5.449219 1.226562 -4.996094 C 1.210938 -4.894531 1.210938 -4.777344 1.210938 -4.660156 C 1.210938 -4.644531 1.210938 -4.625 1.210938 -4.609375 C 1.210938 -4.507812 1.226562 -4.40625 1.226562 -4.308594 C 1.226562 -3.800781 1.226562 -3.28125 1.226562 -2.757812 C 1.226562 -2.574219 1.226562 -2.390625 1.246094 -2.203125 C 1.261719 -2.050781 1.246094 -1.902344 1.226562 -1.75 C 1.210938 -1.597656 1.226562 -1.429688 1.226562 -1.277344 C 1.226562 -1.246094 1.226562 -1.210938 1.226562 -1.160156 C 1.210938 -1.027344 1.195312 -0.890625 1.195312 -0.738281 C 1.175781 -0.488281 1.175781 -0.253906 1.175781 0 C 1.175781 0.015625 1.175781 0.0507812 1.195312 0.0859375 C 1.226562 0.0859375 1.261719 0.0859375 1.296875 0.0859375 C 1.445312 0.0664062 1.613281 0.0664062 1.765625 0.0664062 C 2.101562 0.0507812 2.421875 0.0664062 2.757812 0.0664062 C 2.792969 0.0664062 2.808594 0.0664062 2.84375 0.0664062 C 3.09375 0.101562 3.347656 0.0664062 3.601562 0.0507812 C 3.785156 0.0351562 3.96875 0.0351562 4.15625 0.0507812 C 4.339844 0.0507812 4.542969 0.0664062 4.726562 0.0664062 C 4.914062 0.0859375 5.082031 0.0664062 5.25 0.0507812 C 5.28125 0.0507812 5.300781 0.0507812 5.332031 0.0507812 C 5.332031 -0.0859375 5.351562 -0.21875 5.351562 -0.371094 C 5.367188 -0.859375 5.367188 -1.347656 5.382812 -1.832031 C 5.398438 -2.609375 5.367188 -3.363281 5.398438 -4.136719 C 5.417969 -4.375 5.417969 -4.609375 5.417969 -4.863281 C 5.449219 -5.398438 5.417969 -5.9375 5.449219 -6.476562 C 5.46875 -6.78125 5.449219 -7.066406 5.433594 -7.367188 C 5.417969 -7.707031 5.433594 -8.042969 5.449219 -8.378906 C 5.449219 -8.765625 5.449219 -9.152344 5.449219 -9.539062 C 5.449219 -9.574219 5.449219 -9.605469 5.449219 -9.621094 C 5.433594 -9.824219 5.417969 -10.027344 5.398438 -10.210938 C 5.398438 -10.683594 5.398438 -11.136719 5.398438 -11.609375 C 5.398438 -11.660156 5.398438 -11.710938 5.382812 -11.777344 Z M 5.382812 -11.777344 "/></g></g></g><g fill="#050a30" fill-opacity="1"><g transform="translate(220.087492, 23.484621)"><g><path d="M 1.261719 -11.691406 C 1.261719 -11.660156 1.261719 -11.625 1.261719 -11.589844 C 1.261719 -11.457031 1.261719 -11.304688 1.277344 -11.171875 C 1.296875 -11.054688 1.296875 -10.917969 1.3125 -10.785156 C 1.3125 -10.765625 1.3125 -10.75 1.3125 -10.734375 C 1.296875 -10.566406 1.277344 -10.414062 1.261719 -10.246094 C 1.261719 -9.859375 1.261719 -9.453125 1.261719 -9.066406 C 1.261719 -8.597656 1.277344 -8.109375 1.246094 -7.621094 C 1.226562 -7.4375 1.226562 -7.25 1.226562 -7.050781 C 1.210938 -6.613281 1.195312 -6.175781 1.195312 -5.738281 C 1.195312 -5.367188 1.210938 -4.996094 1.210938 -4.625 C 1.226562 -3.734375 1.226562 -2.828125 1.226562 -1.933594 C 1.226562 -1.902344 1.226562 -1.867188 1.210938 -1.832031 C 1.195312 -1.683594 1.175781 -1.53125 1.175781 -1.363281 C 1.175781 -0.957031 1.175781 -0.539062 1.175781 -0.132812 C 1.175781 -0.0507812 1.195312 0.0507812 1.210938 0.152344 C 1.414062 0.152344 1.613281 0.132812 1.816406 0.132812 C 2.050781 0.132812 2.289062 0.132812 2.523438 0.117188 C 2.859375 0.101562 3.195312 0.101562 3.550781 0.0859375 C 4.070312 0.0859375 4.59375 0.0859375 5.113281 0.0859375 C 5.214844 0.0859375 5.316406 0.0664062 5.417969 0.0664062 C 5.417969 0.0351562 5.417969 0 5.417969 -0.015625 C 5.433594 -0.824219 5.417969 -1.613281 5.433594 -2.40625 C 5.46875 -3.214844 5.433594 -4.019531 5.433594 -4.828125 C 5.449219 -4.945312 5.449219 -5.082031 5.46875 -5.214844 C 5.484375 -5.382812 5.484375 -5.570312 5.484375 -5.738281 C 5.484375 -6.324219 5.484375 -6.929688 5.484375 -7.519531 C 5.484375 -7.554688 5.484375 -7.605469 5.46875 -7.636719 C 5.46875 -7.722656 5.46875 -7.804688 5.46875 -7.890625 C 5.519531 -7.855469 5.570312 -7.839844 5.617188 -7.824219 C 5.855469 -7.6875 6.074219 -7.535156 6.308594 -7.386719 C 6.511719 -7.234375 6.710938 -7.082031 6.914062 -6.929688 C 7.050781 -6.847656 7.183594 -6.761719 7.316406 -6.679688 C 7.46875 -6.59375 7.621094 -6.511719 7.773438 -6.425781 C 7.972656 -6.292969 8.175781 -6.175781 8.359375 -6.023438 C 8.410156 -5.988281 8.460938 -5.9375 8.511719 -5.90625 C 8.714844 -5.769531 8.917969 -5.652344 9.117188 -5.519531 C 9.234375 -5.449219 9.335938 -5.367188 9.4375 -5.300781 C 9.554688 -5.230469 9.671875 -5.148438 9.792969 -5.082031 C 9.925781 -4.980469 10.078125 -4.863281 10.230469 -4.761719 C 10.363281 -4.660156 10.515625 -4.574219 10.667969 -4.476562 C 10.953125 -4.273438 11.253906 -4.089844 11.523438 -3.871094 C 11.660156 -3.75 11.792969 -3.652344 11.929688 -3.53125 C 11.976562 -3.484375 12.046875 -3.433594 12.113281 -3.398438 C 12.195312 -3.332031 12.28125 -3.28125 12.363281 -3.214844 C 12.566406 -3.09375 12.769531 -2.960938 12.953125 -2.828125 C 13.171875 -2.707031 13.390625 -2.574219 13.609375 -2.457031 C 13.644531 -2.4375 13.675781 -2.421875 13.710938 -2.390625 C 13.8125 -2.339844 13.914062 -2.269531 13.996094 -2.203125 C 14.132812 -2.121094 14.265625 -2.035156 14.382812 -1.933594 C 14.570312 -1.816406 14.753906 -1.664062 14.957031 -1.546875 C 15.125 -1.464844 15.277344 -1.363281 15.425781 -1.246094 C 15.542969 -1.144531 15.679688 -1.058594 15.8125 -0.976562 C 15.980469 -0.875 16.152344 -0.789062 16.300781 -0.691406 C 16.554688 -0.523438 16.789062 -0.351562 17.023438 -0.183594 C 17.144531 -0.117188 17.242188 -0.0351562 17.34375 0.0507812 C 17.445312 0.0507812 17.546875 0.0507812 17.632812 0.0507812 C 17.816406 0.0507812 18 0.0664062 18.203125 0.0859375 C 18.421875 0.0859375 18.65625 0.0859375 18.875 0.0859375 C 18.910156 0.0859375 18.941406 0.0859375 18.976562 0.0859375 C 19.144531 0.0664062 19.3125 0.0507812 19.480469 0.0507812 C 19.71875 0.0351562 19.96875 0.0507812 20.203125 0.0507812 C 20.660156 0.0351562 21.113281 0.0351562 21.566406 0.0351562 C 21.601562 0.0351562 21.652344 0.0351562 21.683594 0.015625 C 21.683594 -0.101562 21.667969 -0.21875 21.683594 -0.320312 C 21.683594 -0.402344 21.703125 -0.488281 21.683594 -0.570312 C 21.683594 -0.859375 21.683594 -1.128906 21.683594 -1.414062 C 21.667969 -1.75 21.667969 -2.085938 21.667969 -2.421875 C 21.667969 -2.828125 21.683594 -3.230469 21.652344 -3.652344 C 21.636719 -3.871094 21.636719 -4.070312 21.636719 -4.308594 C 21.617188 -4.945312 21.636719 -5.585938 21.617188 -6.226562 C 21.585938 -6.949219 21.601562 -7.65625 21.601562 -8.359375 C 21.601562 -8.410156 21.617188 -8.460938 21.617188 -8.511719 C 21.636719 -8.613281 21.652344 -8.714844 21.652344 -8.816406 C 21.652344 -9.085938 21.652344 -9.371094 21.652344 -9.65625 C 21.652344 -9.691406 21.652344 -9.722656 21.652344 -9.757812 C 21.636719 -9.941406 21.617188 -10.128906 21.601562 -10.296875 C 21.601562 -10.667969 21.585938 -11.019531 21.585938 -11.371094 C 21.585938 -11.472656 21.585938 -11.574219 21.601562 -11.691406 C 21.566406 -11.691406 21.535156 -11.691406 21.515625 -11.691406 C 21.433594 -11.691406 21.332031 -11.675781 21.246094 -11.675781 C 21.078125 -11.675781 20.929688 -11.691406 20.761719 -11.691406 C 20.640625 -11.691406 20.523438 -11.675781 20.40625 -11.675781 C 20.003906 -11.675781 19.597656 -11.660156 19.210938 -11.691406 C 19.0625 -11.710938 18.910156 -11.675781 18.757812 -11.660156 C 18.65625 -11.660156 18.554688 -11.625 18.457031 -11.625 C 18.285156 -11.625 18.136719 -11.609375 17.96875 -11.640625 C 17.949219 -11.640625 17.949219 -11.640625 17.933594 -11.640625 C 17.800781 -11.625 17.664062 -11.625 17.53125 -11.589844 C 17.480469 -11.589844 17.445312 -11.574219 17.394531 -11.574219 C 17.378906 -11.40625 17.363281 -11.238281 17.363281 -11.085938 C 17.363281 -10.816406 17.363281 -10.546875 17.378906 -10.261719 C 17.394531 -10.042969 17.378906 -9.808594 17.394531 -9.574219 C 17.429688 -9.285156 17.429688 -9 17.429688 -8.714844 C 17.429688 -8.578125 17.429688 -8.445312 17.445312 -8.3125 C 17.445312 -8.261719 17.445312 -8.226562 17.445312 -8.175781 C 17.429688 -8.09375 17.414062 -8.023438 17.414062 -7.941406 C 17.394531 -7.773438 17.394531 -7.585938 17.394531 -7.417969 C 17.394531 -7 17.378906 -6.59375 17.394531 -6.175781 C 17.429688 -5.6875 17.394531 -5.179688 17.429688 -4.695312 C 17.429688 -4.390625 17.429688 -4.070312 17.429688 -3.769531 C 17.394531 -3.785156 17.378906 -3.820312 17.34375 -3.835938 C 17.226562 -3.917969 17.125 -3.988281 17.007812 -4.070312 C 16.671875 -4.324219 16.335938 -4.574219 15.980469 -4.8125 C 15.761719 -4.964844 15.542969 -5.097656 15.324219 -5.230469 C 15.191406 -5.316406 15.039062 -5.398438 14.90625 -5.5 C 14.789062 -5.570312 14.671875 -5.652344 14.535156 -5.738281 C 14.367188 -5.855469 14.199219 -5.957031 14.03125 -6.054688 C 13.8125 -6.191406 13.59375 -6.34375 13.375 -6.492188 C 13.257812 -6.5625 13.121094 -6.613281 13.003906 -6.695312 C 12.71875 -6.863281 12.449219 -7.03125 12.195312 -7.234375 C 12.164062 -7.25 12.113281 -7.285156 12.078125 -7.300781 C 11.84375 -7.46875 11.589844 -7.636719 11.339844 -7.789062 C 11.304688 -7.824219 11.273438 -7.839844 11.238281 -7.855469 C 11.101562 -7.957031 10.96875 -8.058594 10.816406 -8.140625 C 10.496094 -8.359375 10.160156 -8.5625 9.824219 -8.765625 C 9.589844 -8.933594 9.355469 -9.085938 9.101562 -9.253906 C 8.867188 -9.421875 8.628906 -9.574219 8.394531 -9.742188 C 8.328125 -9.792969 8.261719 -9.839844 8.191406 -9.890625 C 7.992188 -10.011719 7.804688 -10.128906 7.605469 -10.261719 C 7.554688 -10.296875 7.503906 -10.328125 7.453125 -10.363281 C 7.351562 -10.449219 7.25 -10.515625 7.148438 -10.582031 C 6.980469 -10.699219 6.832031 -10.800781 6.660156 -10.902344 C 6.5625 -10.96875 6.441406 -11.035156 6.359375 -11.101562 C 6.207031 -11.203125 6.039062 -11.304688 5.90625 -11.40625 C 5.769531 -11.492188 5.636719 -11.609375 5.484375 -11.675781 C 5.398438 -11.675781 5.332031 -11.691406 5.25 -11.691406 C 5.011719 -11.691406 4.777344 -11.691406 4.542969 -11.691406 C 4.324219 -11.691406 4.105469 -11.675781 3.871094 -11.675781 C 3.820312 -11.675781 3.769531 -11.691406 3.71875 -11.691406 C 3.617188 -11.710938 3.515625 -11.726562 3.433594 -11.710938 C 3.195312 -11.710938 2.960938 -11.691406 2.726562 -11.691406 C 2.40625 -11.691406 2.070312 -11.691406 1.75 -11.691406 C 1.597656 -11.691406 1.429688 -11.691406 1.261719 -11.691406 Z M 1.261719 -11.691406 "/></g></g></g><g fill="#050a30" fill-opacity="1"><g transform="translate(242.967178, 23.484621)"><g><path d="M 22.070312 -9.589844 C 21.9375 -9.707031 21.820312 -9.792969 21.683594 -9.875 C 21.636719 -9.910156 21.566406 -9.960938 21.515625 -10.011719 C 21.199219 -10.230469 20.878906 -10.449219 20.542969 -10.597656 C 20.40625 -10.667969 20.273438 -10.734375 20.136719 -10.800781 C 19.851562 -10.933594 19.546875 -11.085938 19.246094 -11.203125 C 19.011719 -11.304688 18.742188 -11.371094 18.488281 -11.441406 C 18.203125 -11.507812 17.917969 -11.574219 17.632812 -11.625 C 17.328125 -11.691406 17.007812 -11.757812 16.6875 -11.808594 C 16.519531 -11.84375 16.351562 -11.878906 16.167969 -11.894531 C 16.101562 -11.910156 16.015625 -11.929688 15.949219 -11.945312 C 15.8125 -11.960938 15.664062 -11.976562 15.527344 -11.996094 C 15.375 -12.011719 15.242188 -12.027344 15.089844 -12.0625 C 14.871094 -12.078125 14.652344 -12.097656 14.433594 -12.113281 C 14.25 -12.144531 14.046875 -12.144531 13.863281 -12.164062 C 13.625 -12.179688 13.390625 -12.179688 13.15625 -12.179688 C 12.71875 -12.179688 12.28125 -12.195312 11.84375 -12.164062 C 11.691406 -12.164062 11.539062 -12.144531 11.390625 -12.144531 C 11.371094 -12.144531 11.355469 -12.144531 11.355469 -12.144531 C 11.1875 -12.113281 11.019531 -12.097656 10.851562 -12.078125 C 10.648438 -12.078125 10.464844 -12.0625 10.277344 -12.027344 C 10.160156 -12.011719 10.042969 -12.011719 9.925781 -11.976562 C 9.671875 -11.910156 9.402344 -11.894531 9.136719 -11.859375 C 8.949219 -11.828125 8.75 -11.792969 8.546875 -11.757812 C 8.3125 -11.710938 8.042969 -11.660156 7.789062 -11.609375 C 7.570312 -11.574219 7.351562 -11.523438 7.117188 -11.472656 C 6.914062 -11.421875 6.695312 -11.390625 6.492188 -11.304688 C 6.125 -11.1875 5.769531 -11.070312 5.417969 -10.933594 C 5.164062 -10.816406 4.914062 -10.734375 4.660156 -10.632812 C 4.476562 -10.566406 4.308594 -10.480469 4.15625 -10.378906 C 4.121094 -10.347656 4.070312 -10.328125 4.039062 -10.3125 C 3.835938 -10.195312 3.632812 -10.09375 3.433594 -9.941406 C 3.214844 -9.773438 2.996094 -9.605469 2.792969 -9.402344 C 2.675781 -9.269531 2.539062 -9.136719 2.421875 -9 C 2.269531 -8.78125 2.085938 -8.578125 1.917969 -8.359375 C 1.800781 -8.210938 1.683594 -8.058594 1.613281 -7.875 C 1.515625 -7.621094 1.429688 -7.351562 1.394531 -7.097656 C 1.363281 -6.949219 1.328125 -6.796875 1.3125 -6.628906 C 1.277344 -6.476562 1.261719 -6.324219 1.226562 -6.175781 C 1.226562 -6.039062 1.210938 -5.90625 1.195312 -5.789062 C 1.195312 -5.71875 1.195312 -5.652344 1.195312 -5.585938 C 1.195312 -5.46875 1.175781 -5.332031 1.195312 -5.214844 C 1.246094 -4.980469 1.277344 -4.746094 1.347656 -4.507812 C 1.394531 -4.375 1.429688 -4.222656 1.515625 -4.089844 C 1.648438 -3.851562 1.816406 -3.652344 1.96875 -3.433594 C 2.085938 -3.246094 2.238281 -3.09375 2.390625 -2.910156 C 2.472656 -2.808594 2.589844 -2.691406 2.707031 -2.589844 C 2.742188 -2.574219 2.777344 -2.558594 2.792969 -2.523438 C 2.996094 -2.339844 3.214844 -2.171875 3.433594 -2.019531 C 3.53125 -1.933594 3.632812 -1.851562 3.734375 -1.785156 C 3.871094 -1.714844 4.003906 -1.613281 4.136719 -1.53125 C 4.324219 -1.429688 4.507812 -1.328125 4.695312 -1.210938 C 4.792969 -1.160156 4.894531 -1.09375 4.996094 -1.042969 C 5.179688 -0.957031 5.351562 -0.890625 5.535156 -0.824219 C 5.667969 -0.773438 5.789062 -0.722656 5.921875 -0.691406 C 6.105469 -0.605469 6.308594 -0.539062 6.511719 -0.472656 C 6.628906 -0.4375 6.761719 -0.402344 6.878906 -0.371094 C 7.097656 -0.304688 7.300781 -0.234375 7.519531 -0.183594 C 7.722656 -0.132812 7.90625 -0.101562 8.109375 -0.0507812 C 8.261719 -0.015625 8.429688 0.015625 8.578125 0.0351562 C 8.699219 0.0664062 8.816406 0.0859375 8.933594 0.101562 C 9.015625 0.117188 9.101562 0.132812 9.167969 0.152344 C 9.335938 0.167969 9.488281 0.203125 9.65625 0.21875 C 9.839844 0.253906 10.027344 0.304688 10.210938 0.304688 C 10.230469 0.304688 10.246094 0.304688 10.261719 0.304688 C 10.414062 0.320312 10.566406 0.335938 10.714844 0.351562 C 10.851562 0.351562 10.984375 0.371094 11.121094 0.371094 C 11.304688 0.371094 11.492188 0.386719 11.691406 0.386719 C 12.011719 0.386719 12.332031 0.402344 12.652344 0.386719 C 12.835938 0.386719 13.019531 0.402344 13.207031 0.371094 C 13.339844 0.351562 13.476562 0.351562 13.609375 0.335938 C 13.84375 0.320312 14.082031 0.304688 14.332031 0.285156 C 14.550781 0.269531 14.789062 0.269531 15.007812 0.253906 C 15.15625 0.253906 15.292969 0.253906 15.425781 0.234375 C 15.425781 0.234375 15.445312 0.234375 15.445312 0.234375 C 15.59375 0.21875 15.746094 0.183594 15.914062 0.167969 C 16.03125 0.152344 16.167969 0.132812 16.300781 0.101562 C 16.386719 0.101562 16.453125 0.0664062 16.554688 0.0664062 C 16.671875 0.0351562 16.773438 0.015625 16.890625 0 C 17.023438 -0.015625 17.144531 -0.0507812 17.277344 -0.0664062 C 17.445312 -0.117188 17.613281 -0.132812 17.78125 -0.183594 C 17.96875 -0.21875 18.136719 -0.285156 18.320312 -0.335938 C 18.472656 -0.371094 18.625 -0.402344 18.773438 -0.472656 C 18.910156 -0.523438 19.0625 -0.570312 19.210938 -0.605469 C 19.566406 -0.691406 19.886719 -0.789062 20.222656 -0.925781 C 20.40625 -0.992188 20.609375 -1.078125 20.792969 -1.175781 C 21.011719 -1.296875 21.246094 -1.414062 21.449219 -1.546875 C 21.683594 -1.683594 21.902344 -1.816406 22.121094 -1.96875 C 22.242188 -2.035156 22.339844 -2.136719 22.441406 -2.21875 C 22.609375 -2.355469 22.796875 -2.507812 22.945312 -2.675781 C 23.046875 -2.792969 23.148438 -2.910156 23.25 -3.046875 C 23.335938 -3.144531 23.433594 -3.265625 23.503906 -3.382812 C 23.570312 -3.484375 23.636719 -3.582031 23.703125 -3.699219 C 23.769531 -3.835938 23.839844 -3.96875 23.90625 -4.105469 C 24.039062 -4.457031 24.175781 -4.8125 24.242188 -5.179688 C 24.277344 -5.382812 24.308594 -5.601562 24.308594 -5.820312 C 24.308594 -6.054688 24.328125 -6.292969 24.308594 -6.527344 C 24.308594 -6.628906 24.277344 -6.746094 24.277344 -6.863281 C 24.207031 -6.878906 24.160156 -6.898438 24.089844 -6.898438 C 23.972656 -6.898438 23.855469 -6.898438 23.722656 -6.914062 C 23.535156 -6.929688 23.335938 -6.929688 23.148438 -6.929688 C 21.921875 -6.929688 20.691406 -6.964844 19.480469 -6.929688 C 19.195312 -6.914062 18.910156 -6.914062 18.640625 -6.914062 C 18.085938 -6.929688 17.53125 -6.898438 16.976562 -6.949219 C 16.804688 -6.949219 16.636719 -6.949219 16.46875 -6.949219 C 16.320312 -6.949219 16.167969 -6.980469 16.03125 -6.980469 C 15.761719 -7 15.511719 -7 15.242188 -7.015625 C 14.820312 -7.015625 14.402344 -6.980469 13.980469 -7.03125 C 13.777344 -7.050781 13.578125 -7.03125 13.359375 -7.050781 C 12.835938 -7.066406 12.316406 -7.03125 11.792969 -7.066406 C 11.675781 -7.082031 11.558594 -7.066406 11.421875 -7.082031 C 11.390625 -7.082031 11.355469 -7.066406 11.339844 -7.082031 C 11.238281 -7.097656 11.121094 -7.082031 11.035156 -7.050781 C 11.035156 -7.03125 11.019531 -7.015625 11.019531 -7 C 11.035156 -6.613281 11.003906 -6.226562 11.035156 -5.835938 C 11.054688 -5.71875 11.054688 -5.601562 11.070312 -5.484375 C 11.085938 -5.300781 11.085938 -5.097656 11.085938 -4.894531 C 11.085938 -4.710938 11.085938 -4.542969 11.085938 -4.355469 C 11.085938 -4.324219 11.085938 -4.308594 11.101562 -4.273438 C 11.390625 -4.273438 11.660156 -4.273438 11.945312 -4.273438 C 11.960938 -4.273438 11.976562 -4.289062 12.011719 -4.289062 C 12.113281 -4.289062 12.230469 -4.324219 12.332031 -4.324219 C 12.953125 -4.308594 13.578125 -4.339844 14.199219 -4.308594 C 14.351562 -4.289062 14.5 -4.289062 14.652344 -4.289062 C 14.871094 -4.257812 15.105469 -4.257812 15.324219 -4.257812 C 16.101562 -4.257812 16.875 -4.257812 17.632812 -4.257812 C 17.917969 -4.257812 18.203125 -4.273438 18.488281 -4.289062 C 18.503906 -4.289062 18.523438 -4.289062 18.523438 -4.289062 C 18.757812 -4.289062 18.976562 -4.308594 19.210938 -4.308594 C 19.195312 -4.273438 19.160156 -4.257812 19.144531 -4.238281 C 18.960938 -4.054688 18.757812 -3.917969 18.539062 -3.785156 C 18.285156 -3.617188 18.019531 -3.53125 17.75 -3.414062 C 17.582031 -3.347656 17.414062 -3.28125 17.242188 -3.230469 C 17.074219 -3.164062 16.890625 -3.09375 16.707031 -3.027344 C 16.605469 -2.996094 16.488281 -2.976562 16.371094 -2.945312 C 16 -2.875 15.644531 -2.742188 15.277344 -2.691406 C 15.039062 -2.640625 14.820312 -2.609375 14.601562 -2.609375 C 14.484375 -2.589844 14.351562 -2.589844 14.234375 -2.574219 C 14.113281 -2.574219 13.996094 -2.558594 13.878906 -2.539062 C 13.796875 -2.539062 13.710938 -2.523438 13.644531 -2.523438 C 13.238281 -2.523438 12.851562 -2.507812 12.449219 -2.539062 C 12.230469 -2.558594 12.011719 -2.558594 11.792969 -2.558594 C 11.675781 -2.558594 11.539062 -2.558594 11.421875 -2.589844 C 11.320312 -2.609375 11.222656 -2.625 11.101562 -2.625 C 11.035156 -2.625 10.96875 -2.640625 10.882812 -2.65625 C 10.785156 -2.65625 10.683594 -2.691406 10.582031 -2.691406 C 10.480469 -2.707031 10.363281 -2.707031 10.261719 -2.726562 C 10.042969 -2.757812 9.824219 -2.808594 9.605469 -2.84375 C 9.472656 -2.875 9.355469 -2.910156 9.234375 -2.945312 C 9.015625 -2.976562 8.816406 -3.046875 8.597656 -3.113281 C 8.53125 -3.144531 8.480469 -3.179688 8.429688 -3.214844 C 8.140625 -3.3125 7.875 -3.433594 7.621094 -3.582031 C 7.570312 -3.617188 7.519531 -3.632812 7.453125 -3.652344 C 7.117188 -3.769531 6.832031 -3.988281 6.542969 -4.207031 C 6.375 -4.324219 6.242188 -4.476562 6.105469 -4.609375 C 6.039062 -4.695312 5.988281 -4.777344 5.9375 -4.863281 C 5.921875 -4.894531 5.921875 -4.929688 5.886719 -4.945312 C 5.753906 -5.230469 5.667969 -5.535156 5.585938 -5.835938 C 5.550781 -6.007812 5.570312 -6.15625 5.601562 -6.308594 C 5.652344 -6.542969 5.753906 -6.78125 5.855469 -7 C 5.921875 -7.097656 5.988281 -7.199219 6.074219 -7.269531 C 6.324219 -7.535156 6.628906 -7.753906 6.929688 -7.941406 C 7 -7.992188 7.066406 -8.042969 7.132812 -8.09375 C 7.351562 -8.226562 7.570312 -8.34375 7.804688 -8.429688 C 7.957031 -8.496094 8.109375 -8.5625 8.261719 -8.628906 C 8.359375 -8.664062 8.445312 -8.699219 8.53125 -8.730469 C 8.613281 -8.765625 8.714844 -8.796875 8.796875 -8.832031 C 8.933594 -8.867188 9.050781 -8.917969 9.1875 -8.933594 C 9.253906 -8.933594 9.335938 -8.949219 9.402344 -8.96875 C 9.554688 -8.984375 9.707031 -9.035156 9.859375 -9.050781 C 9.992188 -9.085938 10.128906 -9.101562 10.277344 -9.117188 C 10.378906 -9.136719 10.496094 -9.152344 10.617188 -9.167969 C 10.714844 -9.1875 10.835938 -9.1875 10.933594 -9.203125 C 11.121094 -9.21875 11.320312 -9.253906 11.523438 -9.253906 C 11.539062 -9.253906 11.558594 -9.253906 11.574219 -9.269531 C 11.726562 -9.269531 11.878906 -9.304688 12.011719 -9.304688 C 12.332031 -9.304688 12.652344 -9.304688 12.972656 -9.304688 C 13.390625 -9.304688 13.796875 -9.304688 14.199219 -9.269531 C 14.234375 -9.269531 14.25 -9.269531 14.265625 -9.269531 C 14.382812 -9.269531 14.519531 -9.253906 14.636719 -9.234375 C 14.769531 -9.21875 14.90625 -9.203125 15.039062 -9.1875 C 15.292969 -9.136719 15.527344 -9.085938 15.78125 -9.035156 C 16.117188 -8.96875 16.4375 -8.867188 16.757812 -8.75 C 16.925781 -8.679688 17.109375 -8.597656 17.277344 -8.53125 C 17.414062 -8.480469 17.546875 -8.445312 17.679688 -8.394531 C 17.75 -8.359375 17.816406 -8.3125 17.882812 -8.292969 C 17.984375 -8.261719 18.085938 -8.191406 18.167969 -8.140625 C 18.203125 -8.109375 18.238281 -8.09375 18.269531 -8.074219 C 18.371094 -8.007812 18.488281 -7.941406 18.605469 -7.875 C 18.773438 -7.753906 18.960938 -7.636719 19.128906 -7.519531 C 19.195312 -7.554688 19.246094 -7.585938 19.296875 -7.621094 C 19.378906 -7.671875 19.480469 -7.722656 19.566406 -7.789062 C 19.886719 -8.023438 20.203125 -8.261719 20.542969 -8.496094 C 20.625 -8.5625 20.726562 -8.628906 20.808594 -8.699219 C 21.148438 -8.96875 21.484375 -9.21875 21.855469 -9.4375 C 21.921875 -9.472656 21.988281 -9.539062 22.070312 -9.589844 Z M 22.070312 -9.589844 "/></g></g></g><g fill="#050a30" fill-opacity="1"><g transform="translate(91.204177, 47.51801)"><g><path d="M 22.070312 -9.589844 C 21.9375 -9.707031 21.820312 -9.792969 21.683594 -9.875 C 21.636719 -9.910156 21.566406 -9.960938 21.515625 -10.011719 C 21.199219 -10.230469 20.878906 -10.449219 20.542969 -10.597656 C 20.40625 -10.667969 20.273438 -10.734375 20.136719 -10.800781 C 19.851562 -10.933594 19.546875 -11.085938 19.246094 -11.203125 C 19.011719 -11.304688 18.742188 -11.371094 18.488281 -11.441406 C 18.203125 -11.507812 17.917969 -11.574219 17.632812 -11.625 C 17.328125 -11.691406 17.007812 -11.757812 16.6875 -11.808594 C 16.519531 -11.84375 16.351562 -11.878906 16.167969 -11.894531 C 16.101562 -11.910156 16.015625 -11.929688 15.949219 -11.945312 C 15.8125 -11.960938 15.664062 -11.976562 15.527344 -11.996094 C 15.375 -12.011719 15.242188 -12.027344 15.089844 -12.0625 C 14.871094 -12.078125 14.652344 -12.097656 14.433594 -12.113281 C 14.25 -12.144531 14.046875 -12.144531 13.863281 -12.164062 C 13.625 -12.179688 13.390625 -12.179688 13.15625 -12.179688 C 12.71875 -12.179688 12.28125 -12.195312 11.84375 -12.164062 C 11.691406 -12.164062 11.539062 -12.144531 11.390625 -12.144531 C 11.371094 -12.144531 11.355469 -12.144531 11.355469 -12.144531 C 11.1875 -12.113281 11.019531 -12.097656 10.851562 -12.078125 C 10.648438 -12.078125 10.464844 -12.0625 10.277344 -12.027344 C 10.160156 -12.011719 10.042969 -12.011719 9.925781 -11.976562 C 9.671875 -11.910156 9.402344 -11.894531 9.136719 -11.859375 C 8.949219 -11.828125 8.75 -11.792969 8.546875 -11.757812 C 8.3125 -11.710938 8.042969 -11.660156 7.789062 -11.609375 C 7.570312 -11.574219 7.351562 -11.523438 7.117188 -11.472656 C 6.914062 -11.421875 6.695312 -11.390625 6.492188 -11.304688 C 6.125 -11.1875 5.769531 -11.070312 5.417969 -10.933594 C 5.164062 -10.816406 4.914062 -10.734375 4.660156 -10.632812 C 4.476562 -10.566406 4.308594 -10.480469 4.15625 -10.378906 C 4.121094 -10.347656 4.070312 -10.328125 4.039062 -10.3125 C 3.835938 -10.195312 3.632812 -10.09375 3.433594 -9.941406 C 3.214844 -9.773438 2.996094 -9.605469 2.792969 -9.402344 C 2.675781 -9.269531 2.539062 -9.136719 2.421875 -9 C 2.269531 -8.78125 2.085938 -8.578125 1.917969 -8.359375 C 1.800781 -8.210938 1.683594 -8.058594 1.613281 -7.875 C 1.515625 -7.621094 1.429688 -7.351562 1.394531 -7.097656 C 1.363281 -6.949219 1.328125 -6.796875 1.3125 -6.628906 C 1.277344 -6.476562 1.261719 -6.324219 1.226562 -6.175781 C 1.226562 -6.039062 1.210938 -5.90625 1.195312 -5.789062 C 1.195312 -5.71875 1.195312 -5.652344 1.195312 -5.585938 C 1.195312 -5.46875 1.175781 -5.332031 1.195312 -5.214844 C 1.246094 -4.980469 1.277344 -4.746094 1.347656 -4.507812 C 1.394531 -4.375 1.429688 -4.222656 1.515625 -4.089844 C 1.648438 -3.851562 1.816406 -3.652344 1.96875 -3.433594 C 2.085938 -3.246094 2.238281 -3.09375 2.390625 -2.910156 C 2.472656 -2.808594 2.589844 -2.691406 2.707031 -2.589844 C 2.742188 -2.574219 2.777344 -2.558594 2.792969 -2.523438 C 2.996094 -2.339844 3.214844 -2.171875 3.433594 -2.019531 C 3.53125 -1.933594 3.632812 -1.851562 3.734375 -1.785156 C 3.871094 -1.714844 4.003906 -1.613281 4.136719 -1.53125 C 4.324219 -1.429688 4.507812 -1.328125 4.695312 -1.210938 C 4.792969 -1.160156 4.894531 -1.09375 4.996094 -1.042969 C 5.179688 -0.957031 5.351562 -0.890625 5.535156 -0.824219 C 5.667969 -0.773438 5.789062 -0.722656 5.921875 -0.691406 C 6.105469 -0.605469 6.308594 -0.539062 6.511719 -0.472656 C 6.628906 -0.4375 6.761719 -0.402344 6.878906 -0.371094 C 7.097656 -0.304688 7.300781 -0.234375 7.519531 -0.183594 C 7.722656 -0.132812 7.90625 -0.101562 8.109375 -0.0507812 C 8.261719 -0.015625 8.429688 0.015625 8.578125 0.0351562 C 8.699219 0.0664062 8.816406 0.0859375 8.933594 0.101562 C 9.015625 0.117188 9.101562 0.132812 9.167969 0.152344 C 9.335938 0.167969 9.488281 0.203125 9.65625 0.21875 C 9.839844 0.253906 10.027344 0.304688 10.210938 0.304688 C 10.230469 0.304688 10.246094 0.304688 10.261719 0.304688 C 10.414062 0.320312 10.566406 0.335938 10.714844 0.351562 C 10.851562 0.351562 10.984375 0.371094 11.121094 0.371094 C 11.304688 0.371094 11.492188 0.386719 11.691406 0.386719 C 12.011719 0.386719 12.332031 0.402344 12.652344 0.386719 C 12.835938 0.386719 13.019531 0.402344 13.207031 0.371094 C 13.339844 0.351562 13.476562 0.351562 13.609375 0.335938 C 13.84375 0.320312 14.082031 0.304688 14.332031 0.285156 C 14.550781 0.269531 14.789062 0.269531 15.007812 0.253906 C 15.15625 0.253906 15.292969 0.253906 15.425781 0.234375 C 15.425781 0.234375 15.445312 0.234375 15.445312 0.234375 C 15.59375 0.21875 15.746094 0.183594 15.914062 0.167969 C 16.03125 0.152344 16.167969 0.132812 16.300781 0.101562 C 16.386719 0.101562 16.453125 0.0664062 16.554688 0.0664062 C 16.671875 0.0351562 16.773438 0.015625 16.890625 0 C 17.023438 -0.015625 17.144531 -0.0507812 17.277344 -0.0664062 C 17.445312 -0.117188 17.613281 -0.132812 17.78125 -0.183594 C 17.96875 -0.21875 18.136719 -0.285156 18.320312 -0.335938 C 18.472656 -0.371094 18.625 -0.402344 18.773438 -0.472656 C 18.910156 -0.523438 19.0625 -0.570312 19.210938 -0.605469 C 19.566406 -0.691406 19.886719 -0.789062 20.222656 -0.925781 C 20.40625 -0.992188 20.609375 -1.078125 20.792969 -1.175781 C 21.011719 -1.296875 21.246094 -1.414062 21.449219 -1.546875 C 21.683594 -1.683594 21.902344 -1.816406 22.121094 -1.96875 C 22.242188 -2.035156 22.339844 -2.136719 22.441406 -2.21875 C 22.609375 -2.355469 22.796875 -2.507812 22.945312 -2.675781 C 23.046875 -2.792969 23.148438 -2.910156 23.25 -3.046875 C 23.335938 -3.144531 23.433594 -3.265625 23.503906 -3.382812 C 23.570312 -3.484375 23.636719 -3.582031 23.703125 -3.699219 C 23.769531 -3.835938 23.839844 -3.96875 23.90625 -4.105469 C 24.039062 -4.457031 24.175781 -4.8125 24.242188 -5.179688 C 24.277344 -5.382812 24.308594 -5.601562 24.308594 -5.820312 C 24.308594 -6.054688 24.328125 -6.292969 24.308594 -6.527344 C 24.308594 -6.628906 24.277344 -6.746094 24.277344 -6.863281 C 24.207031 -6.878906 24.160156 -6.898438 24.089844 -6.898438 C 23.972656 -6.898438 23.855469 -6.898438 23.722656 -6.914062 C 23.535156 -6.929688 23.335938 -6.929688 23.148438 -6.929688 C 21.921875 -6.929688 20.691406 -6.964844 19.480469 -6.929688 C 19.195312 -6.914062 18.910156 -6.914062 18.640625 -6.914062 C 18.085938 -6.929688 17.53125 -6.898438 16.976562 -6.949219 C 16.804688 -6.949219 16.636719 -6.949219 16.46875 -6.949219 C 16.320312 -6.949219 16.167969 -6.980469 16.03125 -6.980469 C 15.761719 -7 15.511719 -7 15.242188 -7.015625 C 14.820312 -7.015625 14.402344 -6.980469 13.980469 -7.03125 C 13.777344 -7.050781 13.578125 -7.03125 13.359375 -7.050781 C 12.835938 -7.066406 12.316406 -7.03125 11.792969 -7.066406 C 11.675781 -7.082031 11.558594 -7.066406 11.421875 -7.082031 C 11.390625 -7.082031 11.355469 -7.066406 11.339844 -7.082031 C 11.238281 -7.097656 11.121094 -7.082031 11.035156 -7.050781 C 11.035156 -7.03125 11.019531 -7.015625 11.019531 -7 C 11.035156 -6.613281 11.003906 -6.226562 11.035156 -5.835938 C 11.054688 -5.71875 11.054688 -5.601562 11.070312 -5.484375 C 11.085938 -5.300781 11.085938 -5.097656 11.085938 -4.894531 C 11.085938 -4.710938 11.085938 -4.542969 11.085938 -4.355469 C 11.085938 -4.324219 11.085938 -4.308594 11.101562 -4.273438 C 11.390625 -4.273438 11.660156 -4.273438 11.945312 -4.273438 C 11.960938 -4.273438 11.976562 -4.289062 12.011719 -4.289062 C 12.113281 -4.289062 12.230469 -4.324219 12.332031 -4.324219 C 12.953125 -4.308594 13.578125 -4.339844 14.199219 -4.308594 C 14.351562 -4.289062 14.5 -4.289062 14.652344 -4.289062 C 14.871094 -4.257812 15.105469 -4.257812 15.324219 -4.257812 C 16.101562 -4.257812 16.875 -4.257812 17.632812 -4.257812 C 17.917969 -4.257812 18.203125 -4.273438 18.488281 -4.289062 C 18.503906 -4.289062 18.523438 -4.289062 18.523438 -4.289062 C 18.757812 -4.289062 18.976562 -4.308594 19.210938 -4.308594 C 19.195312 -4.273438 19.160156 -4.257812 19.144531 -4.238281 C 18.960938 -4.054688 18.757812 -3.917969 18.539062 -3.785156 C 18.285156 -3.617188 18.019531 -3.53125 17.75 -3.414062 C 17.582031 -3.347656 17.414062 -3.28125 17.242188 -3.230469 C 17.074219 -3.164062 16.890625 -3.09375 16.707031 -3.027344 C 16.605469 -2.996094 16.488281 -2.976562 16.371094 -2.945312 C 16 -2.875 15.644531 -2.742188 15.277344 -2.691406 C 15.039062 -2.640625 14.820312 -2.609375 14.601562 -2.609375 C 14.484375 -2.589844 14.351562 -2.589844 14.234375 -2.574219 C 14.113281 -2.574219 13.996094 -2.558594 13.878906 -2.539062 C 13.796875 -2.539062 13.710938 -2.523438 13.644531 -2.523438 C 13.238281 -2.523438 12.851562 -2.507812 12.449219 -2.539062 C 12.230469 -2.558594 12.011719 -2.558594 11.792969 -2.558594 C 11.675781 -2.558594 11.539062 -2.558594 11.421875 -2.589844 C 11.320312 -2.609375 11.222656 -2.625 11.101562 -2.625 C 11.035156 -2.625 10.96875 -2.640625 10.882812 -2.65625 C 10.785156 -2.65625 10.683594 -2.691406 10.582031 -2.691406 C 10.480469 -2.707031 10.363281 -2.707031 10.261719 -2.726562 C 10.042969 -2.757812 9.824219 -2.808594 9.605469 -2.84375 C 9.472656 -2.875 9.355469 -2.910156 9.234375 -2.945312 C 9.015625 -2.976562 8.816406 -3.046875 8.597656 -3.113281 C 8.53125 -3.144531 8.480469 -3.179688 8.429688 -3.214844 C 8.140625 -3.3125 7.875 -3.433594 7.621094 -3.582031 C 7.570312 -3.617188 7.519531 -3.632812 7.453125 -3.652344 C 7.117188 -3.769531 6.832031 -3.988281 6.542969 -4.207031 C 6.375 -4.324219 6.242188 -4.476562 6.105469 -4.609375 C 6.039062 -4.695312 5.988281 -4.777344 5.9375 -4.863281 C 5.921875 -4.894531 5.921875 -4.929688 5.886719 -4.945312 C 5.753906 -5.230469 5.667969 -5.535156 5.585938 -5.835938 C 5.550781 -6.007812 5.570312 -6.15625 5.601562 -6.308594 C 5.652344 -6.542969 5.753906 -6.78125 5.855469 -7 C 5.921875 -7.097656 5.988281 -7.199219 6.074219 -7.269531 C 6.324219 -7.535156 6.628906 -7.753906 6.929688 -7.941406 C 7 -7.992188 7.066406 -8.042969 7.132812 -8.09375 C 7.351562 -8.226562 7.570312 -8.34375 7.804688 -8.429688 C 7.957031 -8.496094 8.109375 -8.5625 8.261719 -8.628906 C 8.359375 -8.664062 8.445312 -8.699219 8.53125 -8.730469 C 8.613281 -8.765625 8.714844 -8.796875 8.796875 -8.832031 C 8.933594 -8.867188 9.050781 -8.917969 9.1875 -8.933594 C 9.253906 -8.933594 9.335938 -8.949219 9.402344 -8.96875 C 9.554688 -8.984375 9.707031 -9.035156 9.859375 -9.050781 C 9.992188 -9.085938 10.128906 -9.101562 10.277344 -9.117188 C 10.378906 -9.136719 10.496094 -9.152344 10.617188 -9.167969 C 10.714844 -9.1875 10.835938 -9.1875 10.933594 -9.203125 C 11.121094 -9.21875 11.320312 -9.253906 11.523438 -9.253906 C 11.539062 -9.253906 11.558594 -9.253906 11.574219 -9.269531 C 11.726562 -9.269531 11.878906 -9.304688 12.011719 -9.304688 C 12.332031 -9.304688 12.652344 -9.304688 12.972656 -9.304688 C 13.390625 -9.304688 13.796875 -9.304688 14.199219 -9.269531 C 14.234375 -9.269531 14.25 -9.269531 14.265625 -9.269531 C 14.382812 -9.269531 14.519531 -9.253906 14.636719 -9.234375 C 14.769531 -9.21875 14.90625 -9.203125 15.039062 -9.1875 C 15.292969 -9.136719 15.527344 -9.085938 15.78125 -9.035156 C 16.117188 -8.96875 16.4375 -8.867188 16.757812 -8.75 C 16.925781 -8.679688 17.109375 -8.597656 17.277344 -8.53125 C 17.414062 -8.480469 17.546875 -8.445312 17.679688 -8.394531 C 17.75 -8.359375 17.816406 -8.3125 17.882812 -8.292969 C 17.984375 -8.261719 18.085938 -8.191406 18.167969 -8.140625 C 18.203125 -8.109375 18.238281 -8.09375 18.269531 -8.074219 C 18.371094 -8.007812 18.488281 -7.941406 18.605469 -7.875 C 18.773438 -7.753906 18.960938 -7.636719 19.128906 -7.519531 C 19.195312 -7.554688 19.246094 -7.585938 19.296875 -7.621094 C 19.378906 -7.671875 19.480469 -7.722656 19.566406 -7.789062 C 19.886719 -8.023438 20.203125 -8.261719 20.542969 -8.496094 C 20.625 -8.5625 20.726562 -8.628906 20.808594 -8.699219 C 21.148438 -8.96875 21.484375 -9.21875 21.855469 -9.4375 C 21.921875 -9.472656 21.988281 -9.539062 22.070312 -9.589844 Z M 22.070312 -9.589844 "/></g></g></g><g fill="#050a30" fill-opacity="1"><g transform="translate(116.708305, 47.51801)"><g><path d="M 1.328125 -11.710938 C 1.261719 -11.675781 1.246094 -11.609375 1.226562 -11.558594 C 1.210938 -11.472656 1.210938 -11.390625 1.210938 -11.304688 C 1.195312 -10.953125 1.210938 -10.582031 1.175781 -10.230469 C 1.175781 -10.09375 1.175781 -9.941406 1.175781 -9.808594 C 1.175781 -9.402344 1.175781 -9 1.195312 -8.597656 C 1.210938 -8.058594 1.195312 -7.503906 1.210938 -6.949219 C 1.210938 -6.914062 1.210938 -6.878906 1.210938 -6.847656 C 1.210938 -6.695312 1.246094 -6.527344 1.246094 -6.375 C 1.246094 -6.226562 1.246094 -6.089844 1.226562 -5.957031 C 1.195312 -5.652344 1.246094 -5.351562 1.246094 -5.046875 C 1.246094 -5.03125 1.246094 -5.011719 1.261719 -4.996094 C 1.296875 -4.828125 1.328125 -4.660156 1.378906 -4.507812 C 1.445312 -4.289062 1.515625 -4.070312 1.648438 -3.871094 C 1.75 -3.683594 1.851562 -3.484375 1.953125 -3.296875 C 2.019531 -3.195312 2.085938 -3.09375 2.152344 -3.011719 C 2.339844 -2.757812 2.523438 -2.507812 2.726562 -2.269531 C 2.792969 -2.1875 2.859375 -2.085938 2.960938 -2.035156 C 3.078125 -1.96875 3.164062 -1.867188 3.265625 -1.785156 C 3.28125 -1.785156 3.296875 -1.75 3.3125 -1.75 C 3.601562 -1.53125 3.902344 -1.347656 4.222656 -1.175781 C 4.324219 -1.109375 4.441406 -1.058594 4.542969 -0.992188 C 4.761719 -0.859375 4.964844 -0.773438 5.199219 -0.691406 C 5.433594 -0.589844 5.667969 -0.539062 5.90625 -0.4375 C 5.921875 -0.421875 5.9375 -0.421875 5.972656 -0.402344 C 6.074219 -0.371094 6.191406 -0.335938 6.308594 -0.285156 C 6.578125 -0.167969 6.847656 -0.0859375 7.117188 0 C 7.167969 0.015625 7.21875 0.015625 7.269531 0.0351562 C 7.367188 0.0507812 7.488281 0.0664062 7.605469 0.0859375 C 7.65625 0.101562 7.722656 0.101562 7.789062 0.117188 C 7.875 0.132812 7.941406 0.132812 8.007812 0.132812 C 8.226562 0.183594 8.445312 0.234375 8.664062 0.253906 C 8.796875 0.269531 8.933594 0.304688 9.050781 0.320312 C 9.136719 0.335938 9.21875 0.320312 9.304688 0.335938 C 9.402344 0.371094 9.488281 0.371094 9.574219 0.371094 C 9.859375 0.351562 10.128906 0.371094 10.414062 0.386719 C 10.429688 0.386719 10.429688 0.386719 10.449219 0.386719 C 10.566406 0.402344 10.683594 0.421875 10.816406 0.421875 C 11.003906 0.4375 11.203125 0.4375 11.40625 0.453125 C 11.539062 0.453125 11.691406 0.453125 11.84375 0.453125 C 11.960938 0.453125 12.078125 0.4375 12.214844 0.402344 C 12.316406 0.386719 12.433594 0.371094 12.550781 0.371094 C 12.785156 0.351562 13.019531 0.351562 13.257812 0.335938 C 13.457031 0.335938 13.660156 0.304688 13.863281 0.285156 C 13.929688 0.285156 14.015625 0.269531 14.082031 0.269531 C 14.183594 0.253906 14.300781 0.21875 14.402344 0.203125 C 14.671875 0.167969 14.921875 0.101562 15.175781 0 C 15.292969 -0.0507812 15.410156 -0.0859375 15.527344 -0.132812 C 15.730469 -0.203125 15.933594 -0.285156 16.132812 -0.371094 C 16.371094 -0.453125 16.605469 -0.554688 16.839844 -0.640625 C 16.976562 -0.707031 17.125 -0.757812 17.277344 -0.824219 C 17.363281 -0.859375 17.429688 -0.890625 17.496094 -0.957031 C 17.53125 -0.992188 17.582031 -1.027344 17.613281 -1.042969 C 17.847656 -1.128906 18.050781 -1.261719 18.253906 -1.414062 C 18.304688 -1.445312 18.371094 -1.496094 18.421875 -1.53125 C 18.691406 -1.699219 18.960938 -1.902344 19.210938 -2.101562 C 19.480469 -2.304688 19.699219 -2.574219 19.9375 -2.828125 C 19.96875 -2.875 20.019531 -2.925781 20.054688 -2.976562 C 20.273438 -3.230469 20.40625 -3.53125 20.558594 -3.820312 C 20.625 -3.9375 20.675781 -4.054688 20.726562 -4.171875 C 20.84375 -4.476562 20.929688 -4.792969 20.980469 -5.113281 C 21.011719 -5.265625 21.027344 -5.417969 21.027344 -5.550781 C 21.046875 -6.140625 21.027344 -6.730469 21.046875 -7.316406 C 21.0625 -7.503906 21.046875 -7.671875 21.027344 -7.839844 C 21.011719 -8.042969 21.027344 -8.226562 21.011719 -8.429688 C 20.996094 -8.578125 20.996094 -8.75 20.996094 -8.898438 C 20.980469 -9.203125 20.996094 -9.488281 20.960938 -9.792969 C 20.960938 -9.992188 20.980469 -10.195312 20.980469 -10.398438 C 20.996094 -10.667969 20.980469 -10.933594 20.980469 -11.1875 C 20.980469 -11.222656 20.980469 -11.253906 20.980469 -11.289062 C 20.929688 -11.390625 20.910156 -11.507812 20.929688 -11.625 C 20.929688 -11.625 20.910156 -11.640625 20.910156 -11.660156 C 20.726562 -11.660156 20.542969 -11.660156 20.355469 -11.660156 C 20.15625 -11.660156 19.953125 -11.625 19.765625 -11.625 C 19.347656 -11.625 18.941406 -11.625 18.539062 -11.640625 C 18.066406 -11.660156 17.582031 -11.640625 17.109375 -11.640625 C 17.074219 -11.640625 17.042969 -11.640625 17.007812 -11.640625 C 16.925781 -11.660156 16.855469 -11.640625 16.789062 -11.640625 C 16.773438 -11.507812 16.773438 -11.390625 16.773438 -11.273438 C 16.757812 -11.019531 16.757812 -10.75 16.738281 -10.496094 C 16.738281 -10.480469 16.757812 -10.449219 16.757812 -10.429688 C 16.757812 -10.378906 16.773438 -10.328125 16.757812 -10.277344 C 16.757812 -9.859375 16.773438 -9.421875 16.738281 -8.984375 C 16.722656 -8.578125 16.722656 -8.175781 16.722656 -7.773438 C 16.722656 -7.066406 16.722656 -6.359375 16.722656 -5.652344 C 16.722656 -5.550781 16.707031 -5.449219 16.671875 -5.351562 C 16.65625 -5.300781 16.636719 -5.230469 16.605469 -5.164062 C 16.488281 -4.929688 16.386719 -4.695312 16.269531 -4.441406 C 16.167969 -4.257812 16.03125 -4.070312 15.898438 -3.917969 C 15.628906 -3.632812 15.34375 -3.398438 15.023438 -3.195312 C 14.9375 -3.144531 14.839844 -3.09375 14.753906 -3.046875 C 14.550781 -2.960938 14.332031 -2.875 14.132812 -2.808594 C 14.097656 -2.792969 14.082031 -2.777344 14.046875 -2.777344 C 13.863281 -2.726562 13.675781 -2.675781 13.507812 -2.625 C 13.359375 -2.589844 13.207031 -2.558594 13.039062 -2.523438 C 12.835938 -2.488281 12.652344 -2.457031 12.449219 -2.421875 C 12.28125 -2.390625 12.128906 -2.371094 11.960938 -2.371094 C 11.792969 -2.371094 11.625 -2.371094 11.457031 -2.390625 C 11.1875 -2.40625 10.917969 -2.40625 10.648438 -2.421875 C 10.546875 -2.421875 10.464844 -2.421875 10.378906 -2.4375 C 10.328125 -2.4375 10.277344 -2.421875 10.230469 -2.421875 C 10.160156 -2.421875 10.078125 -2.421875 10.011719 -2.421875 C 9.960938 -2.421875 9.910156 -2.421875 9.859375 -2.4375 C 9.722656 -2.457031 9.589844 -2.472656 9.453125 -2.488281 C 9.335938 -2.507812 9.21875 -2.523438 9.101562 -2.558594 C 9.035156 -2.558594 8.96875 -2.574219 8.917969 -2.589844 C 8.578125 -2.691406 8.242188 -2.808594 7.921875 -2.945312 C 7.65625 -3.0625 7.402344 -3.195312 7.148438 -3.332031 C 6.863281 -3.484375 6.578125 -3.667969 6.34375 -3.902344 C 6.273438 -3.96875 6.226562 -4.019531 6.15625 -4.070312 C 6.074219 -4.121094 6.023438 -4.1875 5.972656 -4.257812 C 5.871094 -4.375 5.804688 -4.507812 5.738281 -4.644531 C 5.585938 -4.964844 5.5 -5.28125 5.484375 -5.636719 C 5.484375 -5.652344 5.484375 -5.667969 5.484375 -5.6875 C 5.46875 -5.835938 5.449219 -5.988281 5.449219 -6.140625 C 5.433594 -7.269531 5.449219 -8.394531 5.433594 -9.523438 C 5.417969 -10.230469 5.417969 -10.953125 5.398438 -11.675781 C 5.398438 -11.691406 5.398438 -11.710938 5.398438 -11.726562 C 5.351562 -11.726562 5.316406 -11.726562 5.28125 -11.726562 C 5.0625 -11.726562 4.84375 -11.726562 4.625 -11.710938 C 4.375 -11.691406 4.136719 -11.726562 3.886719 -11.726562 C 3.484375 -11.742188 3.0625 -11.742188 2.65625 -11.710938 C 2.304688 -11.691406 1.953125 -11.691406 1.613281 -11.691406 C 1.53125 -11.691406 1.464844 -11.675781 1.394531 -11.710938 C 1.363281 -11.710938 1.347656 -11.710938 1.328125 -11.710938 Z M 1.328125 -11.710938 "/></g></g></g><g fill="#050a30" fill-opacity="1"><g transform="translate(138.94871, 47.51801)"><g><path d="M 14.988281 -3.5 C 15.039062 -3.53125 15.074219 -3.566406 15.125 -3.617188 C 15.34375 -3.785156 15.5625 -3.96875 15.761719 -4.136719 C 16.101562 -4.425781 16.417969 -4.695312 16.738281 -4.980469 C 17.042969 -5.230469 17.3125 -5.484375 17.597656 -5.738281 C 17.867188 -5.988281 18.136719 -6.226562 18.421875 -6.476562 C 18.691406 -6.710938 18.960938 -6.949219 19.230469 -7.167969 C 19.597656 -7.46875 19.96875 -7.773438 20.339844 -8.058594 C 20.625 -8.292969 20.929688 -8.53125 21.214844 -8.765625 C 21.515625 -9.035156 21.820312 -9.304688 22.140625 -9.574219 C 22.375 -9.757812 22.609375 -9.960938 22.847656 -10.144531 C 23.066406 -10.347656 23.300781 -10.53125 23.484375 -10.75 C 23.535156 -10.785156 23.570312 -10.816406 23.621094 -10.851562 C 23.738281 -10.953125 23.871094 -11.070312 24.007812 -11.171875 C 24.125 -11.289062 24.226562 -11.40625 24.359375 -11.507812 C 24.425781 -11.558594 24.476562 -11.625 24.546875 -11.691406 C 24.425781 -11.691406 24.34375 -11.726562 24.242188 -11.726562 C 23.921875 -11.710938 23.601562 -11.710938 23.285156 -11.710938 C 23.117188 -11.710938 22.964844 -11.710938 22.796875 -11.710938 C 22.390625 -11.710938 21.988281 -11.742188 21.585938 -11.710938 C 21.382812 -11.691406 21.179688 -11.710938 20.980469 -11.710938 C 20.726562 -11.710938 20.457031 -11.710938 20.203125 -11.710938 C 19.800781 -11.710938 19.414062 -11.710938 18.992188 -11.710938 C 18.960938 -11.691406 18.925781 -11.675781 18.894531 -11.660156 C 18.742188 -11.558594 18.625 -11.421875 18.488281 -11.320312 C 18.335938 -11.171875 18.167969 -11.035156 18.019531 -10.882812 C 17.816406 -10.734375 17.632812 -10.566406 17.445312 -10.398438 C 17.261719 -10.246094 17.09375 -10.109375 16.925781 -9.960938 C 16.621094 -9.691406 16.320312 -9.4375 16.015625 -9.167969 C 15.914062 -9.101562 15.832031 -9.015625 15.746094 -8.949219 C 15.578125 -8.78125 15.394531 -8.628906 15.207031 -8.480469 C 15.058594 -8.34375 14.890625 -8.210938 14.71875 -8.074219 C 14.550781 -7.921875 14.367188 -7.789062 14.183594 -7.636719 C 14.03125 -7.503906 13.878906 -7.367188 13.710938 -7.234375 C 13.527344 -7.066406 13.324219 -6.914062 13.121094 -6.746094 C 13.089844 -6.710938 13.054688 -6.695312 13.019531 -6.679688 C 12.953125 -6.746094 12.886719 -6.796875 12.820312 -6.863281 C 12.566406 -7.066406 12.316406 -7.285156 12.078125 -7.488281 C 11.84375 -7.6875 11.625 -7.875 11.390625 -8.074219 C 11.121094 -8.3125 10.835938 -8.546875 10.546875 -8.765625 C 10.246094 -9.015625 9.941406 -9.269531 9.621094 -9.503906 C 9.101562 -9.890625 8.597656 -10.261719 8.058594 -10.632812 C 7.707031 -10.882812 7.335938 -11.136719 7 -11.421875 C 6.847656 -11.558594 6.695312 -11.675781 6.542969 -11.757812 C 6.460938 -11.757812 6.375 -11.777344 6.308594 -11.757812 C 6.191406 -11.757812 6.074219 -11.726562 5.957031 -11.726562 C 5.433594 -11.710938 4.929688 -11.726562 4.40625 -11.710938 C 3.75 -11.691406 3.078125 -11.710938 2.421875 -11.710938 C 2.390625 -11.710938 2.355469 -11.710938 2.320312 -11.710938 C 2.1875 -11.726562 2.050781 -11.742188 1.933594 -11.742188 C 1.816406 -11.757812 1.699219 -11.726562 1.597656 -11.757812 C 1.582031 -11.777344 1.566406 -11.757812 1.546875 -11.757812 C 1.464844 -11.757812 1.363281 -11.742188 1.277344 -11.742188 C 1.246094 -11.742188 1.210938 -11.742188 1.175781 -11.726562 C 1.210938 -11.710938 1.210938 -11.675781 1.246094 -11.660156 C 1.296875 -11.609375 1.363281 -11.558594 1.414062 -11.507812 C 1.683594 -11.273438 1.917969 -11.019531 2.1875 -10.800781 C 2.472656 -10.546875 2.777344 -10.3125 3.0625 -10.09375 C 3.617188 -9.65625 4.1875 -9.253906 4.746094 -8.832031 C 4.929688 -8.699219 5.097656 -8.5625 5.25 -8.410156 C 5.351562 -8.3125 5.449219 -8.210938 5.550781 -8.125 C 5.855469 -7.875 6.140625 -7.621094 6.425781 -7.386719 C 6.695312 -7.148438 6.980469 -6.929688 7.25 -6.695312 C 7.570312 -6.441406 7.875 -6.191406 8.175781 -5.9375 C 8.410156 -5.753906 8.648438 -5.570312 8.867188 -5.382812 C 9.085938 -5.199219 9.304688 -5.011719 9.523438 -4.828125 C 9.65625 -4.710938 9.792969 -4.59375 9.925781 -4.476562 C 10.144531 -4.273438 10.378906 -4.070312 10.597656 -3.871094 C 10.667969 -3.820312 10.734375 -3.769531 10.785156 -3.699219 C 10.785156 -3.617188 10.785156 -3.550781 10.785156 -3.464844 C 10.785156 -3.296875 10.765625 -3.113281 10.765625 -2.945312 C 10.765625 -2.355469 10.75 -1.785156 10.785156 -1.210938 C 10.800781 -0.925781 10.765625 -0.65625 10.816406 -0.386719 C 10.816406 -0.269531 10.835938 -0.152344 10.835938 -0.0351562 C 10.953125 -0.0351562 11.070312 -0.015625 11.171875 -0.015625 C 11.523438 0 11.859375 0 12.214844 0.015625 C 12.414062 0.015625 12.601562 0.0351562 12.800781 0.0351562 C 13.054688 0.0507812 13.308594 0.0507812 13.558594 0.0664062 C 13.746094 0.0664062 13.945312 0.0664062 14.132812 0.0664062 C 14.164062 0.0664062 14.214844 0.0664062 14.25 0.0664062 C 14.402344 0.0859375 14.570312 0.0859375 14.71875 0.0664062 C 14.789062 0.0664062 14.855469 0.0664062 14.9375 0.0664062 C 14.9375 0.0859375 14.957031 0.0664062 14.972656 0.0664062 C 15.007812 0.015625 14.988281 -0.0507812 14.988281 -0.0859375 C 14.957031 -0.203125 14.972656 -0.304688 14.972656 -0.402344 C 14.972656 -0.992188 14.972656 -1.582031 14.972656 -2.171875 C 14.972656 -2.609375 14.988281 -3.046875 14.988281 -3.5 Z M 14.988281 -3.5 "/></g></g></g></svg>