<svg xmlns="http://www.w3.org/2000/svg" xmlns:xlink="http://www.w3.org/1999/xlink" width="377" zoomAndPan="magnify" viewBox="0 0 282.96 56.999996" height="75" preserveAspectRatio="xMidYMid meet" version="1.0"><defs><g/><clipPath id="id1"><path d="M 15.34375 0.00390625 L 61 0.00390625 L 61 56.894531 L 15.34375 56.894531 Z M 15.34375 0.00390625 " clip-rule="nonzero"/></clipPath><clipPath id="id2"><path d="M 52 10 L 78.226562 10 L 78.226562 48 L 52 48 Z M 52 10 " clip-rule="nonzero"/></clipPath></defs><g clip-path="url(#id1)"><path fill="#140e0c" d="M 60.550781 16.390625 L 58.933594 0.0078125 L 45.570312 9.601562 L 48.890625 11.105469 L 40.867188 28.835938 L 31.546875 17.15625 L 15.347656 56.898438 L 25.242188 56.898438 L 34.128906 35.085938 L 43.046875 46.253906 L 57.234375 14.886719 L 60.550781 16.390625 " fill-opacity="1" fill-rule="nonzero"/></g><path fill="#03466e" d="M 61.113281 34.089844 L 56.136719 21.878906 L 48.253906 39.3125 L 51.625 35.085938 L 52.5625 37.382812 C 56.585938 45.535156 61.113281 34.089844 61.113281 34.089844 " fill-opacity="1" fill-rule="nonzero"/><g clip-path="url(#id2)"><path fill="#00adef" d="M 76.609375 10.945312 L 63.246094 20.535156 L 66.5625 22.039062 L 61.113281 34.089844 C 61.113281 34.089844 56.585938 45.535156 52.5625 37.382812 L 55.042969 43.46875 C 57.125 48.578125 64.292969 48.746094 66.609375 43.738281 L 74.90625 25.824219 L 78.226562 27.328125 L 76.609375 10.945312 " fill-opacity="1" fill-rule="nonzero"/></g><g fill="#ffffff" fill-opacity="1"><g transform="translate(91.204177, 23.264064)"><g><path d="M 5.382812 -11.773438 C 5.214844 -11.773438 5.078125 -11.773438 4.929688 -11.773438 C 4.777344 -11.757812 4.625 -11.773438 4.472656 -11.742188 C 4.304688 -11.722656 4.136719 -11.722656 3.953125 -11.722656 C 3.429688 -11.707031 2.910156 -11.722656 2.371094 -11.707031 C 2.152344 -11.691406 1.933594 -11.707031 1.714844 -11.707031 C 1.683594 -11.707031 1.664062 -11.691406 1.648438 -11.691406 C 1.597656 -11.691406 1.53125 -11.691406 1.480469 -11.671875 C 1.414062 -11.671875 1.34375 -11.671875 1.261719 -11.671875 C 1.261719 -11.621094 1.246094 -11.589844 1.246094 -11.554688 C 1.246094 -11.4375 1.246094 -11.304688 1.246094 -11.1875 C 1.246094 -10.847656 1.246094 -10.511719 1.246094 -10.175781 C 1.246094 -9.941406 1.277344 -9.6875 1.277344 -9.453125 C 1.277344 -9.101562 1.261719 -8.730469 1.261719 -8.359375 C 1.246094 -7.804688 1.246094 -7.25 1.261719 -6.675781 C 1.277344 -6.558594 1.246094 -6.441406 1.246094 -6.324219 C 1.246094 -5.886719 1.261719 -5.449219 1.226562 -4.996094 C 1.210938 -4.894531 1.210938 -4.777344 1.210938 -4.660156 C 1.210938 -4.640625 1.210938 -4.625 1.210938 -4.609375 C 1.210938 -4.507812 1.226562 -4.40625 1.226562 -4.304688 C 1.226562 -3.800781 1.226562 -3.28125 1.226562 -2.757812 C 1.226562 -2.574219 1.226562 -2.386719 1.246094 -2.203125 C 1.261719 -2.050781 1.246094 -1.902344 1.226562 -1.75 C 1.210938 -1.597656 1.226562 -1.429688 1.226562 -1.277344 C 1.226562 -1.246094 1.226562 -1.210938 1.226562 -1.160156 C 1.210938 -1.027344 1.195312 -0.890625 1.195312 -0.738281 C 1.175781 -0.488281 1.175781 -0.253906 1.175781 0 C 1.175781 0.015625 1.175781 0.0507812 1.195312 0.0859375 C 1.226562 0.0859375 1.261719 0.0859375 1.296875 0.0859375 C 1.445312 0.0664062 1.613281 0.0664062 1.765625 0.0664062 C 2.101562 0.0507812 2.421875 0.0664062 2.757812 0.0664062 C 2.792969 0.0664062 2.808594 0.0664062 2.84375 0.0664062 C 3.09375 0.101562 3.347656 0.0664062 3.597656 0.0507812 C 3.785156 0.0351562 3.96875 0.0351562 4.15625 0.0507812 C 4.339844 0.0507812 4.542969 0.0664062 4.726562 0.0664062 C 4.910156 0.0859375 5.078125 0.0664062 5.246094 0.0507812 C 5.28125 0.0507812 5.296875 0.0507812 5.332031 0.0507812 C 5.332031 -0.0859375 5.347656 -0.21875 5.347656 -0.371094 C 5.367188 -0.859375 5.367188 -1.34375 5.382812 -1.832031 C 5.398438 -2.605469 5.367188 -3.363281 5.398438 -4.136719 C 5.417969 -4.375 5.417969 -4.609375 5.417969 -4.859375 C 5.449219 -5.398438 5.417969 -5.9375 5.449219 -6.476562 C 5.464844 -6.777344 5.449219 -7.066406 5.433594 -7.367188 C 5.417969 -7.703125 5.433594 -8.039062 5.449219 -8.375 C 5.449219 -8.761719 5.449219 -9.148438 5.449219 -9.539062 C 5.449219 -9.570312 5.449219 -9.605469 5.449219 -9.621094 C 5.433594 -9.824219 5.417969 -10.023438 5.398438 -10.210938 C 5.398438 -10.679688 5.398438 -11.136719 5.398438 -11.605469 C 5.398438 -11.65625 5.398438 -11.707031 5.382812 -11.773438 Z M 5.382812 -11.773438 "/></g></g></g><g fill="#ffffff" fill-opacity="1"><g transform="translate(97.847885, 23.264064)"><g><path d="M 1.261719 -11.691406 C 1.261719 -11.65625 1.261719 -11.621094 1.261719 -11.589844 C 1.261719 -11.453125 1.261719 -11.304688 1.277344 -11.167969 C 1.296875 -11.050781 1.296875 -10.917969 1.3125 -10.78125 C 1.3125 -10.765625 1.3125 -10.75 1.3125 -10.730469 C 1.296875 -10.5625 1.277344 -10.410156 1.261719 -10.242188 C 1.261719 -9.855469 1.261719 -9.453125 1.261719 -9.066406 C 1.261719 -8.59375 1.277344 -8.109375 1.246094 -7.621094 C 1.226562 -7.433594 1.226562 -7.25 1.226562 -7.046875 C 1.210938 -6.609375 1.195312 -6.171875 1.195312 -5.734375 C 1.195312 -5.367188 1.210938 -4.996094 1.210938 -4.625 C 1.226562 -3.734375 1.226562 -2.824219 1.226562 -1.933594 C 1.226562 -1.902344 1.226562 -1.867188 1.210938 -1.832031 C 1.195312 -1.683594 1.175781 -1.53125 1.175781 -1.363281 C 1.175781 -0.957031 1.175781 -0.539062 1.175781 -0.132812 C 1.175781 -0.0507812 1.195312 0.0507812 1.210938 0.152344 C 1.414062 0.152344 1.613281 0.132812 1.816406 0.132812 C 2.050781 0.132812 2.289062 0.132812 2.523438 0.117188 C 2.859375 0.101562 3.195312 0.101562 3.550781 0.0859375 C 4.070312 0.0859375 4.59375 0.0859375 5.113281 0.0859375 C 5.214844 0.0859375 5.316406 0.0664062 5.417969 0.0664062 C 5.417969 0.0351562 5.417969 0 5.417969 -0.015625 C 5.433594 -0.824219 5.417969 -1.613281 5.433594 -2.40625 C 5.464844 -3.210938 5.433594 -4.019531 5.433594 -4.828125 C 5.449219 -4.945312 5.449219 -5.078125 5.464844 -5.214844 C 5.484375 -5.382812 5.484375 -5.566406 5.484375 -5.734375 C 5.484375 -6.324219 5.484375 -6.929688 5.484375 -7.519531 C 5.484375 -7.550781 5.484375 -7.601562 5.464844 -7.636719 C 5.464844 -7.71875 5.464844 -7.804688 5.464844 -7.890625 C 5.515625 -7.855469 5.566406 -7.839844 5.617188 -7.820312 C 5.851562 -7.6875 6.070312 -7.535156 6.308594 -7.382812 C 6.507812 -7.234375 6.710938 -7.082031 6.914062 -6.929688 C 7.046875 -6.847656 7.183594 -6.761719 7.316406 -6.675781 C 7.46875 -6.59375 7.621094 -6.507812 7.769531 -6.425781 C 7.972656 -6.289062 8.175781 -6.171875 8.359375 -6.023438 C 8.410156 -5.988281 8.460938 -5.9375 8.511719 -5.902344 C 8.714844 -5.769531 8.914062 -5.652344 9.117188 -5.515625 C 9.234375 -5.449219 9.335938 -5.367188 9.4375 -5.296875 C 9.554688 -5.230469 9.671875 -5.148438 9.789062 -5.078125 C 9.925781 -4.980469 10.074219 -4.859375 10.226562 -4.761719 C 10.363281 -4.660156 10.511719 -4.574219 10.664062 -4.472656 C 10.949219 -4.273438 11.253906 -4.085938 11.523438 -3.867188 C 11.65625 -3.75 11.792969 -3.648438 11.925781 -3.53125 C 11.976562 -3.480469 12.042969 -3.429688 12.109375 -3.398438 C 12.195312 -3.332031 12.277344 -3.28125 12.363281 -3.210938 C 12.566406 -3.09375 12.765625 -2.960938 12.953125 -2.824219 C 13.171875 -2.707031 13.390625 -2.574219 13.609375 -2.457031 C 13.640625 -2.4375 13.675781 -2.421875 13.707031 -2.386719 C 13.808594 -2.339844 13.910156 -2.269531 13.996094 -2.203125 C 14.128906 -2.121094 14.265625 -2.035156 14.382812 -1.933594 C 14.566406 -1.816406 14.75 -1.664062 14.953125 -1.546875 C 15.121094 -1.464844 15.273438 -1.363281 15.425781 -1.246094 C 15.542969 -1.144531 15.675781 -1.058594 15.8125 -0.976562 C 15.980469 -0.875 16.148438 -0.789062 16.300781 -0.691406 C 16.550781 -0.519531 16.785156 -0.351562 17.023438 -0.183594 C 17.140625 -0.117188 17.242188 -0.0351562 17.34375 0.0507812 C 17.441406 0.0507812 17.542969 0.0507812 17.628906 0.0507812 C 17.8125 0.0507812 17.996094 0.0664062 18.199219 0.0859375 C 18.417969 0.0859375 18.652344 0.0859375 18.871094 0.0859375 C 18.90625 0.0859375 18.941406 0.0859375 18.972656 0.0859375 C 19.140625 0.0664062 19.308594 0.0507812 19.476562 0.0507812 C 19.714844 0.0351562 19.964844 0.0507812 20.203125 0.0507812 C 20.65625 0.0351562 21.109375 0.0351562 21.5625 0.0351562 C 21.597656 0.0351562 21.648438 0.0351562 21.679688 0.015625 C 21.679688 -0.101562 21.664062 -0.21875 21.679688 -0.320312 C 21.679688 -0.402344 21.699219 -0.488281 21.679688 -0.570312 C 21.679688 -0.859375 21.679688 -1.128906 21.679688 -1.414062 C 21.664062 -1.75 21.664062 -2.085938 21.664062 -2.421875 C 21.664062 -2.824219 21.679688 -3.230469 21.648438 -3.648438 C 21.632812 -3.867188 21.632812 -4.070312 21.632812 -4.304688 C 21.613281 -4.945312 21.632812 -5.585938 21.613281 -6.222656 C 21.582031 -6.945312 21.597656 -7.652344 21.597656 -8.359375 C 21.597656 -8.410156 21.613281 -8.460938 21.613281 -8.511719 C 21.632812 -8.613281 21.648438 -8.714844 21.648438 -8.8125 C 21.648438 -9.082031 21.648438 -9.367188 21.648438 -9.65625 C 21.648438 -9.6875 21.648438 -9.722656 21.648438 -9.753906 C 21.632812 -9.941406 21.613281 -10.125 21.597656 -10.292969 C 21.597656 -10.664062 21.582031 -11.015625 21.582031 -11.371094 C 21.582031 -11.472656 21.582031 -11.574219 21.597656 -11.691406 C 21.5625 -11.691406 21.53125 -11.691406 21.511719 -11.691406 C 21.429688 -11.691406 21.328125 -11.671875 21.246094 -11.671875 C 21.074219 -11.671875 20.925781 -11.691406 20.757812 -11.691406 C 20.636719 -11.691406 20.519531 -11.671875 20.402344 -11.671875 C 20 -11.671875 19.597656 -11.65625 19.207031 -11.691406 C 19.058594 -11.707031 18.90625 -11.671875 18.753906 -11.65625 C 18.652344 -11.65625 18.554688 -11.621094 18.453125 -11.621094 C 18.285156 -11.621094 18.132812 -11.605469 17.964844 -11.640625 C 17.949219 -11.640625 17.949219 -11.640625 17.929688 -11.640625 C 17.796875 -11.621094 17.660156 -11.621094 17.527344 -11.589844 C 17.476562 -11.589844 17.441406 -11.574219 17.390625 -11.574219 C 17.375 -11.402344 17.359375 -11.234375 17.359375 -11.085938 C 17.359375 -10.816406 17.359375 -10.546875 17.375 -10.261719 C 17.390625 -10.042969 17.375 -9.804688 17.390625 -9.570312 C 17.425781 -9.285156 17.425781 -9 17.425781 -8.714844 C 17.425781 -8.578125 17.425781 -8.445312 17.441406 -8.308594 C 17.441406 -8.257812 17.441406 -8.226562 17.441406 -8.175781 C 17.425781 -8.089844 17.410156 -8.023438 17.410156 -7.9375 C 17.390625 -7.769531 17.390625 -7.585938 17.390625 -7.417969 C 17.390625 -6.996094 17.375 -6.59375 17.390625 -6.171875 C 17.425781 -5.683594 17.390625 -5.179688 17.425781 -4.691406 C 17.425781 -4.390625 17.425781 -4.070312 17.425781 -3.769531 C 17.390625 -3.785156 17.375 -3.816406 17.34375 -3.835938 C 17.222656 -3.917969 17.125 -3.988281 17.003906 -4.070312 C 16.667969 -4.324219 16.332031 -4.574219 15.980469 -4.8125 C 15.761719 -4.960938 15.542969 -5.097656 15.324219 -5.230469 C 15.1875 -5.316406 15.039062 -5.398438 14.902344 -5.5 C 14.785156 -5.566406 14.667969 -5.652344 14.53125 -5.734375 C 14.363281 -5.851562 14.195312 -5.953125 14.027344 -6.054688 C 13.808594 -6.191406 13.589844 -6.339844 13.371094 -6.492188 C 13.253906 -6.558594 13.121094 -6.609375 13.003906 -6.695312 C 12.714844 -6.863281 12.445312 -7.03125 12.195312 -7.234375 C 12.160156 -7.25 12.109375 -7.285156 12.078125 -7.300781 C 11.839844 -7.46875 11.589844 -7.636719 11.335938 -7.789062 C 11.304688 -7.820312 11.269531 -7.839844 11.234375 -7.855469 C 11.101562 -7.957031 10.96875 -8.058594 10.816406 -8.140625 C 10.496094 -8.359375 10.160156 -8.5625 9.824219 -8.761719 C 9.585938 -8.929688 9.351562 -9.082031 9.101562 -9.25 C 8.863281 -9.417969 8.628906 -9.570312 8.394531 -9.738281 C 8.324219 -9.789062 8.257812 -9.839844 8.191406 -9.890625 C 7.988281 -10.007812 7.804688 -10.125 7.601562 -10.261719 C 7.550781 -10.292969 7.5 -10.328125 7.453125 -10.363281 C 7.351562 -10.445312 7.25 -10.511719 7.148438 -10.578125 C 6.980469 -10.699219 6.828125 -10.796875 6.660156 -10.898438 C 6.558594 -10.96875 6.441406 -11.035156 6.359375 -11.101562 C 6.207031 -11.203125 6.039062 -11.304688 5.902344 -11.402344 C 5.769531 -11.488281 5.636719 -11.605469 5.484375 -11.671875 C 5.398438 -11.671875 5.332031 -11.691406 5.246094 -11.691406 C 5.011719 -11.691406 4.777344 -11.691406 4.542969 -11.691406 C 4.324219 -11.691406 4.105469 -11.671875 3.867188 -11.671875 C 3.816406 -11.671875 3.769531 -11.691406 3.71875 -11.691406 C 3.617188 -11.707031 3.515625 -11.722656 3.429688 -11.707031 C 3.195312 -11.707031 2.960938 -11.691406 2.726562 -11.691406 C 2.40625 -11.691406 2.070312 -11.691406 1.75 -11.691406 C 1.597656 -11.691406 1.429688 -11.691406 1.261719 -11.691406 Z M 1.261719 -11.691406 "/></g></g></g><g fill="#ffffff" fill-opacity="1"><g transform="translate(120.722408, 23.264064)"><g><path d="M 19.476562 -11.707031 C 19.308594 -11.488281 19.140625 -11.269531 18.988281 -11.035156 C 18.921875 -10.949219 18.855469 -10.867188 18.804688 -10.78125 C 18.652344 -10.597656 18.503906 -10.410156 18.367188 -10.226562 C 18.148438 -9.90625 17.914062 -9.621094 17.695312 -9.320312 C 17.359375 -8.914062 17.039062 -8.496094 16.734375 -8.074219 C 16.636719 -7.9375 16.535156 -7.804688 16.433594 -7.671875 C 16.316406 -7.535156 16.199219 -7.402344 16.097656 -7.25 C 15.980469 -7.066406 15.828125 -6.878906 15.675781 -6.710938 C 15.507812 -6.507812 15.355469 -6.324219 15.222656 -6.105469 C 15.105469 -5.902344 14.96875 -5.734375 14.820312 -5.566406 C 14.683594 -5.464844 14.582031 -5.332031 14.5 -5.179688 C 14.414062 -5.0625 14.332031 -4.945312 14.214844 -4.828125 C 14.128906 -4.726562 14.046875 -4.609375 13.976562 -4.492188 C 13.925781 -4.40625 13.894531 -4.324219 13.828125 -4.238281 C 13.625 -3.953125 13.421875 -3.667969 13.222656 -3.398438 C 13.070312 -3.210938 12.917969 -3.011719 12.785156 -2.824219 C 12.765625 -2.808594 12.75 -2.792969 12.734375 -2.773438 C 12.632812 -2.910156 12.53125 -3.042969 12.429688 -3.164062 C 12.328125 -3.28125 12.261719 -3.398438 12.195312 -3.53125 C 12.144531 -3.648438 12.078125 -3.75 12.007812 -3.851562 C 11.910156 -4.003906 11.808594 -4.15625 11.691406 -4.289062 C 11.554688 -4.472656 11.421875 -4.640625 11.285156 -4.8125 C 11.117188 -5.011719 10.949219 -5.214844 10.78125 -5.417969 C 10.699219 -5.515625 10.628906 -5.617188 10.546875 -5.71875 C 10.410156 -5.902344 10.261719 -6.105469 10.109375 -6.308594 C 10.023438 -6.425781 9.941406 -6.578125 9.839844 -6.695312 C 9.570312 -7.015625 9.335938 -7.367188 9.066406 -7.6875 C 8.898438 -7.871094 8.746094 -8.089844 8.59375 -8.308594 C 8.375 -8.613281 8.175781 -8.914062 7.921875 -9.199219 C 7.839844 -9.285156 7.769531 -9.367188 7.71875 -9.46875 C 7.636719 -9.605469 7.535156 -9.738281 7.433594 -9.855469 C 7.332031 -9.972656 7.234375 -10.09375 7.164062 -10.242188 C 7.132812 -10.292969 7.082031 -10.328125 7.046875 -10.378906 C 6.996094 -10.445312 6.929688 -10.496094 6.878906 -10.5625 C 6.761719 -10.730469 6.644531 -10.933594 6.507812 -11.101562 C 6.390625 -11.253906 6.289062 -11.453125 6.121094 -11.589844 C 6.121094 -11.589844 6.105469 -11.621094 6.089844 -11.621094 C 6.039062 -11.722656 5.953125 -11.742188 5.871094 -11.707031 C 5.820312 -11.707031 5.769531 -11.691406 5.71875 -11.691406 C 5.164062 -11.707031 4.609375 -11.691406 4.054688 -11.707031 C 3.53125 -11.742188 3.011719 -11.722656 2.488281 -11.722656 C 2.472656 -11.722656 2.457031 -11.722656 2.421875 -11.707031 C 2.304688 -11.691406 2.1875 -11.707031 2.070312 -11.707031 C 1.933594 -11.707031 1.816406 -11.707031 1.683594 -11.722656 C 1.648438 -11.722656 1.597656 -11.707031 1.5625 -11.722656 C 1.445312 -11.742188 1.3125 -11.707031 1.175781 -11.722656 C 1.277344 -11.574219 1.394531 -11.421875 1.480469 -11.269531 C 1.765625 -10.832031 2.085938 -10.429688 2.40625 -10.023438 C 2.472656 -9.957031 2.523438 -9.890625 2.589844 -9.804688 C 2.640625 -9.738281 2.707031 -9.671875 2.757812 -9.585938 C 2.84375 -9.503906 2.925781 -9.417969 2.992188 -9.320312 C 3.164062 -9.101562 3.3125 -8.882812 3.464844 -8.679688 C 3.566406 -8.542969 3.667969 -8.410156 3.769531 -8.292969 C 3.902344 -8.109375 4.035156 -7.9375 4.171875 -7.753906 C 4.253906 -7.636719 4.355469 -7.535156 4.457031 -7.417969 C 4.609375 -7.234375 4.761719 -7.046875 4.910156 -6.863281 C 5.097656 -6.609375 5.296875 -6.375 5.484375 -6.121094 C 5.820312 -5.667969 6.140625 -5.230469 6.476562 -4.792969 C 6.59375 -4.625 6.726562 -4.457031 6.863281 -4.289062 C 6.980469 -4.15625 7.097656 -4.035156 7.199219 -3.902344 C 7.5 -3.550781 7.753906 -3.179688 8.023438 -2.808594 C 8.226562 -2.539062 8.410156 -2.253906 8.613281 -1.984375 C 8.761719 -1.75 8.949219 -1.53125 9.132812 -1.3125 C 9.269531 -1.144531 9.386719 -0.992188 9.519531 -0.824219 C 9.65625 -0.621094 9.789062 -0.421875 9.941406 -0.234375 C 9.992188 -0.152344 10.058594 -0.0859375 10.125 0 C 10.277344 -0.015625 10.445312 0.015625 10.597656 -0.015625 C 10.628906 -0.0351562 10.679688 -0.015625 10.714844 -0.015625 C 10.796875 0 10.882812 0.015625 10.96875 0.015625 C 11.050781 0 11.136719 0 11.203125 0 C 11.355469 0 11.488281 0.015625 11.640625 0.015625 C 11.839844 0.015625 12.042969 0.015625 12.246094 0 C 12.464844 -0.015625 12.683594 -0.015625 12.882812 0.015625 C 13.136719 0.0351562 13.40625 0 13.675781 0.0351562 C 13.777344 0.0507812 13.875 0.0507812 13.996094 0.0507812 C 14.027344 0.0507812 14.0625 0.0507812 14.113281 0.0507812 C 14.179688 0.0507812 14.246094 0.0507812 14.3125 0.0507812 C 14.53125 0.0507812 14.734375 0.0507812 14.9375 0.0664062 C 14.953125 0.0664062 14.96875 0.0507812 14.988281 0.0507812 C 15.070312 0.0351562 15.136719 0.015625 15.207031 0.015625 C 15.304688 0.0351562 15.40625 0.0351562 15.507812 0.0351562 C 15.523438 0.015625 15.523438 0.015625 15.542969 0 C 15.777344 -0.285156 16.011719 -0.589844 16.230469 -0.875 C 16.367188 -1.058594 16.5 -1.246094 16.636719 -1.429688 C 16.785156 -1.632812 16.9375 -1.851562 17.089844 -2.070312 C 17.171875 -2.167969 17.242188 -2.289062 17.324219 -2.386719 C 17.390625 -2.488281 17.460938 -2.574219 17.527344 -2.65625 C 17.695312 -2.894531 17.878906 -3.09375 18.03125 -3.332031 C 18.183594 -3.566406 18.351562 -3.785156 18.503906 -4.019531 C 18.585938 -4.136719 18.652344 -4.273438 18.738281 -4.390625 C 18.855469 -4.542969 18.972656 -4.691406 19.074219 -4.84375 C 19.207031 -5.03125 19.328125 -5.199219 19.460938 -5.367188 C 19.664062 -5.617188 19.847656 -5.886719 20.050781 -6.140625 C 20.117188 -6.242188 20.183594 -6.339844 20.269531 -6.425781 C 20.4375 -6.609375 20.589844 -6.777344 20.722656 -6.980469 C 20.808594 -7.097656 20.875 -7.214844 20.957031 -7.332031 C 21.175781 -7.601562 21.414062 -7.871094 21.632812 -8.140625 C 21.679688 -8.191406 21.730469 -8.257812 21.78125 -8.324219 C 21.949219 -8.511719 22.136719 -8.679688 22.285156 -8.863281 C 22.457031 -9.066406 22.589844 -9.25 22.742188 -9.453125 C 22.910156 -9.65625 23.078125 -9.890625 23.246094 -10.109375 C 23.3125 -10.191406 23.378906 -10.292969 23.464844 -10.378906 C 23.566406 -10.496094 23.667969 -10.628906 23.75 -10.78125 C 23.867188 -10.984375 23.984375 -11.1875 24.136719 -11.355469 C 24.222656 -11.453125 24.304688 -11.554688 24.390625 -11.671875 C 24.339844 -11.671875 24.304688 -11.671875 24.273438 -11.671875 C 23.96875 -11.671875 23.667969 -11.671875 23.363281 -11.671875 C 23.179688 -11.671875 22.976562 -11.691406 22.792969 -11.691406 C 22.742188 -11.691406 22.691406 -11.691406 22.625 -11.691406 C 22.4375 -11.691406 22.253906 -11.691406 22.070312 -11.691406 C 21.917969 -11.691406 21.765625 -11.671875 21.613281 -11.691406 C 21.445312 -11.691406 21.261719 -11.691406 21.09375 -11.691406 C 20.808594 -11.707031 20.519531 -11.691406 20.25 -11.707031 C 20 -11.722656 19.746094 -11.707031 19.476562 -11.707031 Z M 19.476562 -11.707031 "/></g></g></g><g fill="#ffffff" fill-opacity="1"><g transform="translate(146.288059, 23.264064)"><g><path d="M 5.464844 -8.898438 C 5.652344 -8.914062 5.835938 -8.914062 6.003906 -8.929688 C 6.242188 -8.929688 6.492188 -8.929688 6.726562 -8.929688 C 7.25 -8.914062 7.769531 -8.929688 8.292969 -8.898438 C 8.542969 -8.898438 8.796875 -8.898438 9.03125 -8.882812 C 9.320312 -8.863281 9.605469 -8.882812 9.890625 -8.863281 C 10.460938 -8.847656 11.015625 -8.832031 11.574219 -8.832031 C 12.007812 -8.832031 12.429688 -8.847656 12.867188 -8.847656 C 13.976562 -8.882812 15.105469 -8.847656 16.214844 -8.882812 C 16.820312 -8.898438 17.441406 -8.882812 18.046875 -8.882812 C 18.082031 -8.882812 18.117188 -8.882812 18.148438 -8.882812 C 18.285156 -8.898438 18.417969 -8.914062 18.554688 -8.929688 C 18.722656 -8.929688 18.890625 -8.929688 19.074219 -8.949219 C 19.5625 -8.980469 20.050781 -8.964844 20.554688 -8.964844 C 20.570312 -8.964844 20.605469 -8.964844 20.636719 -8.964844 C 20.65625 -8.964844 20.671875 -8.964844 20.671875 -8.964844 C 20.839844 -8.980469 20.992188 -9 21.144531 -9.015625 C 21.160156 -9.015625 21.160156 -9.015625 21.175781 -9.03125 C 21.175781 -9.066406 21.175781 -9.082031 21.175781 -9.117188 C 21.175781 -9.269531 21.175781 -9.4375 21.175781 -9.585938 C 21.195312 -9.972656 21.175781 -10.34375 21.195312 -10.730469 C 21.210938 -11.035156 21.210938 -11.335938 21.226562 -11.640625 C 21.226562 -11.671875 21.226562 -11.691406 21.210938 -11.707031 C 21.210938 -11.722656 21.195312 -11.722656 21.195312 -11.722656 C 20.570312 -11.722656 19.964844 -11.722656 19.34375 -11.722656 C 19.328125 -11.722656 19.292969 -11.722656 19.277344 -11.707031 C 19.125 -11.691406 19.007812 -11.707031 18.871094 -11.722656 C 18.839844 -11.742188 18.789062 -11.742188 18.753906 -11.742188 C 18.382812 -11.742188 18.03125 -11.742188 17.660156 -11.742188 C 17.390625 -11.742188 17.105469 -11.742188 16.835938 -11.722656 C 16.214844 -11.707031 15.609375 -11.742188 15.003906 -11.691406 C 13.976562 -11.707031 12.953125 -11.671875 11.925781 -11.722656 C 11.773438 -11.722656 11.605469 -11.707031 11.453125 -11.707031 C 10.847656 -11.707031 10.226562 -11.707031 9.605469 -11.722656 C 9.585938 -11.722656 9.570312 -11.722656 9.554688 -11.722656 C 9.351562 -11.742188 9.167969 -11.757812 8.964844 -11.757812 C 8.796875 -11.773438 8.613281 -11.773438 8.445312 -11.742188 C 8.242188 -11.722656 8.023438 -11.722656 7.820312 -11.722656 C 7.332031 -11.707031 6.847656 -11.742188 6.359375 -11.707031 C 6.039062 -11.691406 5.71875 -11.707031 5.382812 -11.707031 C 5.011719 -11.742188 4.625 -11.707031 4.238281 -11.742188 C 4.105469 -11.742188 3.96875 -11.722656 3.851562 -11.722656 C 3.683594 -11.722656 3.515625 -11.742188 3.347656 -11.742188 C 3.128906 -11.742188 2.894531 -11.722656 2.675781 -11.722656 C 2.253906 -11.722656 1.851562 -11.722656 1.429688 -11.691406 C 1.394531 -11.691406 1.34375 -11.691406 1.3125 -11.65625 C 1.3125 -11.640625 1.3125 -11.605469 1.3125 -11.589844 C 1.261719 -11.371094 1.261719 -11.136719 1.246094 -10.917969 C 1.226562 -10.613281 1.246094 -10.3125 1.261719 -10.007812 C 1.277344 -9.554688 1.261719 -9.101562 1.261719 -8.628906 C 1.261719 -8.277344 1.277344 -7.921875 1.246094 -7.570312 C 1.226562 -7.367188 1.226562 -7.164062 1.226562 -6.980469 C 1.226562 -6.710938 1.210938 -6.425781 1.210938 -6.171875 C 1.195312 -5.804688 1.195312 -5.449219 1.175781 -5.097656 C 1.175781 -4.59375 1.175781 -4.085938 1.175781 -3.582031 C 1.175781 -3.128906 1.175781 -2.675781 1.175781 -2.203125 C 1.175781 -1.75 1.195312 -1.296875 1.195312 -0.824219 C 1.175781 -0.738281 1.195312 -0.640625 1.195312 -0.539062 C 1.195312 -0.371094 1.195312 -0.167969 1.195312 0.015625 C 1.195312 0.0351562 1.195312 0.0664062 1.195312 0.101562 C 1.246094 0.101562 1.277344 0.101562 1.3125 0.101562 C 1.445312 0.101562 1.582031 0.101562 1.714844 0.101562 C 1.765625 0.101562 1.816406 0.117188 1.867188 0.117188 C 2.035156 0.101562 2.1875 0.0859375 2.355469 0.0859375 C 2.742188 0.0859375 3.128906 0.101562 3.5 0.101562 C 3.800781 0.101562 4.085938 0.117188 4.390625 0.117188 C 4.792969 0.132812 5.179688 0.152344 5.566406 0.152344 C 6.089844 0.152344 6.59375 0.167969 7.097656 0.132812 C 7.25 0.117188 7.382812 0.117188 7.535156 0.132812 C 8.324219 0.132812 9.132812 0.117188 9.925781 0.132812 C 10.664062 0.167969 11.402344 0.152344 12.128906 0.152344 C 12.328125 0.152344 12.53125 0.152344 12.75 0.132812 C 12.902344 0.117188 13.050781 0.117188 13.203125 0.101562 C 13.40625 0.101562 13.609375 0.0859375 13.808594 0.0859375 C 14.449219 0.0859375 15.105469 0.0664062 15.742188 0.101562 C 16.230469 0.117188 16.71875 0.101562 17.207031 0.117188 C 17.527344 0.132812 17.863281 0.117188 18.199219 0.117188 C 18.234375 0.117188 18.265625 0.117188 18.300781 0.117188 C 18.535156 0.101562 18.773438 0.0859375 19.023438 0.0859375 C 19.882812 0.0664062 20.738281 0.0859375 21.597656 0.0859375 C 21.714844 0.0859375 21.816406 0.0859375 21.933594 0.0664062 C 21.949219 -0.0507812 21.96875 -0.183594 21.96875 -0.304688 C 21.96875 -0.570312 21.96875 -0.839844 21.949219 -1.109375 C 21.933594 -1.226562 21.933594 -1.363281 21.917969 -1.480469 C 21.917969 -1.53125 21.898438 -1.582031 21.898438 -1.632812 C 21.882812 -2 21.867188 -2.371094 21.851562 -2.757812 C 21.851562 -2.824219 21.832031 -2.875 21.765625 -2.910156 C 21.75 -2.910156 21.730469 -2.910156 21.730469 -2.910156 C 21.328125 -2.910156 20.90625 -2.925781 20.503906 -2.894531 C 20.25 -2.875 20 -2.875 19.746094 -2.875 C 19.714844 -2.859375 19.695312 -2.859375 19.664062 -2.859375 C 19.546875 -2.859375 19.445312 -2.859375 19.328125 -2.859375 C 19.191406 -2.859375 19.074219 -2.894531 18.941406 -2.894531 C 18.6875 -2.894531 18.453125 -2.894531 18.199219 -2.875 C 17.996094 -2.859375 17.777344 -2.859375 17.578125 -2.84375 C 17.558594 -2.84375 17.558594 -2.84375 17.542969 -2.84375 C 17.324219 -2.824219 17.125 -2.808594 16.90625 -2.808594 C 16.550781 -2.808594 16.199219 -2.808594 15.84375 -2.808594 C 15.121094 -2.808594 14.414062 -2.773438 13.707031 -2.824219 C 13.488281 -2.84375 13.269531 -2.84375 13.050781 -2.84375 C 12.566406 -2.859375 12.058594 -2.859375 11.554688 -2.859375 C 10.949219 -2.875 10.328125 -2.875 9.722656 -2.875 C 9.707031 -2.875 9.671875 -2.875 9.65625 -2.859375 C 9.4375 -2.859375 9.199219 -2.84375 8.980469 -2.824219 C 8.695312 -2.824219 8.410156 -2.824219 8.140625 -2.824219 C 7.332031 -2.824219 6.507812 -2.824219 5.703125 -2.859375 C 5.652344 -2.859375 5.601562 -2.859375 5.535156 -2.859375 C 5.5 -2.859375 5.464844 -2.859375 5.417969 -2.875 C 5.417969 -2.910156 5.417969 -2.945312 5.417969 -2.960938 C 5.433594 -3.0625 5.449219 -3.179688 5.433594 -3.28125 C 5.433594 -3.515625 5.449219 -3.75 5.433594 -3.988281 C 5.417969 -4.136719 5.433594 -4.304688 5.433594 -4.472656 C 5.433594 -4.472656 5.433594 -4.492188 5.449219 -4.507812 C 5.5 -4.507812 5.550781 -4.523438 5.617188 -4.523438 C 5.753906 -4.523438 5.886719 -4.523438 6.039062 -4.523438 C 6.289062 -4.542969 6.527344 -4.558594 6.777344 -4.558594 C 7.285156 -4.574219 7.804688 -4.574219 8.308594 -4.574219 C 9.269531 -4.558594 10.226562 -4.558594 11.167969 -4.542969 C 11.402344 -4.542969 11.621094 -4.558594 11.839844 -4.558594 C 12.277344 -4.558594 12.734375 -4.558594 13.171875 -4.574219 C 13.828125 -4.574219 14.480469 -4.558594 15.136719 -4.59375 C 15.523438 -4.609375 15.910156 -4.59375 16.300781 -4.609375 C 16.449219 -4.609375 16.617188 -4.625 16.785156 -4.640625 C 16.804688 -4.640625 16.820312 -4.640625 16.835938 -4.640625 C 16.921875 -4.660156 17.003906 -4.660156 17.105469 -4.640625 C 17.140625 -4.625 17.191406 -4.625 17.242188 -4.625 C 17.375 -4.660156 17.511719 -4.675781 17.660156 -4.691406 C 17.777344 -4.691406 17.898438 -4.710938 17.996094 -4.691406 C 18.199219 -4.660156 18.402344 -4.660156 18.585938 -4.660156 C 18.652344 -4.660156 18.722656 -4.660156 18.773438 -4.660156 C 18.941406 -4.675781 19.089844 -4.691406 19.257812 -4.691406 C 19.292969 -4.710938 19.308594 -4.710938 19.328125 -4.710938 C 19.34375 -4.761719 19.359375 -4.792969 19.359375 -4.828125 C 19.359375 -5.03125 19.378906 -5.214844 19.394531 -5.417969 C 19.394531 -5.585938 19.394531 -5.734375 19.410156 -5.902344 C 19.410156 -5.921875 19.410156 -5.9375 19.410156 -5.972656 C 19.425781 -6.105469 19.460938 -6.257812 19.460938 -6.410156 C 19.476562 -6.628906 19.476562 -6.828125 19.460938 -7.046875 C 19.460938 -7.132812 19.460938 -7.214844 19.410156 -7.300781 C 19.34375 -7.300781 19.277344 -7.300781 19.207031 -7.300781 C 19.125 -7.300781 19.039062 -7.300781 18.957031 -7.300781 C 18.773438 -7.316406 18.585938 -7.332031 18.402344 -7.332031 C 18.199219 -7.332031 18.015625 -7.332031 17.8125 -7.332031 C 17.628906 -7.300781 17.441406 -7.316406 17.273438 -7.316406 C 16.617188 -7.316406 15.960938 -7.332031 15.324219 -7.300781 C 15.003906 -7.285156 14.683594 -7.300781 14.363281 -7.285156 C 14.078125 -7.265625 13.808594 -7.265625 13.523438 -7.265625 C 12.3125 -7.265625 11.117188 -7.265625 9.90625 -7.265625 C 9.199219 -7.285156 8.476562 -7.265625 7.769531 -7.285156 C 7.046875 -7.316406 6.324219 -7.300781 5.617188 -7.300781 C 5.566406 -7.300781 5.535156 -7.300781 5.484375 -7.300781 C 5.484375 -7.839844 5.484375 -8.359375 5.464844 -8.898438 Z M 5.464844 -8.898438 "/></g></g></g><g fill="#ffffff" fill-opacity="1"><g transform="translate(169.431703, 23.264064)"><g><path d="M 17.171875 -3.785156 C 17.105469 -3.617188 17.003906 -3.464844 16.855469 -3.347656 C 16.769531 -3.261719 16.652344 -3.230469 16.550781 -3.179688 C 16.300781 -3.0625 16.03125 -2.945312 15.777344 -2.859375 C 15.625 -2.808594 15.492188 -2.757812 15.355469 -2.726562 C 15.089844 -2.675781 14.820312 -2.625 14.566406 -2.574219 C 14.464844 -2.558594 14.347656 -2.539062 14.265625 -2.523438 C 14.128906 -2.507812 13.996094 -2.507812 13.859375 -2.507812 C 13.84375 -2.507812 13.828125 -2.488281 13.808594 -2.488281 C 13.707031 -2.472656 13.589844 -2.457031 13.488281 -2.4375 C 13.355469 -2.421875 13.238281 -2.4375 13.121094 -2.421875 C 12.984375 -2.386719 12.851562 -2.386719 12.714844 -2.386719 C 12.277344 -2.386719 11.824219 -2.386719 11.386719 -2.371094 C 10.796875 -2.371094 10.226562 -2.355469 9.636719 -2.386719 C 9.519531 -2.40625 9.386719 -2.386719 9.269531 -2.386719 C 9.199219 -2.386719 9.132812 -2.386719 9.082031 -2.386719 C 8.929688 -2.40625 8.796875 -2.421875 8.644531 -2.4375 C 8.628906 -2.4375 8.613281 -2.4375 8.59375 -2.4375 C 8.496094 -2.457031 8.394531 -2.472656 8.308594 -2.488281 C 8.207031 -2.488281 8.109375 -2.507812 8.007812 -2.523438 C 7.871094 -2.539062 7.71875 -2.574219 7.585938 -2.589844 C 7.519531 -2.589844 7.453125 -2.605469 7.382812 -2.605469 C 7.25 -2.625 7.113281 -2.625 6.980469 -2.640625 C 6.777344 -2.640625 6.59375 -2.691406 6.410156 -2.707031 C 6.273438 -2.742188 6.15625 -2.792969 6.023438 -2.808594 C 5.734375 -2.859375 5.449219 -2.910156 5.164062 -2.976562 C 4.929688 -3.011719 4.691406 -3.0625 4.457031 -3.113281 C 4.253906 -3.164062 4.035156 -3.210938 3.835938 -3.261719 C 3.667969 -3.3125 3.480469 -3.363281 3.3125 -3.414062 C 3.195312 -3.429688 3.09375 -3.464844 2.976562 -3.515625 C 2.960938 -3.5 2.960938 -3.480469 2.945312 -3.464844 C 2.808594 -3.246094 2.65625 -3.027344 2.523438 -2.792969 C 2.457031 -2.65625 2.355469 -2.523438 2.269531 -2.386719 C 2.21875 -2.304688 2.152344 -2.238281 2.101562 -2.152344 C 1.867188 -1.816406 1.648438 -1.480469 1.445312 -1.128906 C 1.429688 -1.078125 1.394531 -1.042969 1.394531 -0.976562 C 1.445312 -0.925781 1.515625 -0.890625 1.582031 -0.859375 C 1.75 -0.789062 1.902344 -0.722656 2.070312 -0.65625 C 2.1875 -0.605469 2.320312 -0.570312 2.4375 -0.539062 C 2.558594 -0.503906 2.675781 -0.488281 2.792969 -0.453125 C 2.894531 -0.402344 2.992188 -0.371094 3.09375 -0.335938 C 3.261719 -0.285156 3.429688 -0.269531 3.597656 -0.234375 C 3.71875 -0.21875 3.851562 -0.203125 3.96875 -0.183594 C 4.070312 -0.167969 4.171875 -0.152344 4.273438 -0.132812 C 4.355469 -0.117188 4.457031 -0.101562 4.523438 -0.101562 C 4.640625 -0.0664062 4.761719 -0.0507812 4.859375 -0.0351562 C 4.980469 -0.015625 5.097656 0 5.214844 0.015625 C 5.417969 0.0664062 5.601562 0.101562 5.785156 0.117188 C 5.871094 0.132812 5.972656 0.132812 6.054688 0.152344 C 6.15625 0.167969 6.257812 0.183594 6.375 0.203125 C 6.507812 0.21875 6.644531 0.234375 6.777344 0.253906 C 6.828125 0.253906 6.878906 0.269531 6.914062 0.269531 C 6.996094 0.285156 7.082031 0.285156 7.164062 0.304688 C 7.316406 0.320312 7.484375 0.351562 7.636719 0.371094 C 7.71875 0.371094 7.804688 0.386719 7.871094 0.402344 C 8.023438 0.4375 8.175781 0.453125 8.324219 0.453125 C 8.476562 0.453125 8.628906 0.472656 8.761719 0.472656 C 8.78125 0.472656 8.796875 0.472656 8.796875 0.472656 C 8.914062 0.488281 9.03125 0.503906 9.148438 0.519531 C 9.417969 0.519531 9.671875 0.503906 9.925781 0.539062 C 10.175781 0.554688 10.429688 0.554688 10.679688 0.570312 C 10.867188 0.589844 11.066406 0.605469 11.253906 0.605469 C 11.910156 0.605469 12.566406 0.605469 13.222656 0.605469 C 13.339844 0.605469 13.457031 0.589844 13.558594 0.570312 C 13.707031 0.570312 13.84375 0.554688 13.976562 0.539062 C 14.078125 0.519531 14.195312 0.503906 14.296875 0.503906 C 14.414062 0.488281 14.550781 0.472656 14.667969 0.453125 C 14.785156 0.4375 14.902344 0.4375 15.019531 0.421875 C 15.039062 0.421875 15.054688 0.421875 15.070312 0.421875 C 15.1875 0.402344 15.304688 0.386719 15.425781 0.351562 C 15.59375 0.320312 15.761719 0.304688 15.910156 0.253906 C 16.148438 0.167969 16.398438 0.101562 16.652344 0.0351562 C 16.835938 -0.015625 17.003906 -0.0664062 17.191406 -0.152344 C 17.308594 -0.203125 17.460938 -0.253906 17.578125 -0.304688 C 17.628906 -0.320312 17.660156 -0.335938 17.695312 -0.335938 C 17.777344 -0.320312 17.828125 -0.351562 17.898438 -0.386719 C 17.949219 -0.421875 17.996094 -0.4375 18.03125 -0.453125 C 18.082031 -0.488281 18.132812 -0.503906 18.183594 -0.503906 C 18.300781 -0.519531 18.402344 -0.589844 18.503906 -0.671875 C 18.601562 -0.738281 18.703125 -0.789062 18.820312 -0.839844 C 19.089844 -0.910156 19.359375 -1.027344 19.578125 -1.210938 C 19.679688 -1.277344 19.78125 -1.363281 19.882812 -1.429688 C 20.167969 -1.613281 20.421875 -1.816406 20.636719 -2.035156 C 20.722656 -2.121094 20.789062 -2.203125 20.875 -2.269531 C 20.957031 -2.355469 21.027344 -2.457031 21.074219 -2.558594 C 21.144531 -2.640625 21.175781 -2.742188 21.210938 -2.84375 C 21.261719 -3.042969 21.3125 -3.246094 21.34375 -3.449219 C 21.363281 -3.597656 21.34375 -3.75 21.34375 -3.902344 C 21.328125 -4.035156 21.277344 -4.171875 21.277344 -4.304688 C 21.277344 -4.375 21.261719 -4.457031 21.261719 -4.507812 C 21.226562 -4.675781 21.160156 -4.828125 21.144531 -4.980469 C 21.109375 -5.148438 21.042969 -5.296875 20.992188 -5.449219 C 20.941406 -5.550781 20.875 -5.652344 20.789062 -5.71875 C 20.65625 -5.851562 20.519531 -5.988281 20.386719 -6.140625 C 20.351562 -6.15625 20.320312 -6.191406 20.285156 -6.207031 C 20.152344 -6.308594 20 -6.375 19.847656 -6.460938 C 19.5625 -6.59375 19.242188 -6.675781 18.941406 -6.746094 C 18.789062 -6.777344 18.636719 -6.796875 18.484375 -6.8125 C 18.300781 -6.847656 18.132812 -6.878906 17.949219 -6.894531 C 17.796875 -6.929688 17.660156 -6.929688 17.511719 -6.945312 C 17.324219 -6.980469 17.140625 -7.015625 16.953125 -7.015625 C 16.855469 -7.03125 16.753906 -7.03125 16.667969 -7.046875 C 16.449219 -7.066406 16.230469 -7.113281 16.011719 -7.132812 C 15.945312 -7.132812 15.863281 -7.148438 15.792969 -7.148438 C 15.660156 -7.164062 15.542969 -7.183594 15.40625 -7.199219 C 15.238281 -7.199219 15.070312 -7.199219 14.886719 -7.214844 C 14.652344 -7.234375 14.398438 -7.234375 14.164062 -7.234375 C 13.320312 -7.265625 12.496094 -7.214844 11.65625 -7.25 C 11.402344 -7.265625 11.152344 -7.285156 10.917969 -7.300781 C 10.699219 -7.332031 10.480469 -7.332031 10.261719 -7.351562 C 10.023438 -7.351562 9.773438 -7.351562 9.539062 -7.382812 C 9.386719 -7.417969 9.234375 -7.417969 9.082031 -7.417969 C 8.796875 -7.417969 8.527344 -7.417969 8.242188 -7.417969 C 8.191406 -7.417969 8.140625 -7.417969 8.089844 -7.417969 C 7.90625 -7.433594 7.738281 -7.453125 7.550781 -7.453125 C 7.265625 -7.46875 6.996094 -7.453125 6.710938 -7.46875 C 6.628906 -7.46875 6.527344 -7.484375 6.425781 -7.5 C 6.324219 -7.519531 6.222656 -7.535156 6.105469 -7.550781 C 5.902344 -7.570312 5.71875 -7.671875 5.550781 -7.789062 C 5.550781 -7.871094 5.550781 -7.9375 5.550781 -8.007812 C 5.550781 -8.074219 5.585938 -8.140625 5.652344 -8.191406 C 5.753906 -8.277344 5.851562 -8.34375 5.988281 -8.375 C 6.121094 -8.425781 6.257812 -8.460938 6.390625 -8.496094 C 6.660156 -8.542969 6.914062 -8.628906 7.164062 -8.679688 C 7.484375 -8.714844 7.789062 -8.796875 8.089844 -8.832031 C 8.175781 -8.847656 8.257812 -8.863281 8.34375 -8.882812 C 8.578125 -8.929688 8.8125 -8.949219 9.03125 -9 C 9.335938 -9.066406 9.636719 -9.101562 9.925781 -9.148438 C 10.007812 -9.167969 10.074219 -9.167969 10.144531 -9.183594 C 10.191406 -9.183594 10.261719 -9.183594 10.3125 -9.183594 C 10.394531 -9.199219 10.480469 -9.21875 10.578125 -9.21875 C 10.75 -9.234375 10.898438 -9.234375 11.066406 -9.25 C 11.066406 -9.25 11.085938 -9.25 11.085938 -9.25 C 11.234375 -9.269531 11.386719 -9.285156 11.554688 -9.285156 C 11.839844 -9.285156 12.144531 -9.269531 12.429688 -9.269531 C 12.53125 -9.269531 12.632812 -9.25 12.714844 -9.234375 C 12.902344 -9.199219 13.070312 -9.167969 13.253906 -9.183594 C 13.507812 -9.183594 13.742188 -9.183594 13.996094 -9.183594 C 14.144531 -9.167969 14.296875 -9.148438 14.464844 -9.148438 C 14.464844 -9.148438 14.464844 -9.148438 14.480469 -9.148438 C 14.617188 -9.132812 14.75 -9.101562 14.886719 -9.101562 C 14.917969 -9.117188 14.9375 -9.101562 14.96875 -9.101562 C 15.105469 -9.066406 15.238281 -9.050781 15.355469 -9.015625 C 15.523438 -9 15.675781 -9 15.828125 -8.980469 C 15.910156 -8.964844 15.996094 -8.964844 16.097656 -8.949219 C 16.300781 -8.898438 16.519531 -8.847656 16.71875 -8.796875 C 16.886719 -8.761719 17.039062 -8.714844 17.207031 -8.679688 C 17.292969 -8.664062 17.390625 -8.664062 17.476562 -8.644531 C 17.558594 -8.628906 17.660156 -8.628906 17.746094 -8.613281 C 17.980469 -8.542969 18.214844 -8.496094 18.453125 -8.410156 C 18.585938 -8.359375 18.738281 -8.308594 18.871094 -8.242188 C 18.972656 -8.191406 19.089844 -8.175781 19.191406 -8.109375 C 19.207031 -8.089844 19.242188 -8.074219 19.277344 -8.058594 C 19.34375 -8.140625 19.410156 -8.226562 19.460938 -8.324219 C 19.476562 -8.375 19.511719 -8.445312 19.546875 -8.496094 C 19.679688 -8.714844 19.8125 -8.929688 19.949219 -9.148438 C 20.066406 -9.351562 20.183594 -9.570312 20.320312 -9.773438 C 20.421875 -9.957031 20.539062 -10.144531 20.65625 -10.34375 C 20.722656 -10.445312 20.789062 -10.546875 20.839844 -10.664062 C 20.808594 -10.679688 20.789062 -10.699219 20.757812 -10.699219 C 20.671875 -10.730469 20.589844 -10.75 20.488281 -10.78125 C 20.335938 -10.832031 20.183594 -10.882812 20.015625 -10.933594 C 19.796875 -10.984375 19.578125 -11.035156 19.359375 -11.085938 C 19.308594 -11.101562 19.277344 -11.101562 19.226562 -11.101562 C 19.160156 -11.117188 19.074219 -11.136719 18.988281 -11.152344 C 18.789062 -11.203125 18.570312 -11.253906 18.367188 -11.304688 C 18.148438 -11.355469 17.949219 -11.386719 17.730469 -11.4375 C 17.59375 -11.472656 17.441406 -11.488281 17.308594 -11.503906 C 17.191406 -11.523438 17.089844 -11.539062 16.988281 -11.554688 C 16.871094 -11.574219 16.769531 -11.589844 16.652344 -11.589844 C 16.550781 -11.605469 16.46875 -11.589844 16.347656 -11.605469 C 16.25 -11.605469 16.128906 -11.621094 16.011719 -11.640625 C 15.863281 -11.65625 15.710938 -11.671875 15.574219 -11.691406 C 15.339844 -11.722656 15.105469 -11.808594 14.871094 -11.824219 C 14.667969 -11.839844 14.480469 -11.890625 14.296875 -11.890625 C 14.28125 -11.890625 14.265625 -11.890625 14.246094 -11.890625 C 14.113281 -11.925781 13.996094 -11.941406 13.859375 -11.925781 C 13.808594 -11.925781 13.757812 -11.941406 13.707031 -11.941406 C 13.558594 -11.960938 13.421875 -12.007812 13.269531 -12.007812 C 13.171875 -11.992188 13.070312 -12.007812 12.984375 -12.027344 C 12.832031 -12.027344 12.683594 -12.042969 12.546875 -12.058594 C 12.515625 -12.058594 12.496094 -12.058594 12.480469 -12.058594 C 12.296875 -12.078125 12.109375 -12.109375 11.941406 -12.109375 C 11.234375 -12.109375 10.53125 -12.144531 9.839844 -12.09375 C 9.6875 -12.078125 9.539062 -12.042969 9.386719 -12.027344 C 9.25 -12.007812 9.132812 -11.976562 9 -11.976562 C 8.796875 -11.976562 8.59375 -11.941406 8.394531 -11.925781 C 8.226562 -11.910156 8.058594 -11.890625 7.890625 -11.859375 C 7.769531 -11.859375 7.671875 -11.839844 7.570312 -11.824219 C 7.484375 -11.808594 7.402344 -11.792969 7.316406 -11.773438 C 7.265625 -11.757812 7.199219 -11.757812 7.148438 -11.742188 C 6.914062 -11.707031 6.695312 -11.640625 6.476562 -11.589844 C 6.375 -11.554688 6.273438 -11.539062 6.171875 -11.539062 C 6.039062 -11.503906 5.902344 -11.503906 5.753906 -11.472656 C 5.585938 -11.453125 5.417969 -11.402344 5.230469 -11.371094 C 5.113281 -11.355469 5.011719 -11.335938 4.910156 -11.304688 C 4.558594 -11.21875 4.253906 -11.101562 3.9375 -10.933594 C 3.902344 -10.917969 3.867188 -10.898438 3.835938 -10.882812 C 3.699219 -10.832031 3.550781 -10.78125 3.429688 -10.714844 C 3.261719 -10.613281 3.09375 -10.496094 2.925781 -10.378906 C 2.808594 -10.3125 2.65625 -10.226562 2.539062 -10.144531 C 2.371094 -10.023438 2.21875 -9.90625 2.070312 -9.789062 C 1.984375 -9.707031 1.902344 -9.621094 1.816406 -9.539062 C 1.765625 -9.46875 1.714844 -9.417969 1.664062 -9.351562 C 1.597656 -9.25 1.496094 -9.132812 1.429688 -9.015625 C 1.296875 -8.761719 1.226562 -8.496094 1.195312 -8.226562 C 1.175781 -7.988281 1.175781 -7.738281 1.246094 -7.5 C 1.261719 -7.453125 1.277344 -7.382812 1.296875 -7.316406 C 1.34375 -7.046875 1.480469 -6.8125 1.648438 -6.59375 C 1.714844 -6.492188 1.78125 -6.410156 1.867188 -6.308594 C 2 -6.171875 2.136719 -6.023438 2.304688 -5.921875 C 2.386719 -5.871094 2.472656 -5.804688 2.558594 -5.753906 C 2.675781 -5.667969 2.792969 -5.601562 2.925781 -5.535156 C 3.128906 -5.433594 3.332031 -5.332031 3.550781 -5.246094 C 3.699219 -5.199219 3.851562 -5.164062 4.003906 -5.128906 C 4.070312 -5.113281 4.15625 -5.113281 4.238281 -5.078125 C 4.355469 -5.03125 4.507812 -5.011719 4.640625 -4.980469 C 4.675781 -4.960938 4.710938 -4.960938 4.742188 -4.945312 C 4.828125 -4.945312 4.929688 -4.945312 5.03125 -4.929688 C 5.0625 -4.929688 5.097656 -4.910156 5.128906 -4.910156 C 5.28125 -4.910156 5.417969 -4.894531 5.550781 -4.859375 C 5.71875 -4.828125 5.886719 -4.8125 6.039062 -4.777344 C 6.222656 -4.761719 6.375 -4.726562 6.558594 -4.726562 C 6.777344 -4.726562 7.015625 -4.726562 7.25 -4.726562 C 7.285156 -4.726562 7.300781 -4.726562 7.332031 -4.726562 C 7.5 -4.710938 7.671875 -4.691406 7.820312 -4.691406 C 7.988281 -4.691406 8.15625 -4.691406 8.34375 -4.710938 C 8.511719 -4.710938 8.679688 -4.691406 8.847656 -4.691406 C 9.285156 -4.675781 9.722656 -4.691406 10.175781 -4.660156 C 10.378906 -4.660156 10.597656 -4.660156 10.816406 -4.640625 C 10.984375 -4.625 11.136719 -4.640625 11.304688 -4.625 C 11.453125 -4.609375 11.605469 -4.609375 11.757812 -4.59375 C 11.960938 -4.59375 12.144531 -4.59375 12.347656 -4.59375 C 12.363281 -4.59375 12.398438 -4.59375 12.414062 -4.59375 C 12.582031 -4.574219 12.734375 -4.558594 12.902344 -4.558594 C 13.101562 -4.542969 13.304688 -4.558594 13.507812 -4.558594 C 13.726562 -4.542969 13.925781 -4.542969 14.128906 -4.523438 C 14.164062 -4.523438 14.214844 -4.542969 14.246094 -4.523438 C 14.414062 -4.472656 14.601562 -4.472656 14.785156 -4.441406 C 14.96875 -4.421875 15.171875 -4.421875 15.355469 -4.421875 C 15.476562 -4.421875 15.59375 -4.421875 15.710938 -4.421875 C 15.863281 -4.40625 16.011719 -4.390625 16.164062 -4.375 C 16.179688 -4.375 16.199219 -4.375 16.214844 -4.355469 C 16.449219 -4.304688 16.667969 -4.222656 16.886719 -4.105469 C 16.953125 -4.070312 17.023438 -4.019531 17.089844 -3.988281 C 17.105469 -3.96875 17.125 -3.9375 17.140625 -3.902344 C 17.15625 -3.867188 17.15625 -3.835938 17.171875 -3.785156 Z M 17.171875 -3.785156 "/></g></g></g><g fill="#ffffff" fill-opacity="1"><g transform="translate(191.96984, 23.264064)"><g><path d="M 20 -11.671875 C 19.898438 -11.691406 19.78125 -11.691406 19.664062 -11.707031 C 19.613281 -11.707031 19.5625 -11.707031 19.511719 -11.707031 C 19.445312 -11.707031 19.394531 -11.722656 19.328125 -11.722656 C 19.207031 -11.722656 19.089844 -11.707031 18.957031 -11.707031 C 18.6875 -11.707031 18.402344 -11.707031 18.132812 -11.691406 C 17.863281 -11.671875 17.59375 -11.671875 17.324219 -11.671875 C 16.871094 -11.65625 16.433594 -11.65625 15.980469 -11.65625 C 15.945312 -11.65625 15.894531 -11.671875 15.863281 -11.671875 C 15.726562 -11.691406 15.59375 -11.691406 15.441406 -11.707031 C 15.441406 -11.707031 15.425781 -11.691406 15.390625 -11.691406 C 15.339844 -11.691406 15.289062 -11.691406 15.238281 -11.691406 C 15.171875 -11.691406 15.105469 -11.707031 15.039062 -11.707031 C 14.917969 -11.707031 14.785156 -11.691406 14.652344 -11.691406 C 14.195312 -11.691406 13.726562 -11.691406 13.269531 -11.707031 C 12.632812 -11.707031 11.992188 -11.722656 11.355469 -11.691406 C 11 -11.671875 10.664062 -11.691406 10.3125 -11.671875 C 10.109375 -11.65625 9.90625 -11.691406 9.707031 -11.691406 C 9.570312 -11.691406 9.417969 -11.671875 9.285156 -11.671875 C 9.21875 -11.671875 9.132812 -11.65625 9.066406 -11.671875 C 8.949219 -11.691406 8.832031 -11.691406 8.695312 -11.671875 C 8.664062 -11.671875 8.628906 -11.671875 8.59375 -11.671875 C 8.511719 -11.671875 8.445312 -11.691406 8.359375 -11.691406 C 7.9375 -11.691406 7.519531 -11.691406 7.082031 -11.691406 C 6.8125 -11.691406 6.542969 -11.671875 6.257812 -11.707031 C 6.15625 -11.707031 6.039062 -11.707031 5.9375 -11.707031 C 5.28125 -11.707031 4.640625 -11.722656 3.988281 -11.691406 C 3.617188 -11.671875 3.261719 -11.671875 2.894531 -11.671875 C 2.824219 -11.671875 2.757812 -11.691406 2.691406 -11.691406 C 2.574219 -11.691406 2.457031 -11.671875 2.339844 -11.671875 C 2.121094 -11.65625 1.902344 -11.65625 1.699219 -11.640625 C 1.5625 -11.640625 1.445312 -11.640625 1.3125 -11.640625 C 1.277344 -11.640625 1.246094 -11.640625 1.195312 -11.640625 C 1.195312 -11.503906 1.175781 -11.371094 1.195312 -11.253906 C 1.226562 -11.085938 1.210938 -10.898438 1.246094 -10.730469 C 1.246094 -10.210938 1.246094 -9.671875 1.246094 -9.148438 C 1.246094 -9.117188 1.226562 -9.082031 1.226562 -9.050781 C 1.226562 -8.980469 1.210938 -8.914062 1.226562 -8.847656 C 1.597656 -8.832031 1.96875 -8.847656 2.320312 -8.832031 C 2.472656 -8.8125 2.605469 -8.832031 2.742188 -8.847656 C 2.910156 -8.863281 3.078125 -8.882812 3.230469 -8.882812 C 3.632812 -8.882812 4.035156 -8.898438 4.441406 -8.863281 C 4.675781 -8.847656 4.910156 -8.847656 5.148438 -8.847656 C 5.804688 -8.832031 6.441406 -8.863281 7.082031 -8.832031 C 7.519531 -8.8125 7.957031 -8.8125 8.394531 -8.796875 C 8.425781 -8.796875 8.476562 -8.796875 8.511719 -8.796875 C 8.542969 -8.796875 8.5625 -8.796875 8.59375 -8.796875 C 8.59375 -8.746094 8.59375 -8.714844 8.59375 -8.679688 C 8.59375 -8.628906 8.578125 -8.578125 8.578125 -8.542969 C 8.578125 -8.292969 8.578125 -8.039062 8.578125 -7.789062 C 8.578125 -7.753906 8.578125 -7.703125 8.578125 -7.671875 C 8.59375 -7.46875 8.613281 -7.25 8.613281 -7.046875 C 8.628906 -6.242188 8.628906 -5.449219 8.628906 -4.640625 C 8.613281 -3.480469 8.628906 -2.320312 8.59375 -1.175781 C 8.59375 -0.808594 8.59375 -0.453125 8.59375 -0.0859375 C 8.59375 -0.0351562 8.59375 0 8.59375 0.0507812 C 8.628906 0.0507812 8.644531 0.0664062 8.664062 0.0664062 C 8.746094 0.0664062 8.847656 0.0664062 8.929688 0.0507812 C 9.101562 0.0351562 9.269531 0.0351562 9.4375 0.0351562 C 10.160156 0.0351562 10.867188 0.0351562 11.574219 0.0351562 C 11.910156 0.0351562 12.246094 0.0351562 12.582031 0.0351562 C 12.664062 0.0351562 12.734375 0.015625 12.816406 0.015625 C 12.816406 0 12.816406 -0.015625 12.816406 -0.015625 C 12.800781 -0.472656 12.832031 -0.925781 12.800781 -1.378906 C 12.785156 -1.734375 12.816406 -2.070312 12.785156 -2.386719 C 12.785156 -2.910156 12.765625 -3.414062 12.800781 -3.917969 C 12.816406 -4.273438 12.800781 -4.625 12.816406 -4.996094 C 12.832031 -5.347656 12.816406 -5.703125 12.816406 -6.054688 C 12.816406 -6.59375 12.832031 -7.113281 12.800781 -7.652344 C 12.785156 -7.839844 12.800781 -8.039062 12.800781 -8.242188 C 12.800781 -8.277344 12.800781 -8.308594 12.800781 -8.34375 C 12.75 -8.496094 12.785156 -8.644531 12.765625 -8.8125 C 12.851562 -8.832031 12.917969 -8.832031 13.003906 -8.832031 C 13.253906 -8.832031 13.507812 -8.847656 13.777344 -8.832031 C 14.011719 -8.8125 14.230469 -8.832031 14.464844 -8.832031 C 14.800781 -8.863281 15.15625 -8.832031 15.492188 -8.863281 C 15.644531 -8.882812 15.792969 -8.882812 15.960938 -8.882812 C 16.214844 -8.898438 16.46875 -8.898438 16.71875 -8.898438 C 17.207031 -8.898438 17.695312 -8.898438 18.183594 -8.898438 C 18.753906 -8.882812 19.308594 -8.882812 19.863281 -8.882812 C 19.949219 -8.882812 20.03125 -8.882812 20.132812 -8.898438 C 20.152344 -8.949219 20.152344 -8.980469 20.167969 -9.050781 C 20.203125 -9.148438 20.21875 -9.285156 20.21875 -9.402344 C 20.234375 -9.707031 20.21875 -9.992188 20.234375 -10.292969 C 20.269531 -10.5625 20.269531 -10.832031 20.269531 -11.101562 C 20.269531 -11.269531 20.25 -11.4375 20.234375 -11.605469 C 20.234375 -11.621094 20.234375 -11.65625 20.234375 -11.691406 C 20.167969 -11.691406 20.101562 -11.671875 20 -11.671875 Z M 20 -11.671875 "/></g></g></g><g fill="#ffffff" fill-opacity="1"><g transform="translate(213.414704, 23.264064)"><g><path d="M 5.382812 -11.773438 C 5.214844 -11.773438 5.078125 -11.773438 4.929688 -11.773438 C 4.777344 -11.757812 4.625 -11.773438 4.472656 -11.742188 C 4.304688 -11.722656 4.136719 -11.722656 3.953125 -11.722656 C 3.429688 -11.707031 2.910156 -11.722656 2.371094 -11.707031 C 2.152344 -11.691406 1.933594 -11.707031 1.714844 -11.707031 C 1.683594 -11.707031 1.664062 -11.691406 1.648438 -11.691406 C 1.597656 -11.691406 1.53125 -11.691406 1.480469 -11.671875 C 1.414062 -11.671875 1.34375 -11.671875 1.261719 -11.671875 C 1.261719 -11.621094 1.246094 -11.589844 1.246094 -11.554688 C 1.246094 -11.4375 1.246094 -11.304688 1.246094 -11.1875 C 1.246094 -10.847656 1.246094 -10.511719 1.246094 -10.175781 C 1.246094 -9.941406 1.277344 -9.6875 1.277344 -9.453125 C 1.277344 -9.101562 1.261719 -8.730469 1.261719 -8.359375 C 1.246094 -7.804688 1.246094 -7.25 1.261719 -6.675781 C 1.277344 -6.558594 1.246094 -6.441406 1.246094 -6.324219 C 1.246094 -5.886719 1.261719 -5.449219 1.226562 -4.996094 C 1.210938 -4.894531 1.210938 -4.777344 1.210938 -4.660156 C 1.210938 -4.640625 1.210938 -4.625 1.210938 -4.609375 C 1.210938 -4.507812 1.226562 -4.40625 1.226562 -4.304688 C 1.226562 -3.800781 1.226562 -3.28125 1.226562 -2.757812 C 1.226562 -2.574219 1.226562 -2.386719 1.246094 -2.203125 C 1.261719 -2.050781 1.246094 -1.902344 1.226562 -1.75 C 1.210938 -1.597656 1.226562 -1.429688 1.226562 -1.277344 C 1.226562 -1.246094 1.226562 -1.210938 1.226562 -1.160156 C 1.210938 -1.027344 1.195312 -0.890625 1.195312 -0.738281 C 1.175781 -0.488281 1.175781 -0.253906 1.175781 0 C 1.175781 0.015625 1.175781 0.0507812 1.195312 0.0859375 C 1.226562 0.0859375 1.261719 0.0859375 1.296875 0.0859375 C 1.445312 0.0664062 1.613281 0.0664062 1.765625 0.0664062 C 2.101562 0.0507812 2.421875 0.0664062 2.757812 0.0664062 C 2.792969 0.0664062 2.808594 0.0664062 2.84375 0.0664062 C 3.09375 0.101562 3.347656 0.0664062 3.597656 0.0507812 C 3.785156 0.0351562 3.96875 0.0351562 4.15625 0.0507812 C 4.339844 0.0507812 4.542969 0.0664062 4.726562 0.0664062 C 4.910156 0.0859375 5.078125 0.0664062 5.246094 0.0507812 C 5.28125 0.0507812 5.296875 0.0507812 5.332031 0.0507812 C 5.332031 -0.0859375 5.347656 -0.21875 5.347656 -0.371094 C 5.367188 -0.859375 5.367188 -1.34375 5.382812 -1.832031 C 5.398438 -2.605469 5.367188 -3.363281 5.398438 -4.136719 C 5.417969 -4.375 5.417969 -4.609375 5.417969 -4.859375 C 5.449219 -5.398438 5.417969 -5.9375 5.449219 -6.476562 C 5.464844 -6.777344 5.449219 -7.066406 5.433594 -7.367188 C 5.417969 -7.703125 5.433594 -8.039062 5.449219 -8.375 C 5.449219 -8.761719 5.449219 -9.148438 5.449219 -9.539062 C 5.449219 -9.570312 5.449219 -9.605469 5.449219 -9.621094 C 5.433594 -9.824219 5.417969 -10.023438 5.398438 -10.210938 C 5.398438 -10.679688 5.398438 -11.136719 5.398438 -11.605469 C 5.398438 -11.65625 5.398438 -11.707031 5.382812 -11.773438 Z M 5.382812 -11.773438 "/></g></g></g><g fill="#ffffff" fill-opacity="1"><g transform="translate(220.058412, 23.264064)"><g><path d="M 1.261719 -11.691406 C 1.261719 -11.65625 1.261719 -11.621094 1.261719 -11.589844 C 1.261719 -11.453125 1.261719 -11.304688 1.277344 -11.167969 C 1.296875 -11.050781 1.296875 -10.917969 1.3125 -10.78125 C 1.3125 -10.765625 1.3125 -10.75 1.3125 -10.730469 C 1.296875 -10.5625 1.277344 -10.410156 1.261719 -10.242188 C 1.261719 -9.855469 1.261719 -9.453125 1.261719 -9.066406 C 1.261719 -8.59375 1.277344 -8.109375 1.246094 -7.621094 C 1.226562 -7.433594 1.226562 -7.25 1.226562 -7.046875 C 1.210938 -6.609375 1.195312 -6.171875 1.195312 -5.734375 C 1.195312 -5.367188 1.210938 -4.996094 1.210938 -4.625 C 1.226562 -3.734375 1.226562 -2.824219 1.226562 -1.933594 C 1.226562 -1.902344 1.226562 -1.867188 1.210938 -1.832031 C 1.195312 -1.683594 1.175781 -1.53125 1.175781 -1.363281 C 1.175781 -0.957031 1.175781 -0.539062 1.175781 -0.132812 C 1.175781 -0.0507812 1.195312 0.0507812 1.210938 0.152344 C 1.414062 0.152344 1.613281 0.132812 1.816406 0.132812 C 2.050781 0.132812 2.289062 0.132812 2.523438 0.117188 C 2.859375 0.101562 3.195312 0.101562 3.550781 0.0859375 C 4.070312 0.0859375 4.59375 0.0859375 5.113281 0.0859375 C 5.214844 0.0859375 5.316406 0.0664062 5.417969 0.0664062 C 5.417969 0.0351562 5.417969 0 5.417969 -0.015625 C 5.433594 -0.824219 5.417969 -1.613281 5.433594 -2.40625 C 5.464844 -3.210938 5.433594 -4.019531 5.433594 -4.828125 C 5.449219 -4.945312 5.449219 -5.078125 5.464844 -5.214844 C 5.484375 -5.382812 5.484375 -5.566406 5.484375 -5.734375 C 5.484375 -6.324219 5.484375 -6.929688 5.484375 -7.519531 C 5.484375 -7.550781 5.484375 -7.601562 5.464844 -7.636719 C 5.464844 -7.71875 5.464844 -7.804688 5.464844 -7.890625 C 5.515625 -7.855469 5.566406 -7.839844 5.617188 -7.820312 C 5.851562 -7.6875 6.070312 -7.535156 6.308594 -7.382812 C 6.507812 -7.234375 6.710938 -7.082031 6.914062 -6.929688 C 7.046875 -6.847656 7.183594 -6.761719 7.316406 -6.675781 C 7.46875 -6.59375 7.621094 -6.507812 7.769531 -6.425781 C 7.972656 -6.289062 8.175781 -6.171875 8.359375 -6.023438 C 8.410156 -5.988281 8.460938 -5.9375 8.511719 -5.902344 C 8.714844 -5.769531 8.914062 -5.652344 9.117188 -5.515625 C 9.234375 -5.449219 9.335938 -5.367188 9.4375 -5.296875 C 9.554688 -5.230469 9.671875 -5.148438 9.789062 -5.078125 C 9.925781 -4.980469 10.074219 -4.859375 10.226562 -4.761719 C 10.363281 -4.660156 10.511719 -4.574219 10.664062 -4.472656 C 10.949219 -4.273438 11.253906 -4.085938 11.523438 -3.867188 C 11.65625 -3.75 11.792969 -3.648438 11.925781 -3.53125 C 11.976562 -3.480469 12.042969 -3.429688 12.109375 -3.398438 C 12.195312 -3.332031 12.277344 -3.28125 12.363281 -3.210938 C 12.566406 -3.09375 12.765625 -2.960938 12.953125 -2.824219 C 13.171875 -2.707031 13.390625 -2.574219 13.609375 -2.457031 C 13.640625 -2.4375 13.675781 -2.421875 13.707031 -2.386719 C 13.808594 -2.339844 13.910156 -2.269531 13.996094 -2.203125 C 14.128906 -2.121094 14.265625 -2.035156 14.382812 -1.933594 C 14.566406 -1.816406 14.75 -1.664062 14.953125 -1.546875 C 15.121094 -1.464844 15.273438 -1.363281 15.425781 -1.246094 C 15.542969 -1.144531 15.675781 -1.058594 15.8125 -0.976562 C 15.980469 -0.875 16.148438 -0.789062 16.300781 -0.691406 C 16.550781 -0.519531 16.785156 -0.351562 17.023438 -0.183594 C 17.140625 -0.117188 17.242188 -0.0351562 17.34375 0.0507812 C 17.441406 0.0507812 17.542969 0.0507812 17.628906 0.0507812 C 17.8125 0.0507812 17.996094 0.0664062 18.199219 0.0859375 C 18.417969 0.0859375 18.652344 0.0859375 18.871094 0.0859375 C 18.90625 0.0859375 18.941406 0.0859375 18.972656 0.0859375 C 19.140625 0.0664062 19.308594 0.0507812 19.476562 0.0507812 C 19.714844 0.0351562 19.964844 0.0507812 20.203125 0.0507812 C 20.65625 0.0351562 21.109375 0.0351562 21.5625 0.0351562 C 21.597656 0.0351562 21.648438 0.0351562 21.679688 0.015625 C 21.679688 -0.101562 21.664062 -0.21875 21.679688 -0.320312 C 21.679688 -0.402344 21.699219 -0.488281 21.679688 -0.570312 C 21.679688 -0.859375 21.679688 -1.128906 21.679688 -1.414062 C 21.664062 -1.75 21.664062 -2.085938 21.664062 -2.421875 C 21.664062 -2.824219 21.679688 -3.230469 21.648438 -3.648438 C 21.632812 -3.867188 21.632812 -4.070312 21.632812 -4.304688 C 21.613281 -4.945312 21.632812 -5.585938 21.613281 -6.222656 C 21.582031 -6.945312 21.597656 -7.652344 21.597656 -8.359375 C 21.597656 -8.410156 21.613281 -8.460938 21.613281 -8.511719 C 21.632812 -8.613281 21.648438 -8.714844 21.648438 -8.8125 C 21.648438 -9.082031 21.648438 -9.367188 21.648438 -9.65625 C 21.648438 -9.6875 21.648438 -9.722656 21.648438 -9.753906 C 21.632812 -9.941406 21.613281 -10.125 21.597656 -10.292969 C 21.597656 -10.664062 21.582031 -11.015625 21.582031 -11.371094 C 21.582031 -11.472656 21.582031 -11.574219 21.597656 -11.691406 C 21.5625 -11.691406 21.53125 -11.691406 21.511719 -11.691406 C 21.429688 -11.691406 21.328125 -11.671875 21.246094 -11.671875 C 21.074219 -11.671875 20.925781 -11.691406 20.757812 -11.691406 C 20.636719 -11.691406 20.519531 -11.671875 20.402344 -11.671875 C 20 -11.671875 19.597656 -11.65625 19.207031 -11.691406 C 19.058594 -11.707031 18.90625 -11.671875 18.753906 -11.65625 C 18.652344 -11.65625 18.554688 -11.621094 18.453125 -11.621094 C 18.285156 -11.621094 18.132812 -11.605469 17.964844 -11.640625 C 17.949219 -11.640625 17.949219 -11.640625 17.929688 -11.640625 C 17.796875 -11.621094 17.660156 -11.621094 17.527344 -11.589844 C 17.476562 -11.589844 17.441406 -11.574219 17.390625 -11.574219 C 17.375 -11.402344 17.359375 -11.234375 17.359375 -11.085938 C 17.359375 -10.816406 17.359375 -10.546875 17.375 -10.261719 C 17.390625 -10.042969 17.375 -9.804688 17.390625 -9.570312 C 17.425781 -9.285156 17.425781 -9 17.425781 -8.714844 C 17.425781 -8.578125 17.425781 -8.445312 17.441406 -8.308594 C 17.441406 -8.257812 17.441406 -8.226562 17.441406 -8.175781 C 17.425781 -8.089844 17.410156 -8.023438 17.410156 -7.9375 C 17.390625 -7.769531 17.390625 -7.585938 17.390625 -7.417969 C 17.390625 -6.996094 17.375 -6.59375 17.390625 -6.171875 C 17.425781 -5.683594 17.390625 -5.179688 17.425781 -4.691406 C 17.425781 -4.390625 17.425781 -4.070312 17.425781 -3.769531 C 17.390625 -3.785156 17.375 -3.816406 17.34375 -3.835938 C 17.222656 -3.917969 17.125 -3.988281 17.003906 -4.070312 C 16.667969 -4.324219 16.332031 -4.574219 15.980469 -4.8125 C 15.761719 -4.960938 15.542969 -5.097656 15.324219 -5.230469 C 15.1875 -5.316406 15.039062 -5.398438 14.902344 -5.5 C 14.785156 -5.566406 14.667969 -5.652344 14.53125 -5.734375 C 14.363281 -5.851562 14.195312 -5.953125 14.027344 -6.054688 C 13.808594 -6.191406 13.589844 -6.339844 13.371094 -6.492188 C 13.253906 -6.558594 13.121094 -6.609375 13.003906 -6.695312 C 12.714844 -6.863281 12.445312 -7.03125 12.195312 -7.234375 C 12.160156 -7.25 12.109375 -7.285156 12.078125 -7.300781 C 11.839844 -7.46875 11.589844 -7.636719 11.335938 -7.789062 C 11.304688 -7.820312 11.269531 -7.839844 11.234375 -7.855469 C 11.101562 -7.957031 10.96875 -8.058594 10.816406 -8.140625 C 10.496094 -8.359375 10.160156 -8.5625 9.824219 -8.761719 C 9.585938 -8.929688 9.351562 -9.082031 9.101562 -9.25 C 8.863281 -9.417969 8.628906 -9.570312 8.394531 -9.738281 C 8.324219 -9.789062 8.257812 -9.839844 8.191406 -9.890625 C 7.988281 -10.007812 7.804688 -10.125 7.601562 -10.261719 C 7.550781 -10.292969 7.5 -10.328125 7.453125 -10.363281 C 7.351562 -10.445312 7.25 -10.511719 7.148438 -10.578125 C 6.980469 -10.699219 6.828125 -10.796875 6.660156 -10.898438 C 6.558594 -10.96875 6.441406 -11.035156 6.359375 -11.101562 C 6.207031 -11.203125 6.039062 -11.304688 5.902344 -11.402344 C 5.769531 -11.488281 5.636719 -11.605469 5.484375 -11.671875 C 5.398438 -11.671875 5.332031 -11.691406 5.246094 -11.691406 C 5.011719 -11.691406 4.777344 -11.691406 4.542969 -11.691406 C 4.324219 -11.691406 4.105469 -11.671875 3.867188 -11.671875 C 3.816406 -11.671875 3.769531 -11.691406 3.71875 -11.691406 C 3.617188 -11.707031 3.515625 -11.722656 3.429688 -11.707031 C 3.195312 -11.707031 2.960938 -11.691406 2.726562 -11.691406 C 2.40625 -11.691406 2.070312 -11.691406 1.75 -11.691406 C 1.597656 -11.691406 1.429688 -11.691406 1.261719 -11.691406 Z M 1.261719 -11.691406 "/></g></g></g><g fill="#ffffff" fill-opacity="1"><g transform="translate(242.932935, 23.264064)"><g><path d="M 22.070312 -9.585938 C 21.933594 -9.707031 21.816406 -9.789062 21.679688 -9.875 C 21.632812 -9.90625 21.5625 -9.957031 21.511719 -10.007812 C 21.195312 -10.226562 20.875 -10.445312 20.539062 -10.597656 C 20.402344 -10.664062 20.269531 -10.730469 20.132812 -10.796875 C 19.847656 -10.933594 19.546875 -11.085938 19.242188 -11.203125 C 19.007812 -11.304688 18.738281 -11.371094 18.484375 -11.4375 C 18.199219 -11.503906 17.914062 -11.574219 17.628906 -11.621094 C 17.324219 -11.691406 17.003906 -11.757812 16.6875 -11.808594 C 16.519531 -11.839844 16.347656 -11.875 16.164062 -11.890625 C 16.097656 -11.910156 16.011719 -11.925781 15.945312 -11.941406 C 15.8125 -11.960938 15.660156 -11.976562 15.523438 -11.992188 C 15.375 -12.007812 15.238281 -12.027344 15.089844 -12.058594 C 14.871094 -12.078125 14.652344 -12.09375 14.433594 -12.109375 C 14.246094 -12.144531 14.046875 -12.144531 13.859375 -12.160156 C 13.625 -12.179688 13.390625 -12.179688 13.152344 -12.179688 C 12.714844 -12.179688 12.277344 -12.195312 11.839844 -12.160156 C 11.691406 -12.160156 11.539062 -12.144531 11.386719 -12.144531 C 11.371094 -12.144531 11.355469 -12.144531 11.355469 -12.144531 C 11.1875 -12.109375 11.015625 -12.09375 10.847656 -12.078125 C 10.648438 -12.078125 10.460938 -12.058594 10.277344 -12.027344 C 10.160156 -12.007812 10.042969 -12.007812 9.925781 -11.976562 C 9.671875 -11.910156 9.402344 -11.890625 9.132812 -11.859375 C 8.949219 -11.824219 8.746094 -11.792969 8.542969 -11.757812 C 8.308594 -11.707031 8.039062 -11.65625 7.789062 -11.605469 C 7.570312 -11.574219 7.351562 -11.523438 7.113281 -11.472656 C 6.914062 -11.421875 6.695312 -11.386719 6.492188 -11.304688 C 6.121094 -11.1875 5.769531 -11.066406 5.417969 -10.933594 C 5.164062 -10.816406 4.910156 -10.730469 4.660156 -10.628906 C 4.472656 -10.5625 4.304688 -10.480469 4.15625 -10.378906 C 4.121094 -10.34375 4.070312 -10.328125 4.035156 -10.3125 C 3.835938 -10.191406 3.632812 -10.09375 3.429688 -9.941406 C 3.210938 -9.773438 2.992188 -9.605469 2.792969 -9.402344 C 2.675781 -9.269531 2.539062 -9.132812 2.421875 -9 C 2.269531 -8.78125 2.085938 -8.578125 1.917969 -8.359375 C 1.800781 -8.207031 1.683594 -8.058594 1.613281 -7.871094 C 1.515625 -7.621094 1.429688 -7.351562 1.394531 -7.097656 C 1.363281 -6.945312 1.328125 -6.796875 1.3125 -6.628906 C 1.277344 -6.476562 1.261719 -6.324219 1.226562 -6.171875 C 1.226562 -6.039062 1.210938 -5.902344 1.195312 -5.785156 C 1.195312 -5.71875 1.195312 -5.652344 1.195312 -5.585938 C 1.195312 -5.464844 1.175781 -5.332031 1.195312 -5.214844 C 1.246094 -4.980469 1.277344 -4.742188 1.34375 -4.507812 C 1.394531 -4.375 1.429688 -4.222656 1.515625 -4.085938 C 1.648438 -3.851562 1.816406 -3.648438 1.96875 -3.429688 C 2.085938 -3.246094 2.238281 -3.09375 2.386719 -2.910156 C 2.472656 -2.808594 2.589844 -2.691406 2.707031 -2.589844 C 2.742188 -2.574219 2.773438 -2.558594 2.792969 -2.523438 C 2.992188 -2.339844 3.210938 -2.167969 3.429688 -2.019531 C 3.53125 -1.933594 3.632812 -1.851562 3.734375 -1.78125 C 3.867188 -1.714844 4.003906 -1.613281 4.136719 -1.53125 C 4.324219 -1.429688 4.507812 -1.328125 4.691406 -1.210938 C 4.792969 -1.160156 4.894531 -1.09375 4.996094 -1.042969 C 5.179688 -0.957031 5.347656 -0.890625 5.535156 -0.824219 C 5.667969 -0.773438 5.785156 -0.722656 5.921875 -0.691406 C 6.105469 -0.605469 6.308594 -0.539062 6.507812 -0.472656 C 6.628906 -0.4375 6.761719 -0.402344 6.878906 -0.371094 C 7.097656 -0.304688 7.300781 -0.234375 7.519531 -0.183594 C 7.71875 -0.132812 7.90625 -0.101562 8.109375 -0.0507812 C 8.257812 -0.015625 8.425781 0.015625 8.578125 0.0351562 C 8.695312 0.0664062 8.8125 0.0859375 8.929688 0.101562 C 9.015625 0.117188 9.101562 0.132812 9.167969 0.152344 C 9.335938 0.167969 9.488281 0.203125 9.65625 0.21875 C 9.839844 0.253906 10.023438 0.304688 10.210938 0.304688 C 10.226562 0.304688 10.242188 0.304688 10.261719 0.304688 C 10.410156 0.320312 10.5625 0.335938 10.714844 0.351562 C 10.847656 0.351562 10.984375 0.371094 11.117188 0.371094 C 11.304688 0.371094 11.488281 0.386719 11.691406 0.386719 C 12.007812 0.386719 12.328125 0.402344 12.648438 0.386719 C 12.832031 0.386719 13.019531 0.402344 13.203125 0.371094 C 13.339844 0.351562 13.472656 0.351562 13.609375 0.335938 C 13.84375 0.320312 14.078125 0.304688 14.332031 0.285156 C 14.550781 0.269531 14.785156 0.269531 15.003906 0.253906 C 15.15625 0.253906 15.289062 0.253906 15.425781 0.234375 C 15.425781 0.234375 15.441406 0.234375 15.441406 0.234375 C 15.59375 0.21875 15.742188 0.183594 15.910156 0.167969 C 16.03125 0.152344 16.164062 0.132812 16.300781 0.101562 C 16.382812 0.101562 16.449219 0.0664062 16.550781 0.0664062 C 16.667969 0.0351562 16.769531 0.015625 16.886719 0 C 17.023438 -0.015625 17.140625 -0.0507812 17.273438 -0.0664062 C 17.441406 -0.117188 17.609375 -0.132812 17.777344 -0.183594 C 17.964844 -0.21875 18.132812 -0.285156 18.316406 -0.335938 C 18.46875 -0.371094 18.621094 -0.402344 18.773438 -0.472656 C 18.90625 -0.519531 19.058594 -0.570312 19.207031 -0.605469 C 19.5625 -0.691406 19.882812 -0.789062 20.21875 -0.925781 C 20.402344 -0.992188 20.605469 -1.078125 20.789062 -1.175781 C 21.007812 -1.296875 21.246094 -1.414062 21.445312 -1.546875 C 21.679688 -1.683594 21.898438 -1.816406 22.117188 -1.96875 C 22.238281 -2.035156 22.335938 -2.136719 22.4375 -2.21875 C 22.605469 -2.355469 22.792969 -2.507812 22.941406 -2.675781 C 23.042969 -2.792969 23.144531 -2.910156 23.246094 -3.042969 C 23.328125 -3.144531 23.429688 -3.261719 23.5 -3.382812 C 23.566406 -3.480469 23.632812 -3.582031 23.699219 -3.699219 C 23.765625 -3.835938 23.835938 -3.96875 23.902344 -4.105469 C 24.035156 -4.457031 24.171875 -4.8125 24.238281 -5.179688 C 24.273438 -5.382812 24.304688 -5.601562 24.304688 -5.820312 C 24.304688 -6.054688 24.324219 -6.289062 24.304688 -6.527344 C 24.304688 -6.628906 24.273438 -6.746094 24.273438 -6.863281 C 24.203125 -6.878906 24.152344 -6.894531 24.085938 -6.894531 C 23.96875 -6.894531 23.851562 -6.894531 23.714844 -6.914062 C 23.53125 -6.929688 23.328125 -6.929688 23.144531 -6.929688 C 21.917969 -6.929688 20.6875 -6.964844 19.476562 -6.929688 C 19.191406 -6.914062 18.90625 -6.914062 18.636719 -6.914062 C 18.082031 -6.929688 17.527344 -6.894531 16.972656 -6.945312 C 16.804688 -6.945312 16.636719 -6.945312 16.46875 -6.945312 C 16.316406 -6.945312 16.164062 -6.980469 16.03125 -6.980469 C 15.761719 -6.996094 15.507812 -6.996094 15.238281 -7.015625 C 14.820312 -7.015625 14.398438 -6.980469 13.976562 -7.03125 C 13.777344 -7.046875 13.574219 -7.03125 13.355469 -7.046875 C 12.832031 -7.066406 12.3125 -7.03125 11.792969 -7.066406 C 11.671875 -7.082031 11.554688 -7.066406 11.421875 -7.082031 C 11.386719 -7.082031 11.355469 -7.066406 11.335938 -7.082031 C 11.234375 -7.097656 11.117188 -7.082031 11.035156 -7.046875 C 11.035156 -7.03125 11.015625 -7.015625 11.015625 -6.996094 C 11.035156 -6.609375 11 -6.222656 11.035156 -5.835938 C 11.050781 -5.71875 11.050781 -5.601562 11.066406 -5.484375 C 11.085938 -5.296875 11.085938 -5.097656 11.085938 -4.894531 C 11.085938 -4.710938 11.085938 -4.542969 11.085938 -4.355469 C 11.085938 -4.324219 11.085938 -4.304688 11.101562 -4.273438 C 11.386719 -4.273438 11.65625 -4.273438 11.941406 -4.273438 C 11.960938 -4.273438 11.976562 -4.289062 12.007812 -4.289062 C 12.109375 -4.289062 12.226562 -4.324219 12.328125 -4.324219 C 12.953125 -4.304688 13.574219 -4.339844 14.195312 -4.304688 C 14.347656 -4.289062 14.5 -4.289062 14.652344 -4.289062 C 14.871094 -4.253906 15.105469 -4.253906 15.324219 -4.253906 C 16.097656 -4.253906 16.871094 -4.253906 17.628906 -4.253906 C 17.914062 -4.253906 18.199219 -4.273438 18.484375 -4.289062 C 18.503906 -4.289062 18.519531 -4.289062 18.519531 -4.289062 C 18.753906 -4.289062 18.972656 -4.304688 19.207031 -4.304688 C 19.191406 -4.273438 19.160156 -4.253906 19.140625 -4.238281 C 18.957031 -4.054688 18.753906 -3.917969 18.535156 -3.785156 C 18.285156 -3.617188 18.015625 -3.53125 17.746094 -3.414062 C 17.578125 -3.347656 17.410156 -3.28125 17.242188 -3.230469 C 17.074219 -3.164062 16.886719 -3.09375 16.703125 -3.027344 C 16.601562 -2.992188 16.484375 -2.976562 16.367188 -2.945312 C 15.996094 -2.875 15.644531 -2.742188 15.273438 -2.691406 C 15.039062 -2.640625 14.820312 -2.605469 14.601562 -2.605469 C 14.480469 -2.589844 14.347656 -2.589844 14.230469 -2.574219 C 14.113281 -2.574219 13.996094 -2.558594 13.875 -2.539062 C 13.792969 -2.539062 13.707031 -2.523438 13.640625 -2.523438 C 13.238281 -2.523438 12.851562 -2.507812 12.445312 -2.539062 C 12.226562 -2.558594 12.007812 -2.558594 11.792969 -2.558594 C 11.671875 -2.558594 11.539062 -2.558594 11.421875 -2.589844 C 11.320312 -2.605469 11.21875 -2.625 11.101562 -2.625 C 11.035156 -2.625 10.96875 -2.640625 10.882812 -2.65625 C 10.78125 -2.65625 10.679688 -2.691406 10.578125 -2.691406 C 10.480469 -2.707031 10.363281 -2.707031 10.261719 -2.726562 C 10.042969 -2.757812 9.824219 -2.808594 9.605469 -2.84375 C 9.46875 -2.875 9.351562 -2.910156 9.234375 -2.945312 C 9.015625 -2.976562 8.8125 -3.042969 8.59375 -3.113281 C 8.527344 -3.144531 8.476562 -3.179688 8.425781 -3.210938 C 8.140625 -3.3125 7.871094 -3.429688 7.621094 -3.582031 C 7.570312 -3.617188 7.519531 -3.632812 7.453125 -3.648438 C 7.113281 -3.769531 6.828125 -3.988281 6.542969 -4.207031 C 6.375 -4.324219 6.242188 -4.472656 6.105469 -4.609375 C 6.039062 -4.691406 5.988281 -4.777344 5.9375 -4.859375 C 5.921875 -4.894531 5.921875 -4.929688 5.886719 -4.945312 C 5.753906 -5.230469 5.667969 -5.535156 5.585938 -5.835938 C 5.550781 -6.003906 5.566406 -6.15625 5.601562 -6.308594 C 5.652344 -6.542969 5.753906 -6.777344 5.851562 -6.996094 C 5.921875 -7.097656 5.988281 -7.199219 6.070312 -7.265625 C 6.324219 -7.535156 6.628906 -7.753906 6.929688 -7.9375 C 6.996094 -7.988281 7.066406 -8.039062 7.132812 -8.089844 C 7.351562 -8.226562 7.570312 -8.34375 7.804688 -8.425781 C 7.957031 -8.496094 8.109375 -8.5625 8.257812 -8.628906 C 8.359375 -8.664062 8.445312 -8.695312 8.527344 -8.730469 C 8.613281 -8.761719 8.714844 -8.796875 8.796875 -8.832031 C 8.929688 -8.863281 9.050781 -8.914062 9.183594 -8.929688 C 9.25 -8.929688 9.335938 -8.949219 9.402344 -8.964844 C 9.554688 -8.980469 9.707031 -9.03125 9.855469 -9.050781 C 9.992188 -9.082031 10.125 -9.101562 10.277344 -9.117188 C 10.378906 -9.132812 10.496094 -9.148438 10.613281 -9.167969 C 10.714844 -9.183594 10.832031 -9.183594 10.933594 -9.199219 C 11.117188 -9.21875 11.320312 -9.25 11.523438 -9.25 C 11.539062 -9.25 11.554688 -9.25 11.574219 -9.269531 C 11.722656 -9.269531 11.875 -9.300781 12.007812 -9.300781 C 12.328125 -9.300781 12.648438 -9.300781 12.96875 -9.300781 C 13.390625 -9.300781 13.792969 -9.300781 14.195312 -9.269531 C 14.230469 -9.269531 14.246094 -9.269531 14.265625 -9.269531 C 14.382812 -9.269531 14.515625 -9.25 14.632812 -9.234375 C 14.769531 -9.21875 14.902344 -9.199219 15.039062 -9.183594 C 15.289062 -9.132812 15.523438 -9.082031 15.777344 -9.03125 C 16.113281 -8.964844 16.433594 -8.863281 16.753906 -8.746094 C 16.921875 -8.679688 17.105469 -8.59375 17.273438 -8.527344 C 17.410156 -8.476562 17.542969 -8.445312 17.679688 -8.394531 C 17.746094 -8.359375 17.8125 -8.308594 17.878906 -8.292969 C 17.980469 -8.257812 18.082031 -8.191406 18.167969 -8.140625 C 18.199219 -8.109375 18.234375 -8.089844 18.265625 -8.074219 C 18.367188 -8.007812 18.484375 -7.9375 18.601562 -7.871094 C 18.773438 -7.753906 18.957031 -7.636719 19.125 -7.519531 C 19.191406 -7.550781 19.242188 -7.585938 19.292969 -7.621094 C 19.378906 -7.671875 19.476562 -7.71875 19.5625 -7.789062 C 19.882812 -8.023438 20.203125 -8.257812 20.539062 -8.496094 C 20.621094 -8.5625 20.722656 -8.628906 20.808594 -8.695312 C 21.144531 -8.964844 21.480469 -9.21875 21.851562 -9.4375 C 21.917969 -9.46875 21.984375 -9.539062 22.070312 -9.585938 Z M 22.070312 -9.585938 "/></g></g></g><g fill="#ffffff" fill-opacity="1"><g transform="translate(91.204177, 47.96692)"><g><path d="M 22.070312 -9.585938 C 21.933594 -9.707031 21.816406 -9.789062 21.679688 -9.875 C 21.632812 -9.90625 21.5625 -9.957031 21.511719 -10.007812 C 21.195312 -10.226562 20.875 -10.445312 20.539062 -10.597656 C 20.402344 -10.664062 20.269531 -10.730469 20.132812 -10.796875 C 19.847656 -10.933594 19.546875 -11.085938 19.242188 -11.203125 C 19.007812 -11.304688 18.738281 -11.371094 18.484375 -11.4375 C 18.199219 -11.503906 17.914062 -11.574219 17.628906 -11.621094 C 17.324219 -11.691406 17.003906 -11.757812 16.6875 -11.808594 C 16.519531 -11.839844 16.347656 -11.875 16.164062 -11.890625 C 16.097656 -11.910156 16.011719 -11.925781 15.945312 -11.941406 C 15.8125 -11.960938 15.660156 -11.976562 15.523438 -11.992188 C 15.375 -12.007812 15.238281 -12.027344 15.089844 -12.058594 C 14.871094 -12.078125 14.652344 -12.09375 14.433594 -12.109375 C 14.246094 -12.144531 14.046875 -12.144531 13.859375 -12.160156 C 13.625 -12.179688 13.390625 -12.179688 13.152344 -12.179688 C 12.714844 -12.179688 12.277344 -12.195312 11.839844 -12.160156 C 11.691406 -12.160156 11.539062 -12.144531 11.386719 -12.144531 C 11.371094 -12.144531 11.355469 -12.144531 11.355469 -12.144531 C 11.1875 -12.109375 11.015625 -12.09375 10.847656 -12.078125 C 10.648438 -12.078125 10.460938 -12.058594 10.277344 -12.027344 C 10.160156 -12.007812 10.042969 -12.007812 9.925781 -11.976562 C 9.671875 -11.910156 9.402344 -11.890625 9.132812 -11.859375 C 8.949219 -11.824219 8.746094 -11.792969 8.542969 -11.757812 C 8.308594 -11.707031 8.039062 -11.65625 7.789062 -11.605469 C 7.570312 -11.574219 7.351562 -11.523438 7.113281 -11.472656 C 6.914062 -11.421875 6.695312 -11.386719 6.492188 -11.304688 C 6.121094 -11.1875 5.769531 -11.066406 5.417969 -10.933594 C 5.164062 -10.816406 4.910156 -10.730469 4.660156 -10.628906 C 4.472656 -10.5625 4.304688 -10.480469 4.15625 -10.378906 C 4.121094 -10.34375 4.070312 -10.328125 4.035156 -10.3125 C 3.835938 -10.191406 3.632812 -10.09375 3.429688 -9.941406 C 3.210938 -9.773438 2.992188 -9.605469 2.792969 -9.402344 C 2.675781 -9.269531 2.539062 -9.132812 2.421875 -9 C 2.269531 -8.78125 2.085938 -8.578125 1.917969 -8.359375 C 1.800781 -8.207031 1.683594 -8.058594 1.613281 -7.871094 C 1.515625 -7.621094 1.429688 -7.351562 1.394531 -7.097656 C 1.363281 -6.945312 1.328125 -6.796875 1.3125 -6.628906 C 1.277344 -6.476562 1.261719 -6.324219 1.226562 -6.171875 C 1.226562 -6.039062 1.210938 -5.902344 1.195312 -5.785156 C 1.195312 -5.71875 1.195312 -5.652344 1.195312 -5.585938 C 1.195312 -5.464844 1.175781 -5.332031 1.195312 -5.214844 C 1.246094 -4.980469 1.277344 -4.742188 1.34375 -4.507812 C 1.394531 -4.375 1.429688 -4.222656 1.515625 -4.085938 C 1.648438 -3.851562 1.816406 -3.648438 1.96875 -3.429688 C 2.085938 -3.246094 2.238281 -3.09375 2.386719 -2.910156 C 2.472656 -2.808594 2.589844 -2.691406 2.707031 -2.589844 C 2.742188 -2.574219 2.773438 -2.558594 2.792969 -2.523438 C 2.992188 -2.339844 3.210938 -2.167969 3.429688 -2.019531 C 3.53125 -1.933594 3.632812 -1.851562 3.734375 -1.78125 C 3.867188 -1.714844 4.003906 -1.613281 4.136719 -1.53125 C 4.324219 -1.429688 4.507812 -1.328125 4.691406 -1.210938 C 4.792969 -1.160156 4.894531 -1.09375 4.996094 -1.042969 C 5.179688 -0.957031 5.347656 -0.890625 5.535156 -0.824219 C 5.667969 -0.773438 5.785156 -0.722656 5.921875 -0.691406 C 6.105469 -0.605469 6.308594 -0.539062 6.507812 -0.472656 C 6.628906 -0.4375 6.761719 -0.402344 6.878906 -0.371094 C 7.097656 -0.304688 7.300781 -0.234375 7.519531 -0.183594 C 7.71875 -0.132812 7.90625 -0.101562 8.109375 -0.0507812 C 8.257812 -0.015625 8.425781 0.015625 8.578125 0.0351562 C 8.695312 0.0664062 8.8125 0.0859375 8.929688 0.101562 C 9.015625 0.117188 9.101562 0.132812 9.167969 0.152344 C 9.335938 0.167969 9.488281 0.203125 9.65625 0.21875 C 9.839844 0.253906 10.023438 0.304688 10.210938 0.304688 C 10.226562 0.304688 10.242188 0.304688 10.261719 0.304688 C 10.410156 0.320312 10.5625 0.335938 10.714844 0.351562 C 10.847656 0.351562 10.984375 0.371094 11.117188 0.371094 C 11.304688 0.371094 11.488281 0.386719 11.691406 0.386719 C 12.007812 0.386719 12.328125 0.402344 12.648438 0.386719 C 12.832031 0.386719 13.019531 0.402344 13.203125 0.371094 C 13.339844 0.351562 13.472656 0.351562 13.609375 0.335938 C 13.84375 0.320312 14.078125 0.304688 14.332031 0.285156 C 14.550781 0.269531 14.785156 0.269531 15.003906 0.253906 C 15.15625 0.253906 15.289062 0.253906 15.425781 0.234375 C 15.425781 0.234375 15.441406 0.234375 15.441406 0.234375 C 15.59375 0.21875 15.742188 0.183594 15.910156 0.167969 C 16.03125 0.152344 16.164062 0.132812 16.300781 0.101562 C 16.382812 0.101562 16.449219 0.0664062 16.550781 0.0664062 C 16.667969 0.0351562 16.769531 0.015625 16.886719 0 C 17.023438 -0.015625 17.140625 -0.0507812 17.273438 -0.0664062 C 17.441406 -0.117188 17.609375 -0.132812 17.777344 -0.183594 C 17.964844 -0.21875 18.132812 -0.285156 18.316406 -0.335938 C 18.46875 -0.371094 18.621094 -0.402344 18.773438 -0.472656 C 18.90625 -0.519531 19.058594 -0.570312 19.207031 -0.605469 C 19.5625 -0.691406 19.882812 -0.789062 20.21875 -0.925781 C 20.402344 -0.992188 20.605469 -1.078125 20.789062 -1.175781 C 21.007812 -1.296875 21.246094 -1.414062 21.445312 -1.546875 C 21.679688 -1.683594 21.898438 -1.816406 22.117188 -1.96875 C 22.238281 -2.035156 22.335938 -2.136719 22.4375 -2.21875 C 22.605469 -2.355469 22.792969 -2.507812 22.941406 -2.675781 C 23.042969 -2.792969 23.144531 -2.910156 23.246094 -3.042969 C 23.328125 -3.144531 23.429688 -3.261719 23.5 -3.382812 C 23.566406 -3.480469 23.632812 -3.582031 23.699219 -3.699219 C 23.765625 -3.835938 23.835938 -3.96875 23.902344 -4.105469 C 24.035156 -4.457031 24.171875 -4.8125 24.238281 -5.179688 C 24.273438 -5.382812 24.304688 -5.601562 24.304688 -5.820312 C 24.304688 -6.054688 24.324219 -6.289062 24.304688 -6.527344 C 24.304688 -6.628906 24.273438 -6.746094 24.273438 -6.863281 C 24.203125 -6.878906 24.152344 -6.894531 24.085938 -6.894531 C 23.96875 -6.894531 23.851562 -6.894531 23.714844 -6.914062 C 23.53125 -6.929688 23.328125 -6.929688 23.144531 -6.929688 C 21.917969 -6.929688 20.6875 -6.964844 19.476562 -6.929688 C 19.191406 -6.914062 18.90625 -6.914062 18.636719 -6.914062 C 18.082031 -6.929688 17.527344 -6.894531 16.972656 -6.945312 C 16.804688 -6.945312 16.636719 -6.945312 16.46875 -6.945312 C 16.316406 -6.945312 16.164062 -6.980469 16.03125 -6.980469 C 15.761719 -6.996094 15.507812 -6.996094 15.238281 -7.015625 C 14.820312 -7.015625 14.398438 -6.980469 13.976562 -7.03125 C 13.777344 -7.046875 13.574219 -7.03125 13.355469 -7.046875 C 12.832031 -7.066406 12.3125 -7.03125 11.792969 -7.066406 C 11.671875 -7.082031 11.554688 -7.066406 11.421875 -7.082031 C 11.386719 -7.082031 11.355469 -7.066406 11.335938 -7.082031 C 11.234375 -7.097656 11.117188 -7.082031 11.035156 -7.046875 C 11.035156 -7.03125 11.015625 -7.015625 11.015625 -6.996094 C 11.035156 -6.609375 11 -6.222656 11.035156 -5.835938 C 11.050781 -5.71875 11.050781 -5.601562 11.066406 -5.484375 C 11.085938 -5.296875 11.085938 -5.097656 11.085938 -4.894531 C 11.085938 -4.710938 11.085938 -4.542969 11.085938 -4.355469 C 11.085938 -4.324219 11.085938 -4.304688 11.101562 -4.273438 C 11.386719 -4.273438 11.65625 -4.273438 11.941406 -4.273438 C 11.960938 -4.273438 11.976562 -4.289062 12.007812 -4.289062 C 12.109375 -4.289062 12.226562 -4.324219 12.328125 -4.324219 C 12.953125 -4.304688 13.574219 -4.339844 14.195312 -4.304688 C 14.347656 -4.289062 14.5 -4.289062 14.652344 -4.289062 C 14.871094 -4.253906 15.105469 -4.253906 15.324219 -4.253906 C 16.097656 -4.253906 16.871094 -4.253906 17.628906 -4.253906 C 17.914062 -4.253906 18.199219 -4.273438 18.484375 -4.289062 C 18.503906 -4.289062 18.519531 -4.289062 18.519531 -4.289062 C 18.753906 -4.289062 18.972656 -4.304688 19.207031 -4.304688 C 19.191406 -4.273438 19.160156 -4.253906 19.140625 -4.238281 C 18.957031 -4.054688 18.753906 -3.917969 18.535156 -3.785156 C 18.285156 -3.617188 18.015625 -3.53125 17.746094 -3.414062 C 17.578125 -3.347656 17.410156 -3.28125 17.242188 -3.230469 C 17.074219 -3.164062 16.886719 -3.09375 16.703125 -3.027344 C 16.601562 -2.992188 16.484375 -2.976562 16.367188 -2.945312 C 15.996094 -2.875 15.644531 -2.742188 15.273438 -2.691406 C 15.039062 -2.640625 14.820312 -2.605469 14.601562 -2.605469 C 14.480469 -2.589844 14.347656 -2.589844 14.230469 -2.574219 C 14.113281 -2.574219 13.996094 -2.558594 13.875 -2.539062 C 13.792969 -2.539062 13.707031 -2.523438 13.640625 -2.523438 C 13.238281 -2.523438 12.851562 -2.507812 12.445312 -2.539062 C 12.226562 -2.558594 12.007812 -2.558594 11.792969 -2.558594 C 11.671875 -2.558594 11.539062 -2.558594 11.421875 -2.589844 C 11.320312 -2.605469 11.21875 -2.625 11.101562 -2.625 C 11.035156 -2.625 10.96875 -2.640625 10.882812 -2.65625 C 10.78125 -2.65625 10.679688 -2.691406 10.578125 -2.691406 C 10.480469 -2.707031 10.363281 -2.707031 10.261719 -2.726562 C 10.042969 -2.757812 9.824219 -2.808594 9.605469 -2.84375 C 9.46875 -2.875 9.351562 -2.910156 9.234375 -2.945312 C 9.015625 -2.976562 8.8125 -3.042969 8.59375 -3.113281 C 8.527344 -3.144531 8.476562 -3.179688 8.425781 -3.210938 C 8.140625 -3.3125 7.871094 -3.429688 7.621094 -3.582031 C 7.570312 -3.617188 7.519531 -3.632812 7.453125 -3.648438 C 7.113281 -3.769531 6.828125 -3.988281 6.542969 -4.207031 C 6.375 -4.324219 6.242188 -4.472656 6.105469 -4.609375 C 6.039062 -4.691406 5.988281 -4.777344 5.9375 -4.859375 C 5.921875 -4.894531 5.921875 -4.929688 5.886719 -4.945312 C 5.753906 -5.230469 5.667969 -5.535156 5.585938 -5.835938 C 5.550781 -6.003906 5.566406 -6.15625 5.601562 -6.308594 C 5.652344 -6.542969 5.753906 -6.777344 5.851562 -6.996094 C 5.921875 -7.097656 5.988281 -7.199219 6.070312 -7.265625 C 6.324219 -7.535156 6.628906 -7.753906 6.929688 -7.9375 C 6.996094 -7.988281 7.066406 -8.039062 7.132812 -8.089844 C 7.351562 -8.226562 7.570312 -8.34375 7.804688 -8.425781 C 7.957031 -8.496094 8.109375 -8.5625 8.257812 -8.628906 C 8.359375 -8.664062 8.445312 -8.695312 8.527344 -8.730469 C 8.613281 -8.761719 8.714844 -8.796875 8.796875 -8.832031 C 8.929688 -8.863281 9.050781 -8.914062 9.183594 -8.929688 C 9.25 -8.929688 9.335938 -8.949219 9.402344 -8.964844 C 9.554688 -8.980469 9.707031 -9.03125 9.855469 -9.050781 C 9.992188 -9.082031 10.125 -9.101562 10.277344 -9.117188 C 10.378906 -9.132812 10.496094 -9.148438 10.613281 -9.167969 C 10.714844 -9.183594 10.832031 -9.183594 10.933594 -9.199219 C 11.117188 -9.21875 11.320312 -9.25 11.523438 -9.25 C 11.539062 -9.25 11.554688 -9.25 11.574219 -9.269531 C 11.722656 -9.269531 11.875 -9.300781 12.007812 -9.300781 C 12.328125 -9.300781 12.648438 -9.300781 12.96875 -9.300781 C 13.390625 -9.300781 13.792969 -9.300781 14.195312 -9.269531 C 14.230469 -9.269531 14.246094 -9.269531 14.265625 -9.269531 C 14.382812 -9.269531 14.515625 -9.25 14.632812 -9.234375 C 14.769531 -9.21875 14.902344 -9.199219 15.039062 -9.183594 C 15.289062 -9.132812 15.523438 -9.082031 15.777344 -9.03125 C 16.113281 -8.964844 16.433594 -8.863281 16.753906 -8.746094 C 16.921875 -8.679688 17.105469 -8.59375 17.273438 -8.527344 C 17.410156 -8.476562 17.542969 -8.445312 17.679688 -8.394531 C 17.746094 -8.359375 17.8125 -8.308594 17.878906 -8.292969 C 17.980469 -8.257812 18.082031 -8.191406 18.167969 -8.140625 C 18.199219 -8.109375 18.234375 -8.089844 18.265625 -8.074219 C 18.367188 -8.007812 18.484375 -7.9375 18.601562 -7.871094 C 18.773438 -7.753906 18.957031 -7.636719 19.125 -7.519531 C 19.191406 -7.550781 19.242188 -7.585938 19.292969 -7.621094 C 19.378906 -7.671875 19.476562 -7.71875 19.5625 -7.789062 C 19.882812 -8.023438 20.203125 -8.257812 20.539062 -8.496094 C 20.621094 -8.5625 20.722656 -8.628906 20.808594 -8.695312 C 21.144531 -8.964844 21.480469 -9.21875 21.851562 -9.4375 C 21.917969 -9.46875 21.984375 -9.539062 22.070312 -9.585938 Z M 22.070312 -9.585938 "/></g></g></g><g fill="#ffffff" fill-opacity="1"><g transform="translate(116.70255, 47.96692)"><g><path d="M 1.328125 -11.707031 C 1.261719 -11.671875 1.246094 -11.605469 1.226562 -11.554688 C 1.210938 -11.472656 1.210938 -11.386719 1.210938 -11.304688 C 1.195312 -10.949219 1.210938 -10.578125 1.175781 -10.226562 C 1.175781 -10.09375 1.175781 -9.941406 1.175781 -9.804688 C 1.175781 -9.402344 1.175781 -9 1.195312 -8.59375 C 1.210938 -8.058594 1.195312 -7.5 1.210938 -6.945312 C 1.210938 -6.914062 1.210938 -6.878906 1.210938 -6.847656 C 1.210938 -6.695312 1.246094 -6.527344 1.246094 -6.375 C 1.246094 -6.222656 1.246094 -6.089844 1.226562 -5.953125 C 1.195312 -5.652344 1.246094 -5.347656 1.246094 -5.046875 C 1.246094 -5.03125 1.246094 -5.011719 1.261719 -4.996094 C 1.296875 -4.828125 1.328125 -4.660156 1.378906 -4.507812 C 1.445312 -4.289062 1.515625 -4.070312 1.648438 -3.867188 C 1.75 -3.683594 1.851562 -3.480469 1.949219 -3.296875 C 2.019531 -3.195312 2.085938 -3.09375 2.152344 -3.011719 C 2.339844 -2.757812 2.523438 -2.507812 2.726562 -2.269531 C 2.792969 -2.1875 2.859375 -2.085938 2.960938 -2.035156 C 3.078125 -1.96875 3.164062 -1.867188 3.261719 -1.78125 C 3.28125 -1.78125 3.296875 -1.75 3.3125 -1.75 C 3.597656 -1.53125 3.902344 -1.34375 4.222656 -1.175781 C 4.324219 -1.109375 4.441406 -1.058594 4.542969 -0.992188 C 4.761719 -0.859375 4.960938 -0.773438 5.199219 -0.691406 C 5.433594 -0.589844 5.667969 -0.539062 5.902344 -0.4375 C 5.921875 -0.421875 5.9375 -0.421875 5.972656 -0.402344 C 6.070312 -0.371094 6.191406 -0.335938 6.308594 -0.285156 C 6.578125 -0.167969 6.847656 -0.0859375 7.113281 0 C 7.164062 0.015625 7.214844 0.015625 7.265625 0.0351562 C 7.367188 0.0507812 7.484375 0.0664062 7.601562 0.0859375 C 7.652344 0.101562 7.71875 0.101562 7.789062 0.117188 C 7.871094 0.132812 7.9375 0.132812 8.007812 0.132812 C 8.226562 0.183594 8.445312 0.234375 8.664062 0.253906 C 8.796875 0.269531 8.929688 0.304688 9.050781 0.320312 C 9.132812 0.335938 9.21875 0.320312 9.300781 0.335938 C 9.402344 0.371094 9.488281 0.371094 9.570312 0.371094 C 9.855469 0.351562 10.125 0.371094 10.410156 0.386719 C 10.429688 0.386719 10.429688 0.386719 10.445312 0.386719 C 10.5625 0.402344 10.679688 0.421875 10.816406 0.421875 C 11 0.4375 11.203125 0.4375 11.402344 0.453125 C 11.539062 0.453125 11.691406 0.453125 11.839844 0.453125 C 11.960938 0.453125 12.078125 0.4375 12.210938 0.402344 C 12.3125 0.386719 12.429688 0.371094 12.546875 0.371094 C 12.785156 0.351562 13.019531 0.351562 13.253906 0.335938 C 13.457031 0.335938 13.65625 0.304688 13.859375 0.285156 C 13.925781 0.285156 14.011719 0.269531 14.078125 0.269531 C 14.179688 0.253906 14.296875 0.21875 14.398438 0.203125 C 14.667969 0.167969 14.917969 0.101562 15.171875 0 C 15.289062 -0.0507812 15.40625 -0.0859375 15.523438 -0.132812 C 15.726562 -0.203125 15.929688 -0.285156 16.128906 -0.371094 C 16.367188 -0.453125 16.601562 -0.554688 16.835938 -0.640625 C 16.972656 -0.707031 17.125 -0.757812 17.273438 -0.824219 C 17.359375 -0.859375 17.425781 -0.890625 17.492188 -0.957031 C 17.527344 -0.992188 17.578125 -1.027344 17.609375 -1.042969 C 17.847656 -1.128906 18.046875 -1.261719 18.25 -1.414062 C 18.300781 -1.445312 18.367188 -1.496094 18.417969 -1.53125 C 18.6875 -1.699219 18.957031 -1.902344 19.207031 -2.101562 C 19.476562 -2.304688 19.695312 -2.574219 19.933594 -2.824219 C 19.964844 -2.875 20.015625 -2.925781 20.050781 -2.976562 C 20.269531 -3.230469 20.402344 -3.53125 20.554688 -3.816406 C 20.621094 -3.9375 20.671875 -4.054688 20.722656 -4.171875 C 20.839844 -4.472656 20.925781 -4.792969 20.976562 -5.113281 C 21.007812 -5.265625 21.027344 -5.417969 21.027344 -5.550781 C 21.042969 -6.140625 21.027344 -6.726562 21.042969 -7.316406 C 21.058594 -7.5 21.042969 -7.671875 21.027344 -7.839844 C 21.007812 -8.039062 21.027344 -8.226562 21.007812 -8.425781 C 20.992188 -8.578125 20.992188 -8.746094 20.992188 -8.898438 C 20.976562 -9.199219 20.992188 -9.488281 20.957031 -9.789062 C 20.957031 -9.992188 20.976562 -10.191406 20.976562 -10.394531 C 20.992188 -10.664062 20.976562 -10.933594 20.976562 -11.1875 C 20.976562 -11.21875 20.976562 -11.253906 20.976562 -11.285156 C 20.925781 -11.386719 20.90625 -11.503906 20.925781 -11.621094 C 20.925781 -11.621094 20.90625 -11.640625 20.90625 -11.65625 C 20.722656 -11.65625 20.539062 -11.65625 20.351562 -11.65625 C 20.152344 -11.65625 19.949219 -11.621094 19.765625 -11.621094 C 19.34375 -11.621094 18.941406 -11.621094 18.535156 -11.640625 C 18.066406 -11.65625 17.578125 -11.640625 17.105469 -11.640625 C 17.074219 -11.640625 17.039062 -11.640625 17.003906 -11.640625 C 16.921875 -11.65625 16.855469 -11.640625 16.785156 -11.640625 C 16.769531 -11.503906 16.769531 -11.386719 16.769531 -11.269531 C 16.753906 -11.015625 16.753906 -10.75 16.734375 -10.496094 C 16.734375 -10.480469 16.753906 -10.445312 16.753906 -10.429688 C 16.753906 -10.378906 16.769531 -10.328125 16.753906 -10.277344 C 16.753906 -9.855469 16.769531 -9.417969 16.734375 -8.980469 C 16.71875 -8.578125 16.71875 -8.175781 16.71875 -7.769531 C 16.71875 -7.066406 16.71875 -6.359375 16.71875 -5.652344 C 16.71875 -5.550781 16.703125 -5.449219 16.667969 -5.347656 C 16.652344 -5.296875 16.636719 -5.230469 16.601562 -5.164062 C 16.484375 -4.929688 16.382812 -4.691406 16.265625 -4.441406 C 16.164062 -4.253906 16.03125 -4.070312 15.894531 -3.917969 C 15.625 -3.632812 15.339844 -3.398438 15.019531 -3.195312 C 14.9375 -3.144531 14.835938 -3.09375 14.75 -3.042969 C 14.550781 -2.960938 14.332031 -2.875 14.128906 -2.808594 C 14.09375 -2.792969 14.078125 -2.773438 14.046875 -2.773438 C 13.859375 -2.726562 13.675781 -2.675781 13.507812 -2.625 C 13.355469 -2.589844 13.203125 -2.558594 13.035156 -2.523438 C 12.832031 -2.488281 12.648438 -2.457031 12.445312 -2.421875 C 12.277344 -2.386719 12.128906 -2.371094 11.960938 -2.371094 C 11.792969 -2.371094 11.621094 -2.371094 11.453125 -2.386719 C 11.1875 -2.40625 10.917969 -2.40625 10.648438 -2.421875 C 10.546875 -2.421875 10.460938 -2.421875 10.378906 -2.4375 C 10.328125 -2.4375 10.277344 -2.421875 10.226562 -2.421875 C 10.160156 -2.421875 10.074219 -2.421875 10.007812 -2.421875 C 9.957031 -2.421875 9.90625 -2.421875 9.855469 -2.4375 C 9.722656 -2.457031 9.585938 -2.472656 9.453125 -2.488281 C 9.335938 -2.507812 9.21875 -2.523438 9.101562 -2.558594 C 9.03125 -2.558594 8.964844 -2.574219 8.914062 -2.589844 C 8.578125 -2.691406 8.242188 -2.808594 7.921875 -2.945312 C 7.652344 -3.0625 7.402344 -3.195312 7.148438 -3.332031 C 6.863281 -3.480469 6.578125 -3.667969 6.339844 -3.902344 C 6.273438 -3.96875 6.222656 -4.019531 6.15625 -4.070312 C 6.070312 -4.121094 6.023438 -4.1875 5.972656 -4.253906 C 5.871094 -4.375 5.804688 -4.507812 5.734375 -4.640625 C 5.585938 -4.960938 5.5 -5.28125 5.484375 -5.636719 C 5.484375 -5.652344 5.484375 -5.667969 5.484375 -5.683594 C 5.464844 -5.835938 5.449219 -5.988281 5.449219 -6.140625 C 5.433594 -7.265625 5.449219 -8.394531 5.433594 -9.519531 C 5.417969 -10.226562 5.417969 -10.949219 5.398438 -11.671875 C 5.398438 -11.691406 5.398438 -11.707031 5.398438 -11.722656 C 5.347656 -11.722656 5.316406 -11.722656 5.28125 -11.722656 C 5.0625 -11.722656 4.84375 -11.722656 4.625 -11.707031 C 4.375 -11.691406 4.136719 -11.722656 3.886719 -11.722656 C 3.480469 -11.742188 3.0625 -11.742188 2.65625 -11.707031 C 2.304688 -11.691406 1.949219 -11.691406 1.613281 -11.691406 C 1.53125 -11.691406 1.464844 -11.671875 1.394531 -11.707031 C 1.363281 -11.707031 1.34375 -11.707031 1.328125 -11.707031 Z M 1.328125 -11.707031 "/></g></g></g><g fill="#ffffff" fill-opacity="1"><g transform="translate(138.937939, 47.96692)"><g><path d="M 14.988281 -3.5 C 15.039062 -3.53125 15.070312 -3.566406 15.121094 -3.617188 C 15.339844 -3.785156 15.558594 -3.96875 15.761719 -4.136719 C 16.097656 -4.421875 16.417969 -4.691406 16.734375 -4.980469 C 17.039062 -5.230469 17.308594 -5.484375 17.59375 -5.734375 C 17.863281 -5.988281 18.132812 -6.222656 18.417969 -6.476562 C 18.6875 -6.710938 18.957031 -6.945312 19.226562 -7.164062 C 19.597656 -7.46875 19.964844 -7.769531 20.335938 -8.058594 C 20.621094 -8.292969 20.925781 -8.527344 21.210938 -8.761719 C 21.511719 -9.03125 21.816406 -9.300781 22.136719 -9.570312 C 22.371094 -9.753906 22.605469 -9.957031 22.84375 -10.144531 C 23.0625 -10.34375 23.296875 -10.53125 23.480469 -10.75 C 23.53125 -10.78125 23.566406 -10.816406 23.617188 -10.847656 C 23.734375 -10.949219 23.867188 -11.066406 24.003906 -11.167969 C 24.121094 -11.285156 24.222656 -11.402344 24.355469 -11.503906 C 24.421875 -11.554688 24.472656 -11.621094 24.539062 -11.691406 C 24.421875 -11.691406 24.339844 -11.722656 24.238281 -11.722656 C 23.917969 -11.707031 23.597656 -11.707031 23.28125 -11.707031 C 23.109375 -11.707031 22.960938 -11.707031 22.792969 -11.707031 C 22.386719 -11.707031 21.984375 -11.742188 21.582031 -11.707031 C 21.378906 -11.691406 21.175781 -11.707031 20.976562 -11.707031 C 20.722656 -11.707031 20.453125 -11.707031 20.203125 -11.707031 C 19.796875 -11.707031 19.410156 -11.707031 18.988281 -11.707031 C 18.957031 -11.691406 18.921875 -11.671875 18.890625 -11.65625 C 18.738281 -11.554688 18.621094 -11.421875 18.484375 -11.320312 C 18.335938 -11.167969 18.167969 -11.035156 18.015625 -10.882812 C 17.8125 -10.730469 17.628906 -10.5625 17.441406 -10.394531 C 17.257812 -10.242188 17.089844 -10.109375 16.921875 -9.957031 C 16.617188 -9.6875 16.316406 -9.4375 16.011719 -9.167969 C 15.910156 -9.101562 15.828125 -9.015625 15.742188 -8.949219 C 15.574219 -8.78125 15.390625 -8.628906 15.207031 -8.476562 C 15.054688 -8.34375 14.886719 -8.207031 14.71875 -8.074219 C 14.550781 -7.921875 14.363281 -7.789062 14.179688 -7.636719 C 14.027344 -7.5 13.875 -7.367188 13.707031 -7.234375 C 13.523438 -7.066406 13.320312 -6.914062 13.121094 -6.746094 C 13.085938 -6.710938 13.050781 -6.695312 13.019531 -6.675781 C 12.953125 -6.746094 12.882812 -6.796875 12.816406 -6.863281 C 12.566406 -7.066406 12.3125 -7.285156 12.078125 -7.484375 C 11.839844 -7.6875 11.621094 -7.871094 11.386719 -8.074219 C 11.117188 -8.308594 10.832031 -8.542969 10.546875 -8.761719 C 10.242188 -9.015625 9.941406 -9.269531 9.621094 -9.503906 C 9.101562 -9.890625 8.59375 -10.261719 8.058594 -10.628906 C 7.703125 -10.882812 7.332031 -11.136719 6.996094 -11.421875 C 6.847656 -11.554688 6.695312 -11.671875 6.542969 -11.757812 C 6.460938 -11.757812 6.375 -11.773438 6.308594 -11.757812 C 6.191406 -11.757812 6.070312 -11.722656 5.953125 -11.722656 C 5.433594 -11.707031 4.929688 -11.722656 4.40625 -11.707031 C 3.75 -11.691406 3.078125 -11.707031 2.421875 -11.707031 C 2.386719 -11.707031 2.355469 -11.707031 2.320312 -11.707031 C 2.1875 -11.722656 2.050781 -11.742188 1.933594 -11.742188 C 1.816406 -11.757812 1.699219 -11.722656 1.597656 -11.757812 C 1.582031 -11.773438 1.5625 -11.757812 1.546875 -11.757812 C 1.464844 -11.757812 1.363281 -11.742188 1.277344 -11.742188 C 1.246094 -11.742188 1.210938 -11.742188 1.175781 -11.722656 C 1.210938 -11.707031 1.210938 -11.671875 1.246094 -11.65625 C 1.296875 -11.605469 1.363281 -11.554688 1.414062 -11.503906 C 1.683594 -11.269531 1.917969 -11.015625 2.1875 -10.796875 C 2.472656 -10.546875 2.773438 -10.3125 3.0625 -10.09375 C 3.617188 -9.65625 4.1875 -9.25 4.742188 -8.832031 C 4.929688 -8.695312 5.097656 -8.5625 5.246094 -8.410156 C 5.347656 -8.308594 5.449219 -8.207031 5.550781 -8.125 C 5.851562 -7.871094 6.140625 -7.621094 6.425781 -7.382812 C 6.695312 -7.148438 6.980469 -6.929688 7.25 -6.695312 C 7.570312 -6.441406 7.871094 -6.191406 8.175781 -5.9375 C 8.410156 -5.753906 8.644531 -5.566406 8.863281 -5.382812 C 9.082031 -5.199219 9.300781 -5.011719 9.519531 -4.828125 C 9.65625 -4.710938 9.789062 -4.59375 9.925781 -4.472656 C 10.144531 -4.273438 10.378906 -4.070312 10.597656 -3.867188 C 10.664062 -3.816406 10.730469 -3.769531 10.78125 -3.699219 C 10.78125 -3.617188 10.78125 -3.550781 10.78125 -3.464844 C 10.78125 -3.296875 10.765625 -3.113281 10.765625 -2.945312 C 10.765625 -2.355469 10.75 -1.78125 10.78125 -1.210938 C 10.796875 -0.925781 10.765625 -0.65625 10.816406 -0.386719 C 10.816406 -0.269531 10.832031 -0.152344 10.832031 -0.0351562 C 10.949219 -0.0351562 11.066406 -0.015625 11.167969 -0.015625 C 11.523438 0 11.859375 0 12.210938 0.015625 C 12.414062 0.015625 12.597656 0.0351562 12.800781 0.0351562 C 13.050781 0.0507812 13.304688 0.0507812 13.558594 0.0664062 C 13.742188 0.0664062 13.945312 0.0664062 14.128906 0.0664062 C 14.164062 0.0664062 14.214844 0.0664062 14.246094 0.0664062 C 14.398438 0.0859375 14.566406 0.0859375 14.71875 0.0664062 C 14.785156 0.0664062 14.851562 0.0664062 14.9375 0.0664062 C 14.9375 0.0859375 14.953125 0.0664062 14.96875 0.0664062 C 15.003906 0.015625 14.988281 -0.0507812 14.988281 -0.0859375 C 14.953125 -0.203125 14.96875 -0.304688 14.96875 -0.402344 C 14.96875 -0.992188 14.96875 -1.582031 14.96875 -2.167969 C 14.96875 -2.605469 14.988281 -3.042969 14.988281 -3.5 Z M 14.988281 -3.5 "/></g></g></g></svg>